<?xml version="1.0" encoding="utf-8"?>
<!-- Generator: Adobe Illustrator 16.0.4, SVG Export Plug-In . SVG Version: 6.00 Build 0)  -->
<!DOCTYPE svg PUBLIC "-//W3C//DTD SVG 1.1//EN" "http://www.w3.org/Graphics/SVG/1.1/DTD/svg11.dtd">
<svg version="1.1" id="Layer_1" xmlns="http://www.w3.org/2000/svg" xmlns:xlink="http://www.w3.org/1999/xlink" x="0px" y="0px"
	 width="100px" height="100px" viewBox="0 0 100 100" enable-background="new 0 0 100 100" xml:space="preserve">
<line fill="none" stroke="#F06722" stroke-miterlimit="10" x1="51.363" y1="9.302" x2="60.934" y2="5.467"/>
<line fill="none" stroke="#F06722" stroke-miterlimit="10" x1="61.895" y1="6.495" x2="42.756" y2="6.495"/>
<line fill="none" stroke="#F06722" stroke-miterlimit="10" x1="42.969" y1="5.467" x2="36.066" y2="11.219"/>
<line fill="none" stroke="#F06722" stroke-miterlimit="10" x1="36.066" y1="11.219" x2="44.622" y2="11.219"/>
<line fill="none" stroke="#F06722" stroke-width="0.25" stroke-miterlimit="10" x1="39.518" y1="11.219" x2="32.279" y2="20.731"/>
<g>
	<g>
		<path fill="none" stroke="#F8A778" stroke-miterlimit="10" d="M43.418,10.113"/>
	</g>
</g>
<g>
	<g>
		<path fill="none" stroke="#F8A778" stroke-miterlimit="10" d="M42.474,9.006"/>
	</g>
</g>
<g>
	<g>
		<path fill="none" stroke="#F8A778" stroke-miterlimit="10" d="M42.474,9.006"/>
	</g>
</g>
<g>
	<g>
		<g>
			<g>
				<polygon fill="#F06722" points="43.285,9.857 43.101,8.091 42.847,8.146 43.049,9.91 				"/>
				<path fill="#F06722" d="M43.636,9.784l-0.156-1.77c-0.001-0.009-0.254,0.05-0.254,0.05L43.4,9.832
					C43.4,9.832,43.634,9.775,43.636,9.784z"/>
				<polygon fill="#F06722" points="43.993,9.747 43.865,7.974 43.606,8 43.753,9.771 				"/>
				<polygon fill="#F06722" points="44.347,9.72 44.254,7.945 43.991,7.961 44.11,9.735 				"/>
				<polygon fill="#F06722" points="44.696,9.707 44.649,7.931 44.384,7.94 44.461,9.715 				"/>
				<polygon fill="#F06722" points="45.055,9.701 45.037,7.923 44.779,7.926 44.811,9.703 				"/>
				<polygon fill="#F06722" points="45.421,9.699 45.417,7.921 45.161,7.923 45.175,9.7 				"/>
			</g>
		</g>
	</g>
</g>
<g>
	<g>
		<g>
			<g>
				<polygon fill="#F06722" points="45.786,9.539 45.311,7.831 44.63,7.747 45.056,9.466 				"/>
				<polygon fill="#F06722" points="46.876,9.482 46.327,7.793 45.644,7.861 46.143,9.563 				"/>
				<path fill="#F06722" d="M47.937,9.189l-0.629-1.662l-0.654,0.197l0.574,1.681c0,0,0.177-0.052,0.354-0.104
					C47.759,9.248,47.937,9.189,47.937,9.189z"/>
				<path fill="#F06722" d="M48.973,8.735l-0.757-1.608C48.207,7.14,47.603,7.4,47.603,7.4l0.682,1.641
					C48.285,9.041,48.991,8.736,48.973,8.735z"/>
				<path fill="#F06722" d="M49.913,8.298L49.198,6.67c0,0-0.173,0.077-0.346,0.153C48.69,6.9,48.529,6.977,48.529,6.977l0.76,1.606
					c0,0,0.16-0.076,0.32-0.152C49.761,8.365,49.913,8.298,49.913,8.298z"/>
				<path fill="#F06722" d="M50.807,7.956l-0.53-1.696c0,0-0.759,0.246-0.741,0.262l0.674,1.645
					C50.215,8.143,50.807,7.956,50.807,7.956z"/>
				<path fill="#F06722" d="M51.691,7.756l-0.243-1.761c0,0-0.201,0.034-0.402,0.067c-0.201,0.035-0.402,0.069-0.398,0.077
					l0.449,1.72C51.097,7.846,51.691,7.756,51.691,7.756z"/>
			</g>
		</g>
	</g>
</g>
<g>
	<g>
		<g>
			<g>
				<rect x="44.852" y="7.179" fill="#F06722" width="0.113" height="1.777"/>
				<rect x="45.021" y="7.179" fill="#F06722" width="0.113" height="1.777"/>
				<rect x="45.189" y="7.179" fill="#F06722" width="0.113" height="1.777"/>
				<rect x="45.357" y="7.179" fill="#F06722" width="0.113" height="1.777"/>
				<rect x="45.525" y="7.179" fill="#F06722" width="0.113" height="1.777"/>
				<rect x="45.694" y="7.179" fill="#F06722" width="0.113" height="1.777"/>
				<rect x="45.862" y="7.179" fill="#F06722" width="0.113" height="1.777"/>
			</g>
		</g>
	</g>
</g>
<g>
	<g>
		<path fill="none" stroke="#F8A778" stroke-miterlimit="10" d="M46.267,8.043"/>
	</g>
</g>
<g>
	<g>
		<path fill="none" stroke="#F8A778" stroke-miterlimit="10" d="M46.267,8.043"/>
	</g>
</g>
<g>
	<g>
		<path fill="none" stroke="#F8A778" stroke-miterlimit="10" d="M46.267,8.043"/>
	</g>
</g>
<g>
	<g>
		<path fill="none" stroke="#F8A778" stroke-miterlimit="10" d="M46.975,7.822"/>
	</g>
</g>
<g>
	<g>
		<g>
			<g>
				<polygon fill="#F06722" points="45.538,8.713 45.489,6.937 44.379,6.958 44.379,8.735 				"/>
				<polygon fill="#F06722" points="47.246,8.644 47.155,6.869 46.034,6.919 46.102,8.696 				"/>
				
					<rect x="47.432" y="7.13" transform="matrix(0.0536 0.9986 -0.9986 0.0536 53.4174 -40.9667)" fill="#F06722" width="1.777" height="1.133"/>
				<polygon fill="#F06722" points="50.604,8.477 50.54,6.701 49.397,6.751 49.483,8.526 				"/>
				<path fill="#F06722" d="M52.257,8.447l0.003-1.777c0,0-0.29,0-0.581-0.001c-0.287,0.008-0.575,0.016-0.575,0.016l0.045,1.777
					c0,0,0.278-0.008,0.557-0.016C51.981,8.446,52.257,8.447,52.257,8.447z"/>
				<path fill="#F06722" d="M53.891,8.495l0.106-1.774c0,0-0.293-0.018-0.586-0.035c-0.293-0.015-0.582-0.011-0.582-0.011
					l-0.032,1.777c0,0,0.277-0.004,0.55,0.01C53.619,8.478,53.891,8.495,53.891,8.495z"/>
				<path fill="#F06722" d="M55.493,8.652l0.254-1.759c0,0-1.178-0.163-1.177-0.138l-0.147,1.771
					C54.43,8.503,55.493,8.652,55.493,8.652z"/>
			</g>
		</g>
	</g>
</g>
<g>
	<g>
		<g>
			<g>
				<polygon fill="#F06722" points="42.669,6.179 43.874,7.48 44.26,6.974 43.023,5.706 				"/>
				<polygon fill="#F06722" points="42.086,6.839 43.242,8.188 43.676,7.72 42.487,6.403 				"/>
				<polygon fill="#F06722" points="41.436,7.432 42.539,8.825 43.014,8.4 41.876,7.037 				"/>
				<path fill="#F06722" d="M40.742,7.968l1.043,1.439c0,0,0.137-0.089,0.259-0.19c0.125-0.099,0.25-0.198,0.25-0.198l-1.085-1.407
					c0,0-0.116,0.092-0.231,0.184C40.863,7.891,40.742,7.968,40.742,7.968z"/>
				<path fill="#F06722" d="M40.023,8.46l0.971,1.489c0,0,0.134-0.086,0.268-0.173c0.132-0.093,0.265-0.186,0.265-0.186
					l-1.017-1.458c0,0-0.119,0.083-0.237,0.167C40.147,8.38,40.023,8.46,40.023,8.46z"/>
				<polygon fill="#F06722" points="39.271,8.932 40.195,10.45 40.732,10.118 39.78,8.617 				"/>
				<polygon fill="#F06722" points="38.496,9.395 39.398,10.926 39.933,10.609 39.02,9.084 				"/>
			</g>
		</g>
	</g>
</g>
<g>
	<g>
		<g>
			<g>
				<polygon fill="#F06722" points="39.198,11.003 39.21,9.228 38.688,9.249 38.713,11.023 				"/>
				<polygon fill="#F06722" points="39.92,10.974 39.989,9.198 39.466,9.218 39.435,10.994 				"/>
				<polygon fill="#F06722" points="40.609,11.043 40.792,9.276 40.252,9.221 40.147,10.996 				"/>
				<path fill="#F06722" d="M41.301,11.127l0.289-1.754c0.006-0.012-0.533-0.07-0.533-0.07l-0.222,1.764
					C40.835,11.066,41.298,11.114,41.301,11.127z"/>
				<polygon fill="#F06722" points="42.002,11.265 42.361,9.524 41.843,9.423 41.531,11.172 				"/>
				<path fill="#F06722" d="M42.708,11.42l0.414-1.729c0,0-0.125-0.032-0.25-0.063c-0.128-0.027-0.257-0.054-0.257-0.054
					l-0.382,1.736c0,0,0.118,0.024,0.237,0.049C42.589,11.39,42.708,11.42,42.708,11.42z"/>
				<polygon fill="#F06722" points="43.419,11.6 43.868,9.88 43.367,9.753 42.942,11.479 				"/>
			</g>
		</g>
	</g>
</g>
<g>
	<g>
		<g>
			<g>
				<polygon fill="#F06722" points="45.481,11.433 45.154,9.686 43.999,9.921 44.259,11.68 				"/>
				<polygon fill="#F06722" points="47.302,11.063 46.874,9.338 45.719,9.572 46.08,11.312 				"/>
				<polygon fill="#F06722" points="49.077,10.555 48.569,8.852 47.434,9.194 47.89,10.912 				"/>
				<path fill="#F06722" d="M50.837,10.009l-0.579-1.681c0,0-0.28,0.106-0.565,0.185c-0.284,0.085-0.567,0.17-0.567,0.17
					l0.533,1.696c0,0,0.296-0.089,0.593-0.179C50.55,10.117,50.837,10.009,50.837,10.009z"/>
				<polygon fill="#F06722" points="52.551,9.379 51.933,7.713 50.808,8.126 51.4,9.802 				"/>
				<polygon fill="#F06722" points="54.252,8.739 53.611,7.081 52.483,7.511 53.114,9.172 				"/>
				<polygon fill="#F06722" points="55.933,8.083 55.292,6.425 54.163,6.865 54.804,8.523 				"/>
			</g>
		</g>
	</g>
</g>
<g>
	<g>
		<g>
			<g>
				<polygon fill="#F06722" points="55.966,6.526 56.091,8.298 57.218,8.238 57.011,6.473 				"/>
				<polygon fill="#F06722" points="54.41,6.608 54.413,8.386 55.54,8.328 55.455,6.552 				"/>
				<polygon fill="#F06722" points="52.829,6.552 52.757,8.328 53.867,8.375 53.892,6.598 				"/>
				<path fill="#F06722" d="M51.241,6.472l-0.133,1.772c0,0,0.271,0.029,0.55,0.036c0.277,0.012,0.555,0.024,0.555,0.024
					l0.096-1.774c0,0-0.266-0.011-0.532-0.022C51.513,6.501,51.241,6.472,51.241,6.472z"/>
				<polygon fill="#F06722" points="49.636,6.333 49.484,8.104 50.575,8.198 50.714,6.426 				"/>
				<polygon fill="#F06722" points="48.019,6.197 47.87,7.969 48.951,8.057 49.108,6.287 				"/>
				<polygon fill="#F06722" points="46.386,6.068 46.271,7.842 47.345,7.927 47.482,6.155 				"/>
			</g>
		</g>
	</g>
</g>
<g>
	<g>
		<g>
			<g>
				<polygon fill="#F06722" points="58.208,5.247 58.657,6.967 60.368,6.528 59.948,4.801 				"/>
				<polygon fill="#F06722" points="55.637,5.939 56.107,7.653 57.82,7.186 57.359,5.469 				"/>
				<polygon fill="#F06722" points="53.085,6.633 53.541,8.351 55.266,7.882 54.797,6.168 				"/>
				<path fill="#F06722" d="M50.541,7.261l0.396,1.733c0,0,0.446-0.088,0.879-0.205c0.436-0.111,0.871-0.221,0.871-0.221
					l-0.438-1.723c0,0-0.427,0.108-0.854,0.217C50.969,7.178,50.541,7.262,50.541,7.261z"/>
				<path fill="#F06722" d="M47.991,7.772l0.301,1.752c0,0,0.448-0.075,0.896-0.15c0.442-0.095,0.885-0.19,0.885-0.19l-0.368-1.739
					c0,0-0.428,0.092-0.855,0.184C48.42,7.7,47.991,7.772,47.991,7.772z"/>
				<path fill="#F06722" d="M45.427,8.122l0.178,1.768c0,0,0.454-0.048,0.907-0.095c0.456-0.037,0.901-0.124,0.901-0.124
					L47.15,7.913c0,0-0.428,0.084-0.861,0.118C45.858,8.077,45.427,8.122,45.427,8.122z"/>
				<path fill="#F06722" d="M42.851,8.284l0.045,1.777c0,0,0.456-0.017,0.912-0.033c0.456-0.013,0.911-0.045,0.911-0.044
					l-0.135-1.772c0,0-0.432,0.03-0.865,0.042C43.284,8.268,42.851,8.284,42.851,8.284z"/>
			</g>
		</g>
	</g>
</g>
<g>
	<g>
		<g>
			<g>
				<polygon fill="#F06722" points="55.021,6.187 55.1,7.962 56.391,7.88 56.391,6.103 				"/>
				<polygon fill="#F06722" points="52.981,6.315 53.177,8.082 54.468,8.002 54.351,6.229 				"/>
				<polygon fill="#F06722" points="50.981,6.61 51.253,8.367 52.545,8.161 52.321,6.398 				"/>
				<path fill="#F06722" d="M48.99,6.938l0.339,1.745c0,0,0.323-0.068,0.646-0.113c0.323-0.051,0.646-0.103,0.646-0.103
					l-0.295-1.752c0,0-0.335,0.053-0.67,0.106C49.318,6.869,48.99,6.938,48.99,6.938z"/>
				<polygon fill="#F06722" points="47.034,7.352 47.403,9.09 48.696,8.816 48.347,7.074 				"/>
				<polygon fill="#F06722" points="45.087,7.769 45.47,9.505 46.77,9.224 46.391,7.487 				"/>
				<polygon fill="#F06722" points="43.158,8.194 43.526,9.933 44.831,9.646 44.454,7.909 				"/>
			</g>
		</g>
	</g>
</g>
<g>
	<g>
		<g>
			<g>
				<polygon fill="#F06722" points="43.729,5.732 44.613,7.274 45.256,6.884 44.385,5.335 				"/>
				<polygon fill="#F06722" points="42.753,6.324 43.654,7.856 44.298,7.465 43.409,5.927 				"/>
				<polygon fill="#F06722" points="41.778,6.916 42.696,8.437 43.34,8.047 42.433,6.518 				"/>
				<polygon fill="#F06722" points="40.804,7.5 41.73,9.017 42.381,8.628 41.457,7.11 				"/>
				<polygon fill="#F06722" points="39.842,8.035 40.718,9.582 41.398,9.202 40.488,7.676 				"/>
				<polygon fill="#F06722" points="38.881,8.572 39.706,10.146 40.385,9.768 39.526,8.211 				"/>
				<polygon fill="#F06722" points="37.921,9.109 38.693,10.71 39.373,10.332 38.565,8.749 				"/>
			</g>
		</g>
	</g>
</g>
<g>
	<g>
		<g>
			<g>
				<polygon fill="#F06722" points="40.473,7.753 41.512,9.182 41.823,8.818 40.758,7.411 				"/>
				<polygon fill="#F06722" points="40.05,8.261 41.05,9.723 41.36,9.359 40.334,7.92 				"/>
				<polygon fill="#F06722" points="39.564,8.71 40.523,10.202 40.883,9.886 39.896,8.414 				"/>
				<path fill="#F06722" d="M39.065,9.144l0.916,1.521c0.011,0.014,0.365-0.309,0.365-0.309l-0.945-1.501
					C39.402,8.855,39.076,9.158,39.065,9.144z"/>
				<polygon fill="#F06722" points="38.51,9.505 39.382,11.052 39.785,10.792 38.883,9.263 				"/>
				<path fill="#F06722" d="M37.96,9.819l0.782,1.596c0,0,0.121-0.053,0.242-0.105c0.101-0.065,0.201-0.13,0.201-0.13l-0.858-1.556
					c0,0-0.093,0.061-0.186,0.121C38.051,9.782,37.96,9.819,37.96,9.819z"/>
				<polygon fill="#F06722" points="37.424,10.048 38.018,11.724 38.504,11.518 37.783,9.893 				"/>
			</g>
		</g>
	</g>
</g>
<g>
	<g>
		<g>
			<g>
				<polygon fill="#F06722" points="60.472,4.171 60.595,5.944 62.18,5.803 61.954,4.04 				"/>
				<polygon fill="#F06722" points="58.237,4.255 58.247,6.032 59.821,5.991 59.742,4.215 				"/>
				<polygon fill="#F06722" points="55.971,4.226 55.925,6.002 57.482,6.026 57.494,4.249 				"/>
				
					<rect x="53.535" y="4.299" transform="matrix(0.0269 -0.9996 0.9996 0.0269 47.8907 59.3365)" fill="#F06722" width="1.777" height="1.54"/>
				<path fill="#F06722" d="M51.358,4.123L51.357,5.9c0,0,0.38-0.001,0.759-0.001c0.382,0.009,0.765,0.019,0.765,0.019l0.037-1.777
					c0,0-0.388-0.01-0.775-0.019C51.75,4.123,51.358,4.123,51.358,4.123z"/>
				<path fill="#F06722" d="M49.016,4.18l0.094,1.775c0,0,0.375-0.019,0.75-0.038c0.374-0.026,0.755-0.015,0.755-0.014l-0.024-1.777
					c0,0-0.39-0.012-0.786,0.015C49.411,4.16,49.016,4.18,49.016,4.18z"/>
				<path fill="#F06722" d="M46.659,4.393l0.235,1.762c0,0,1.475-0.195,1.481-0.163l-0.133-1.772
					C48.244,4.186,46.659,4.392,46.659,4.393z"/>
			</g>
		</g>
	</g>
</g>
<g>
	<g>
		<g>
			<g>
				<polygon fill="#F06722" points="60.011,4.547 60.11,6.322 61.67,6.25 61.525,4.478 				"/>
				<polygon fill="#F06722" points="57.755,4.651 57.789,6.428 59.348,6.357 59.27,4.581 				"/>
				<polygon fill="#F06722" points="55.482,4.651 55.478,6.429 57.028,6.437 57.01,4.659 				"/>
				<polygon fill="#F06722" points="53.207,4.633 53.17,6.41 54.719,6.425 54.735,4.647 				"/>
				<polygon fill="#F06722" points="50.918,4.574 50.875,6.351 52.416,6.391 52.455,4.614 				"/>
				<polygon fill="#F06722" points="48.623,4.523 48.586,6.3 50.121,6.331 50.166,4.555 				"/>
				<polygon fill="#F06722" points="46.317,4.487 46.308,6.264 47.838,6.289 47.865,4.511 				"/>
			</g>
		</g>
	</g>
</g>
<g>
	<g>
		<g>
			<g>
				<rect x="59.243" y="4.475" fill="#F06722" width="1.177" height="1.777"/>
				<rect x="57.491" y="4.475" fill="#F06722" width="1.177" height="1.777"/>
				<rect x="55.738" y="4.475" fill="#F06722" width="1.177" height="1.777"/>
				<rect x="53.986" y="4.475" fill="#F06722" width="1.176" height="1.777"/>
				<rect x="52.233" y="4.475" fill="#F06722" width="1.177" height="1.777"/>
				<rect x="50.481" y="4.475" fill="#F06722" width="1.176" height="1.777"/>
				<rect x="48.729" y="4.475" fill="#F06722" width="1.176" height="1.777"/>
			</g>
		</g>
	</g>
</g>
<g>
	<g>
		<g>
			<g>
				<polygon fill="#F06722" points="58.526,4.341 58.653,6.114 60.028,6.027 59.862,4.258 				"/>
				<polygon fill="#F06722" points="56.538,4.465 56.605,6.242 57.98,6.156 57.873,4.382 				"/>
				<polygon fill="#F06722" points="54.535,4.504 54.565,6.281 55.935,6.26 55.882,4.483 				"/>
				<polygon fill="#F06722" points="52.529,4.528 52.527,6.305 53.895,6.292 53.877,4.515 				"/>
				<polygon fill="#F06722" points="50.513,4.512 50.499,6.289 51.86,6.3 51.867,4.522 				"/>
				
					<rect x="48.273" y="4.712" transform="matrix(0.0088 -1 1 0.0088 43.3393 54.5022)" fill="#F06722" width="1.777" height="1.357"/>
				<polygon fill="#F06722" points="46.462,4.48 46.458,6.258 47.812,6.268 47.824,4.491 				"/>
			</g>
		</g>
	</g>
</g>
<g>
	<g>
		<g>
			<g>
				<polygon fill="#F06722" points="48.4,4.303 48.683,6.057 49.02,6.017 48.692,4.27 				"/>
				<polygon fill="#F06722" points="47.964,4.353 48.18,6.117 48.518,6.077 48.256,4.319 				"/>
				<polygon fill="#F06722" points="47.528,4.404 47.677,6.175 48.015,6.136 47.821,4.37 				"/>
				<path fill="#F06722" d="M47.089,4.45l0.088,1.775c-0.003,0.009,0.335-0.031,0.335-0.031l-0.127-1.773
					C47.385,4.421,47.094,4.459,47.089,4.45z"/>
				<polygon fill="#F06722" points="46.629,4.457 46.691,6.233 47.018,6.228 46.938,4.452 				"/>
				<polygon fill="#F06722" points="46.17,4.465 46.205,6.242 46.531,6.236 46.479,4.459 				"/>
				<polygon fill="#F06722" points="45.71,4.473 45.719,6.25 46.045,6.245 46.019,4.467 				"/>
			</g>
		</g>
	</g>
</g>
<g>
	<g>
		<g>
			<g>
				<path fill="#F06722" d="M49.662,5.855l0.31,1.742c0,0,0.219,0.005,0.438,0.01c0.219,0.012,0.438,0.025,0.438,0.025l-0.242-1.749
					c0,0-0.236-0.011-0.471-0.022C49.898,5.858,49.662,5.855,49.662,5.855z"/>
				<path fill="#F06722" d="M48.26,5.946l0.409,1.726c0,0,0.217-0.032,0.436-0.043c0.218-0.019,0.438-0.025,0.438-0.025L49.2,5.867
					c0,0-0.236,0.008-0.471,0.03C48.494,5.911,48.26,5.946,48.26,5.946z"/>
				<path fill="#F06722" d="M46.878,6.206l0.508,1.702c0,0,0.212-0.057,0.428-0.097c0.214-0.047,0.431-0.079,0.431-0.079
					l-0.442-1.719c0,0-0.233,0.036-0.464,0.087C47.106,6.145,46.878,6.206,46.878,6.206z"/>
				<path fill="#F06722" d="M45.534,6.617l0.604,1.671c0,0,0.208-0.07,0.415-0.141c0.209-0.064,0.419-0.128,0.419-0.128l-0.54-1.693
					c0,0-0.226,0.069-0.451,0.138C45.757,6.541,45.534,6.617,45.534,6.617z"/>
				<polygon fill="#F06722" points="44.223,7.14 44.931,8.771 45.739,8.437 45.098,6.779 				"/>
				<polygon fill="#F06722" points="42.9,7.771 43.801,9.303 43.994,9.187 43.903,9.236 44.534,8.946 43.804,7.326 43.148,7.627 
					43.109,7.645 43.052,7.679 				"/>
				<path fill="#F06722" d="M41.604,9.083l1.594,0.786c0,0,0.09-0.186,0.149-0.263c0.042-0.062,0.084-0.083,0.107-0.099
					l-0.976-1.485c0.025-0.021-0.34,0.208-0.564,0.532C41.703,8.851,41.604,9.083,41.604,9.083z"/>
			</g>
		</g>
	</g>
</g>
<g>
	<g>
		<g>
			<g>
				<rect x="51.979" y="7.351" fill="#F06722" width="0.656" height="1.777"/>
				<rect x="51.002" y="7.351" fill="#F06722" width="0.656" height="1.777"/>
				<rect x="50.025" y="7.351" fill="#F06722" width="0.656" height="1.777"/>
				<rect x="49.048" y="7.351" fill="#F06722" width="0.656" height="1.777"/>
				<rect x="48.071" y="7.351" fill="#F06722" width="0.656" height="1.777"/>
				<rect x="47.093" y="7.351" fill="#F06722" width="0.656" height="1.777"/>
				<rect x="46.117" y="7.351" fill="#F06722" width="0.656" height="1.777"/>
			</g>
		</g>
	</g>
</g>
<g>
	<g>
		<g>
			<g>
				<polygon fill="#F06722" points="53.273,7.14 53.287,8.917 54.051,8.907 54.051,7.13 				"/>
				<polygon fill="#F06722" points="52.115,7.155 52.148,8.933 52.913,8.922 52.893,7.145 				"/>
				<polygon fill="#F06722" points="50.976,7.171 50.994,8.948 51.771,8.938 51.739,7.161 				"/>
				<polygon fill="#F06722" points="49.841,7.182 49.834,8.959 50.614,8.954 50.602,7.176 				"/>
				<polygon fill="#F06722" points="48.728,7.15 48.655,8.926 49.447,8.949 49.475,7.171 				"/>
				<path fill="#F06722" d="M47.625,7.084l-0.154,1.771c0,0,0.2,0.022,0.4,0.045c0.198,0.008,0.396,0.016,0.396,0.016l0.094-1.775
					c0,0-0.186-0.007-0.373-0.015C47.807,7.105,47.625,7.084,47.625,7.084z"/>
				<polygon fill="#F06722" points="46.541,6.961 46.278,8.719 47.079,8.811 47.269,7.043 				"/>
			</g>
		</g>
	</g>
</g>
<g>
	<g>
		<g>
			<g>
				<polygon fill="#F06722" points="50.572,5.77 50.851,7.525 51.583,7.425 51.284,5.673 				"/>
				<polygon fill="#F06722" points="49.511,5.914 49.76,7.674 50.493,7.574 50.223,5.817 				"/>
				<polygon fill="#F06722" points="48.45,6.058 48.67,7.822 49.402,7.722 49.163,5.961 				"/>
				<polygon fill="#F06722" points="47.388,6.2 47.58,7.966 48.312,7.871 48.102,6.105 				"/>
				<polygon fill="#F06722" points="46.312,6.305 46.496,8.072 47.224,8.001 47.034,6.234 				"/>
				
					<rect x="44.798" y="6.893" transform="matrix(-0.0992 -0.9951 0.9951 -0.0992 42.9951 53.4394)" fill="#F06722" width="1.777" height="0.732"/>
				<polygon fill="#F06722" points="44.158,6.514 44.326,8.284 45.055,8.213 44.881,6.444 				"/>
			</g>
		</g>
	</g>
</g>
<g>
	<g>
		<g>
			<g>
				<polygon fill="#F06722" points="46.616,7.92 47.104,9.621 47.688,9.391 47.158,7.704 				"/>
				<polygon fill="#F06722" points="45.81,8.242 46.232,9.963 46.817,9.733 46.352,8.026 				"/>
				<polygon fill="#F06722" points="44.974,8.476 45.331,10.214 45.938,10.05 45.537,8.323 				"/>
				<path fill="#F06722" d="M44.133,8.687l0.291,1.752c0.004,0.018,0.61-0.146,0.61-0.145l-0.335-1.743
					C44.699,8.551,44.136,8.705,44.133,8.687z"/>
				<polygon fill="#F06722" points="43.275,8.823 43.499,10.585 44.12,10.487 43.851,8.731 				"/>
				<path fill="#F06722" d="M42.421,8.919l0.14,1.771c0,0,0.16-0.008,0.32-0.017c0.161-0.006,0.313-0.04,0.313-0.04l-0.202-1.766
					c0,0-0.145,0.032-0.287,0.037C42.564,8.912,42.421,8.919,42.421,8.919z"/>
				<polygon fill="#F06722" points="41.574,8.963 41.609,10.74 42.249,10.707 42.143,8.933 				"/>
			</g>
		</g>
	</g>
</g>
<g>
	<g>
		<g>
			<g>
				<polygon fill="#F06722" points="44.992,9.466 45.226,11.228 45.675,11.188 45.4,9.432 				"/>
				<polygon fill="#F06722" points="44.384,9.518 44.558,11.286 45.007,11.247 44.792,9.483 				"/>
				<polygon fill="#F06722" points="43.775,9.57 43.89,11.344 44.338,11.305 44.184,9.535 				"/>
				<path fill="#F06722" d="M43.163,9.616l0.061,1.776c-0.003,0.009,0.446-0.03,0.446-0.03l-0.095-1.775
					C43.575,9.588,43.168,9.625,43.163,9.616z"/>
				<polygon fill="#F06722" points="42.531,9.624 42.574,11.401 43.01,11.396 42.956,9.619 				"/>
				<polygon fill="#F06722" points="41.899,9.632 41.923,11.409 42.36,11.403 42.323,9.626 				"/>
				<polygon fill="#F06722" points="41.267,9.64 41.273,11.417 41.709,11.412 41.691,9.634 				"/>
			</g>
		</g>
	</g>
</g>
<g>
	<g>
		<g>
			<g>
				<polygon fill="#F06722" points="41.769,6.826 42.868,8.223 43.243,7.918 42.148,6.518 				"/>
				<polygon fill="#F06722" points="41.204,7.286 42.31,8.677 42.685,8.372 41.583,6.977 				"/>
				<polygon fill="#F06722" points="40.639,7.746 41.751,9.132 42.126,8.827 41.018,7.437 				"/>
				<path fill="#F06722" d="M40.074,8.2l1.113,1.385c0.01,0.001,0.38-0.304,0.38-0.304l-1.115-1.384
					C40.453,7.897,40.073,8.211,40.074,8.2z"/>
				<polygon fill="#F06722" points="39.515,8.607 40.579,10.031 40.988,9.732 39.89,8.334 				"/>
				<polygon fill="#F06722" points="38.957,9.016 39.969,10.477 40.378,10.178 39.332,8.742 				"/>
				<polygon fill="#F06722" points="38.399,9.425 39.359,10.921 39.769,10.623 38.773,9.15 				"/>
			</g>
		</g>
	</g>
</g>
<g>
	<g>
		<g>
			<g>
				<polygon fill="#F06722" points="42.164,6.311 43.472,7.515 43.828,7.147 42.5,5.967 				"/>
				<polygon fill="#F06722" points="41.665,6.825 42.941,8.062 43.297,7.695 42,6.48 				"/>
				<polygon fill="#F06722" points="41.167,7.339 42.41,8.609 42.767,8.242 41.501,6.994 				"/>
				<path fill="#F06722" d="M40.66,7.844l1.21,1.302c0.009,0.01,0.365-0.357,0.365-0.357l-1.232-1.281
					C41.002,7.508,40.669,7.854,40.66,7.844z"/>
				<polygon fill="#F06722" points="40.114,8.309 41.291,9.642 41.679,9.309 40.48,7.997 				"/>
				<polygon fill="#F06722" points="39.569,8.774 40.711,10.137 41.1,9.804 39.935,8.462 				"/>
				<polygon fill="#F06722" points="39.025,9.24 40.132,10.631 40.521,10.299 39.391,8.928 				"/>
			</g>
		</g>
	</g>
</g>
<g>
	<g>
		<g>
			<g>
				<polygon fill="#F06722" points="43.979,5.268 45.505,6.18 45.832,5.653 44.263,4.816 				"/>
				<polygon fill="#F06722" points="43.561,5.941 45.015,6.963 45.344,6.438 43.841,5.489 				"/>
				<polygon fill="#F06722" points="43.062,6.602 44.479,7.675 44.84,7.199 43.399,6.159 				"/>
				<polygon fill="#F06722" points="42.55,7.265 43.94,8.373 44.301,7.907 42.896,6.818 				"/>
				<polygon fill="#F06722" points="42.009,7.941 43.406,9.041 43.765,8.592 42.373,7.487 				"/>
				<polygon fill="#F06722" points="41.474,8.642 42.896,9.708 43.231,9.26 41.832,8.164 				"/>
				<polygon fill="#F06722" points="40.945,9.368 42.41,10.374 42.736,9.926 41.3,8.88 				"/>
			</g>
		</g>
	</g>
</g>
<g>
	<g>
		<g>
			<g>
				<polygon fill="#F06722" points="59.847,3.951 60.015,5.721 61.261,5.579 60.986,3.822 				"/>
				<polygon fill="#F06722" points="58.131,4.049 58.163,5.826 59.405,5.775 59.287,4.002 				"/>
				<polygon fill="#F06722" points="56.392,4.034 56.326,5.81 57.559,5.829 57.561,4.051 				"/>
				<polygon fill="#F06722" points="54.633,3.936 54.513,5.709 55.729,5.778 55.814,4.003 				"/>
				<polygon fill="#F06722" points="52.855,3.805 52.722,5.577 53.923,5.666 54.05,3.894 				"/>
				<polygon fill="#F06722" points="51.055,3.68 50.95,5.454 52.137,5.533 52.267,3.76 				"/>
				<path fill="#F06722" d="M49.229,3.604l-0.031,1.777c0,0,0.292,0.007,0.585,0.014c0.294,0.012,0.588,0.023,0.588,0.023
					l0.088-1.775c0,0-0.307-0.012-0.613-0.025C49.538,3.612,49.229,3.604,49.229,3.604z"/>
			</g>
		</g>
	</g>
</g>
<g>
	<g>
		<g>
			<g>
				<polygon fill="#F06722" points="59.258,4.438 59.246,6.216 60.654,6.252 60.654,4.475 				"/>
				<polygon fill="#F06722" points="57.178,4.384 57.149,6.161 58.558,6.198 58.574,4.42 				"/>
				<polygon fill="#F06722" points="55.098,4.33 55.053,6.106 56.461,6.143 56.494,4.366 				"/>
				<polygon fill="#F06722" points="53.014,4.281 52.959,6.058 54.363,6.088 54.414,4.312 				"/>
				<polygon fill="#F06722" points="50.903,4.272 50.89,6.05 52.279,6.055 52.32,4.278 				"/>
				<polygon fill="#F06722" points="48.792,4.265 48.82,6.042 50.209,6.047 50.209,4.27 				"/>
				<polygon fill="#F06722" points="46.682,4.257 46.751,6.033 48.141,6.039 48.099,4.262 				"/>
			</g>
		</g>
	</g>
</g>
<g>
	<g>
		<g>
			<g>
				<polygon fill="#F06722" points="45.318,4.184 46.652,5.358 46.924,5.064 45.573,3.911 				"/>
				<polygon fill="#F06722" points="44.938,4.591 46.246,5.794 46.519,5.501 45.193,4.317 				"/>
				<polygon fill="#F06722" points="44.56,4.998 45.84,6.23 46.113,5.938 44.814,4.724 				"/>
				<polygon fill="#F06722" points="44.179,5.404 45.432,6.664 45.707,6.374 44.435,5.132 				"/>
				<polygon fill="#F06722" points="43.768,5.798 45.01,7.068 45.293,6.797 44.043,5.534 				"/>
				<polygon fill="#F06722" points="43.357,6.191 44.588,7.473 44.872,7.202 43.633,5.927 				"/>
				<polygon fill="#F06722" points="42.946,6.584 44.166,7.877 44.449,7.605 43.222,6.32 				"/>
			</g>
		</g>
	</g>
</g>
<g>
	<g>
		<g>
			<g>
				<polygon fill="#F06722" points="45.773,4.398 47.095,5.586 47.396,5.286 46.044,4.132 				"/>
				<polygon fill="#F06722" points="45.371,4.795 46.646,6.034 46.947,5.734 45.641,4.529 				"/>
				<polygon fill="#F06722" points="44.97,5.193 46.195,6.481 46.498,6.181 45.239,4.926 				"/>
				<path fill="#F06722" d="M44.565,5.593l1.179,1.33l0.303-0.295l-1.209-1.303C44.838,5.325,44.574,5.592,44.565,5.593z"/>
				<polygon fill="#F06722" points="44.109,5.996 45.3,7.316 45.598,7.052 44.415,5.726 				"/>
				<polygon fill="#F06722" points="43.653,6.399 44.854,7.709 45.153,7.445 43.959,6.128 				"/>
				<polygon fill="#F06722" points="43.198,6.802 44.41,8.102 44.708,7.838 43.503,6.531 				"/>
			</g>
		</g>
	</g>
</g>
<g>
	<g>
		<g>
			<g>
				<polygon fill="#F06722" points="62.604,4.029 63.405,5.615 64.145,5.257 63.273,3.708 				"/>
				<polygon fill="#F06722" points="61.606,4.51 62.304,6.145 63.044,5.789 62.275,4.187 				"/>
				<polygon fill="#F06722" points="60.548,4.925 61.193,6.581 61.939,6.294 61.263,4.65 				"/>
				<polygon fill="#F06722" points="59.479,5.334 60.086,7.004 60.828,6.722 60.198,5.06 				"/>
				<polygon fill="#F06722" points="58.376,5.734 58.995,7.4 59.728,7.134 59.116,5.465 				"/>
				<path fill="#F06722" d="M57.269,6.159l0.655,1.652c0,0,0.175-0.072,0.349-0.145c0.183-0.067,0.364-0.135,0.364-0.135
					l-0.623-1.665c0,0-0.186,0.069-0.37,0.137C57.456,6.081,57.269,6.159,57.269,6.159z"/>
				<polygon fill="#F06722" points="56.153,6.621 56.883,8.242 57.582,7.953 56.902,6.311 				"/>
			</g>
		</g>
	</g>
</g>
<g>
	<g>
		<path fill="#F06722" d="M56.927,4.223c-2.21,1.195-4.638,1.857-6.985,2.718c-0.288,0.106-1.257,0.633-0.8,1.062
			c0.463,0.435,1.403,0.155,1.903-0.028c2.585-0.949,5.209-1.717,7.643-3.034c0.354-0.192,0.914-0.763,0.284-1.019
			C58.336,3.664,57.495,3.915,56.927,4.223L56.927,4.223z"/>
	</g>
</g>
<g>
	<g>
		<g>
			<g>
				
					<rect x="52.748" y="6.575" transform="matrix(-0.3511 -0.9363 0.9363 -0.3511 66.1428 59.3502)" fill="#F06722" width="1.777" height="0.363"/>
				
					<rect x="52.242" y="6.765" transform="matrix(-0.3511 -0.9363 0.9363 -0.3511 65.2823 59.1333)" fill="#F06722" width="1.777" height="0.362"/>
				
					<rect x="51.737" y="6.955" transform="matrix(-0.3516 -0.9361 0.9361 -0.3516 64.4488 58.91)" fill="#F06722" width="1.778" height="0.362"/>
				
					<rect x="51.232" y="7.144" transform="matrix(-0.3516 -0.9361 0.9361 -0.3516 63.5888 58.6937)" fill="#F06722" width="1.778" height="0.362"/>
				
					<rect x="50.727" y="7.333" transform="matrix(-0.3511 -0.9363 0.9363 -0.3511 62.7028 58.4829)" fill="#F06722" width="1.777" height="0.363"/>
				
					<rect x="50.221" y="7.524" transform="matrix(-0.3517 -0.9361 0.9361 -0.3517 61.8726 58.2589)" fill="#F06722" width="1.777" height="0.362"/>
				
					<rect x="49.716" y="7.713" transform="matrix(-0.3519 -0.936 0.936 -0.3519 61.0251 58.0398)" fill="#F06722" width="1.777" height="0.362"/>
			</g>
		</g>
	</g>
</g>
<g>
	<g>
		<g>
			<g>
				<polygon fill="#F06722" points="50.436,4.139 51.417,5.621 51.919,5.3 50.929,3.823 				"/>
				<polygon fill="#F06722" points="49.701,4.608 50.669,6.099 51.171,5.778 50.195,4.293 				"/>
				<polygon fill="#F06722" points="48.967,5.078 49.921,6.577 50.423,6.256 49.46,4.763 				"/>
				<polygon fill="#F06722" points="48.232,5.548 49.174,7.055 49.676,6.734 48.725,5.233 				"/>
				<polygon fill="#F06722" points="47.498,6.018 48.426,7.533 48.928,7.212 47.991,5.703 				"/>
				<polygon fill="#F06722" points="46.763,6.488 47.679,8.011 48.181,7.69 47.256,6.172 				"/>
				<polygon fill="#F06722" points="46.028,6.958 46.931,8.489 47.433,8.168 46.521,6.643 				"/>
			</g>
		</g>
	</g>
</g>
<g>
	<g>
		<g>
			<g>
				<polygon fill="#F06722" points="46.935,4.17 48.364,5.225 48.604,4.862 47.157,3.833 				"/>
				<polygon fill="#F06722" points="46.604,4.672 48.006,5.764 48.247,5.402 46.826,4.335 				"/>
				<polygon fill="#F06722" points="46.23,5.109 47.572,6.274 47.87,5.934 46.484,4.82 				"/>
				<path fill="#F06722" d="M45.843,5.542l1.285,1.229c0,0.011,0.298-0.331,0.298-0.331l-1.321-1.189
					C46.105,5.251,45.854,5.541,45.843,5.542z"/>
				<polygon fill="#F06722" points="45.411,5.983 46.686,7.222 46.982,6.919 45.701,5.688 				"/>
				<polygon fill="#F06722" points="44.971,6.442 46.26,7.666 46.54,7.37 45.269,6.128 				"/>
				<polygon fill="#F06722" points="44.521,6.927 45.859,8.098 46.128,7.808 44.823,6.602 				"/>
			</g>
		</g>
	</g>
</g>
<g>
	<g>
		<g>
			<g>
				<polygon fill="#F06722" points="43.918,5.05 45.32,6.131 45.529,5.765 44.11,4.708 				"/>
				<polygon fill="#F06722" points="43.632,5.558 45.007,6.676 45.217,6.311 43.824,5.217 				"/>
				<polygon fill="#F06722" points="43.313,6.046 44.66,7.2 44.897,6.851 43.53,5.72 				"/>
				<path fill="#F06722" d="M42.981,6.525L44.3,7.714c0.011,0.008,0.245-0.343,0.245-0.343l-1.338-1.166
					C43.207,6.205,42.992,6.533,42.981,6.525z"/>
				<polygon fill="#F06722" points="42.604,6.969 43.892,8.192 44.166,7.872 42.857,6.671 				"/>
				<path fill="#F06722" d="M42.216,7.37l1.224,1.29c0,0,0.085-0.076,0.171-0.152c0.088-0.075,0.143-0.159,0.147-0.158l-1.278-1.234
					C42.483,7.133,42.217,7.377,42.216,7.37z"/>
				<polygon fill="#F06722" points="41.82,7.718 42.927,9.109 43.271,8.808 42.085,7.484 				"/>
			</g>
		</g>
	</g>
</g>
<g>
	<g>
		<g>
			<g>
				<polygon fill="#F06722" points="43.527,5.879 44.961,6.924 45.309,6.4 43.848,5.393 				"/>
				<polygon fill="#F06722" points="43.047,6.603 44.443,7.704 44.792,7.181 43.369,6.117 				"/>
				<polygon fill="#F06722" points="42.484,7.23 43.805,8.42 44.233,7.939 42.862,6.809 				"/>
				<path fill="#F06722" d="M41.901,7.854l1.255,1.259c0,0,0.111-0.109,0.223-0.218c0.108-0.12,0.215-0.24,0.215-0.24L42.3,7.438
					c0,0-0.094,0.106-0.188,0.212C42.006,7.751,41.901,7.854,41.901,7.854z"/>
				<polygon fill="#F06722" points="41.266,8.461 42.487,9.752 42.936,9.323 41.692,8.053 				"/>
				
					<rect x="40.552" y="9.214" transform="matrix(-0.6792 -0.7339 0.7339 -0.6792 62.6032 46.3962)" fill="#F06722" width="1.777" height="0.608"/>
				<polygon fill="#F06722" points="39.947,9.687 41.161,10.985 41.604,10.577 40.395,9.274 				"/>
			</g>
		</g>
	</g>
</g>
<g>
	<g>
		<g>
			<g>
				<polygon fill="#F06722" points="46.12,6.608 47.292,7.937 47.539,7.657 46.347,6.347 				"/>
				<polygon fill="#F06722" points="45.78,6.996 46.923,8.353 47.172,8.074 46.009,6.735 				"/>
				<polygon fill="#F06722" points="45.409,7.353 46.522,8.736 46.792,8.479 45.658,7.113 				"/>
				<path fill="#F06722" d="M45.027,7.699l1.082,1.409c0.005,0.006,0.285-0.24,0.28-0.246l-1.103-1.392
					C45.292,7.477,45.032,7.705,45.027,7.699z"/>
				<polygon fill="#F06722" points="44.624,8.02 45.674,9.454 45.966,9.222 44.895,7.805 				"/>
				<path fill="#F06722" d="M44.218,8.308l0.99,1.477c0,0,0.335-0.211,0.323-0.217l-1.04-1.441
					C44.492,8.139,44.218,8.308,44.218,8.308z"/>
				<polygon fill="#F06722" points="43.811,8.567 44.712,10.099 45.045,9.888 44.084,8.393 				"/>
			</g>
		</g>
	</g>
</g>
<g>
	<g>
		<g>
			<g>
				<polygon fill="#F06722" points="49.732,7.759 50.598,9.309 50.927,9.091 50.037,7.557 				"/>
				<polygon fill="#F06722" points="49.278,8.062 50.107,9.632 50.437,9.415 49.583,7.858 				"/>
				<polygon fill="#F06722" points="48.801,8.324 49.592,9.915 49.942,9.732 49.125,8.154 				"/>
				<polygon fill="#F06722" points="48.317,8.576 49.07,10.186 49.421,10.004 48.642,8.407 				"/>
				<polygon fill="#F06722" points="47.826,8.787 48.521,10.422 48.89,10.263 48.156,8.645 				"/>
				<path fill="#F06722" d="M47.325,8.994l0.651,1.654c0,0,0.091-0.035,0.181-0.069c0.092-0.039,0.185-0.079,0.185-0.079
					l-0.677-1.644c0,0-0.083,0.036-0.165,0.071C47.412,8.96,47.325,8.994,47.325,8.994z"/>
				<polygon fill="#F06722" points="46.806,9.192 47.436,10.854 47.798,10.715 47.154,9.059 				"/>
			</g>
		</g>
	</g>
</g>
<g>
	<g>
		<g>
			<g>
				<polygon fill="#F06722" points="51.604,6.14 52.166,7.827 52.896,7.612 52.322,5.93 				"/>
				<polygon fill="#F06722" points="50.536,6.453 51.078,8.146 51.809,7.932 51.254,6.243 				"/>
				<polygon fill="#F06722" points="49.468,6.766 49.991,8.464 50.721,8.25 50.185,6.556 				"/>
				<polygon fill="#F06722" points="48.399,7.079 48.903,8.783 49.633,8.569 49.117,6.869 				"/>
				<polygon fill="#F06722" points="47.331,7.392 47.816,9.102 48.546,8.888 48.048,7.182 				"/>
				<polygon fill="#F06722" points="46.262,7.706 46.728,9.42 47.458,9.207 46.979,7.495 				"/>
				<polygon fill="#F06722" points="45.194,8.019 45.641,9.739 46.371,9.525 45.911,7.808 				"/>
			</g>
		</g>
	</g>
</g>
<g>
	<g>
		<g>
			<g>
				<polygon fill="#F06722" points="44.7,4.878 46.068,6.012 46.464,5.548 45.049,4.472 				"/>
				<polygon fill="#F06722" points="44.181,5.485 45.478,6.701 45.875,6.238 44.529,5.077 				"/>
				<polygon fill="#F06722" points="43.6,6.065 44.852,7.327 45.274,6.909 43.993,5.677 				"/>
				<polygon fill="#F06722" points="43.008,6.643 44.221,7.941 44.645,7.531 43.407,6.256 				"/>
				<polygon fill="#F06722" points="42.385,7.212 43.583,8.524 44.012,8.133 42.803,6.83 				"/>
				
					<rect x="41.676" y="7.965" transform="matrix(-0.6728 -0.7398 0.7398 -0.6728 65.0968 45.2928)" fill="#F06722" width="1.777" height="0.572"/>
				<polygon fill="#F06722" points="41.116,8.37 42.327,9.671 42.746,9.289 41.545,7.979 				"/>
			</g>
		</g>
	</g>
</g>
<g>
	<g>
		<g>
			<g>
				<polygon fill="#F06722" points="44.323,5.396 45.629,6.602 45.963,6.25 44.61,5.096 				"/>
				<polygon fill="#F06722" points="43.896,5.847 45.13,7.126 45.465,6.774 44.183,5.544 				"/>
				<polygon fill="#F06722" points="43.421,6.275 44.608,7.597 44.959,7.282 43.741,5.987 				"/>
				<polygon fill="#F06722" points="42.938,6.701 44.083,8.061 44.437,7.752 43.264,6.416 				"/>
				<polygon fill="#F06722" points="42.432,7.112 43.546,8.497 43.906,8.204 42.772,6.836 				"/>
				<polygon fill="#F06722" points="41.917,7.521 43.007,8.925 43.37,8.64 42.265,7.248 				"/>
				<polygon fill="#F06722" points="41.392,7.923 42.464,9.34 42.829,9.062 41.745,7.653 				"/>
			</g>
		</g>
	</g>
</g>
<g>
	<g>
		<path fill="none" stroke="#F8A778" stroke-miterlimit="10" d="M56.174,6.716"/>
	</g>
</g>
<path opacity="0.9" fill="#F06722" d="M63.652,3.462c-0.211-1.229-2.615-0.894-3.387-0.863c-4.23,0.167-8.576,0.133-12.74-0.646
	c-0.256-0.048-0.701,0.059-1.117,0.229c-0.449-0.044-0.936,0.081-1.264,0.342c-0.499,0.396-0.963,0.834-1.473,1.217
	c-0.285,0.213-0.463,0.548-0.432,0.863c-2.075,2.202-4.695,3.865-6.389,6.403c-0.264,0.397,0.028,0.705,0.384,0.856
	c-0.105,0.074-0.21,0.147-0.314,0.228c-0.173,0.045-0.329,0.096-0.453,0.154c-1.977,0.925-2.788,3.075-3.314,5.026
	c-0.032,0.118-0.066,0.251-0.1,0.39c-0.12,0.402-0.21,0.805-0.262,1.204c-0.383,0.975-0.558,2.035-0.543,3.206
	c0.002,0.195,0.617,0.191,1.251,0.059c0.121,0.096,0.252,0.184,0.408,0.246c0.705,0.289,2.688-0.769,2.48-0.854
	c-0.337-0.139-0.589-0.353-0.772-0.625c0.014-0.023,0.027-0.045,0.031-0.068c0.007-0.035,0.012-0.071,0.02-0.107c0,0,0,0,0.001,0
	c0-0.001,0-0.002-0.001-0.004c0.259-1.397,0.388-2.803,0.769-4.145c0.112-0.139,0.224-0.277,0.35-0.413
	c0.834-0.899,1.851-1.604,2.672-2.521c0.896-0.998,0.448-1.479-0.367-1.646c0.151-0.115,0.303-0.222,0.456-0.317
	c0.494-0.309,0.205-0.396-0.293-0.375c0.025-0.032,0.061-0.056,0.084-0.09c0.04-0.06,0.088-0.115,0.129-0.175
	c0.002,0,0.004,0,0.006-0.001c0.373-0.101,0.746-0.22,1.121-0.345c0.012,0.142,0.201,0.243,0.69,0.232
	c0.672-0.014,1.28-0.07,1.874-0.162c-0.003,0.075-0.021,0.146-0.02,0.222c-0.08,0.855,2.201,0.146,2.5-0.259
	c0.277-0.361,0.541-0.729,0.795-1.106c0.262-0.38-0.031-0.498-0.445-0.504c0.033-0.102,0.051-0.207,0.092-0.308
	c0.15-0.497-0.85-0.378-1.078-0.349C44.75,8.486,44.5,8.527,44.254,8.575c-0.049,0.002-0.098,0.004-0.15,0.007
	c1.602-0.903,3.222-1.769,4.947-2.402c0.049,0.798,0.055,1.589,0.08,2.396c0.014,0.447,1.258,0.179,1.445,0.135
	c0.4-0.094,0.804-0.21,1.207-0.335c-0.172,0.389,0.318,0.752,1.307,0.526c0.039-0.008,0.082-0.018,0.123-0.027
	c-0.092,0.078-0.141,0.164-0.115,0.254c0.098,0.361,1.213,0.069,1.41,0.014c1.373-0.387,2.764-0.653,4.008-1.363
	C61.357,7.01,64.047,5.745,63.652,3.462z M47.059,3.99c-0.348,0.208-0.68,0.436-1.008,0.67c-0.033,0-0.065,0-0.1,0
	c-0.01-0.025-0.019-0.051-0.037-0.072c0.331-0.275,0.655-0.556,0.992-0.823c0.016-0.012,0.027-0.026,0.041-0.039
	c0.205,0.006,0.408,0.017,0.613,0.024C47.383,3.82,47.213,3.897,47.059,3.99z M52.672,6.985c-0.309,0.124-0.615,0.238-0.926,0.344
	c-0.01-0.45-0.025-0.9-0.043-1.348C52.221,6,52.74,6.01,53.258,6.023C52.982,6.302,52.805,6.597,52.672,6.985z M60.156,4.927
	c-0.145,0.089-0.283,0.183-0.391,0.283c0.059-0.268,0.084-0.551,0.035-0.861c-0.09-0.613-1.83-0.045-2.088,0.104
	c-0.424,0.244-0.873,0.496-1.332,0.748c-0.021-0.207-0.414-0.316-0.742-0.321c-1.355-0.017-2.709-0.066-4.062-0.114
	c-0.213-0.202-0.857-0.109-1.195-0.04c-0.736-0.024-1.476-0.045-2.212-0.058c0.292-0.21,0.593-0.413,0.901-0.601
	c0.137-0.081,0.201-0.162,0.238-0.239c3.472,0.177,6.939,0.422,10.421,0.202C60.078,4.204,60.207,4.551,60.156,4.927z"/>
<g>
	<g>
		<path fill="#F06722" d="M46.752,5.05c-0.459-0.008-0.908-0.076-1.347-0.204c0.162,0.302,0.324,0.603,0.485,0.905
			c0.224-0.417,0.447-0.833,0.67-1.25c0.605-1.13-1.418-0.988-1.95-0.731c-0.597,0.287-1.188,0.587-1.784,0.875
			c0.502,0.385,1.004,0.771,1.506,1.156c3.067-1.975,7.729-0.311,11.138-0.233c1.173,0.027,3.058-1.723,1.094-1.768
			c-4.738-0.108-9.756-1.757-14.062,1.017c-1.526,0.983,0.535,1.625,1.506,1.156c0.597-0.287,1.188-0.587,1.784-0.875
			c-0.65-0.244-1.3-0.487-1.95-0.731c-0.223,0.417-0.446,0.833-0.67,1.25c-0.238,0.444,0.025,0.796,0.485,0.905
			c0.667,0.158,1.317,0.252,2,0.296C46.845,6.893,48.717,5.175,46.752,5.05L46.752,5.05z"/>
	</g>
</g>
<g>
	<g>
		<path fill="#F06722" d="M60.742,4.194c-1.496-0.025-2.964-0.349-4.459-0.375c-0.697-0.012-1.462,0.162-2.049,0.549
			c-0.45,0.296-0.392,0.671,0.182,0.681c1.495,0.026,2.964,0.351,4.459,0.375c0.697,0.012,1.461-0.161,2.049-0.549
			C61.374,4.578,61.315,4.203,60.742,4.194L60.742,4.194z"/>
	</g>
</g>
<g>
	<g>
		<path fill="#F06722" d="M53.033,9.61c0.869,0.03,1.701-0.171,2.42-0.674c0.47-0.329,0.359-0.709-0.205-0.763
			c-0.685-0.065-1.486,0.156-2.049,0.549c0.123-0.06,0.246-0.12,0.369-0.18c0.481-0.08,0.964-0.16,1.446-0.239
			c-0.046-0.001-0.092-0.003-0.138-0.005c-0.701-0.024-1.467,0.136-2.049,0.549C52.388,9.16,52.443,9.589,53.033,9.61L53.033,9.61z"
			/>
	</g>
</g>
<g>
	<g>
		<path fill="#F06722" d="M55.517,8.864c0.845,0,3.159-1.278,1.225-1.278C55.896,7.585,53.582,8.864,55.517,8.864L55.517,8.864z"/>
	</g>
</g>
<g>
	<g>
		<path fill="#F06722" d="M58.466,6.697c-0.067-0.042-0.136-0.083-0.203-0.125c-0.152,0.587-0.304,1.175-0.456,1.762
			c2.235-1.379,4.09-1.94,5.696-4.064c0.521-0.688,0.101-1.461-0.731-1.557c-4.857-0.56-9.753,0.219-14.626-0.458
			c-3.677-0.511-4.654,1.025-7.083,3.446c-1.298,1.294,1.487,1.877,2.443,0.924c0.786-0.783,1.347-1.716,2.297-2.342
			c0.715-0.471,4.117,0.477,5.006,0.559c3.643,0.334,7.34-0.357,10.982,0.062c-0.244-0.519-0.487-1.038-0.731-1.557
			c-1.196,1.582-2.94,2.186-4.562,3.186c-0.544,0.336-1.305,1.24-0.456,1.762c0.067,0.042,0.136,0.083,0.203,0.125
			C57.385,9.12,59.893,7.576,58.466,6.697L58.466,6.697z"/>
	</g>
</g>
<g>
	<g>
		<path fill="#F06722" d="M49.275,7.366c0.826-0.167,1.864-0.391,2.366-1.146c0.334-0.502,0.474-1.173,0.903-1.604
			c-0.92,0.166-1.84,0.331-2.76,0.496c0.054,0.102,0.042,0.196-0.035,0.283c0.959-0.214,1.918-0.428,2.878-0.643
			c-0.013-0.251,0.167-0.657-0.102-0.835c-0.207-0.137-0.576-0.114-0.81-0.095c-0.253,0.022-0.502,0.067-0.748,0.134
			c-0.036,0.01-0.071,0.021-0.106,0.031c-0.681,0.199-0.503,0.177,0.533-0.064c-0.291,0.001-0.604-0.175-0.882-0.247
			c-0.674-0.173-1.456,0-2.085,0.238c-0.129,0.048-1.307,0.532-0.864,0.825c0.47,0.311,1.406,0.01,1.867-0.163
			c0.025-0.009,0.051-0.019,0.076-0.028c-0.376,0.084-0.752,0.169-1.128,0.254c-0.488,0.043-0.056,0.05,0.131,0.111
			c0.197,0.064,0.382,0.118,0.587,0.151c0.36,0.057,0.722,0.058,1.084,0.017c0.253-0.022,0.502-0.067,0.748-0.134
			c0.171-0.046,0.73-0.218,0.282-0.088c-0.354,0.047-0.707,0.095-1.061,0.143c0.024,0.001,0.048,0.003,0.072,0.004
			c-0.17-0.068-0.34-0.137-0.51-0.205c0.138,0.208,0.006,0.495,0.018,0.729c0.032,0.663,2.638-0.183,2.878-0.643
			c0.096-0.184,0.118-0.348,0.074-0.55C52.604,3.98,51.7,4.151,51.501,4.187c-0.514,0.092-1.195,0.26-1.581,0.646
			c-0.287,0.287-0.487,0.619-0.662,0.982C49.171,5.997,49.09,6.18,49,6.361c-0.043,0.086-0.091,0.17-0.141,0.252
			c-0.314,0.535,1.634-0.46,0.953-0.322c-0.49,0.099-1.441,0.277-1.698,0.792C47.878,7.556,49.136,7.395,49.275,7.366L49.275,7.366z
			"/>
	</g>
</g>
<g>
	<g>
		<path fill="#F06722" d="M44.305,9.536c-0.59,0.227-1.945-0.035-2.599-0.057c0.298,0.225,0.597,0.45,0.895,0.675
			c0.066-0.845,0.414-1.585,0.632-2.396c0.299-1.112-2.605-0.639-2.902,0.347c-0.289,0.96-0.168,1.146-1.085,1.33
			c-0.792,0.159-1.575,0.465-2.163,1.029c-0.483,0.463-0.283,0.873,0.287,1.069c0.081,0.028,0.161,0.055,0.242,0.083
			c-0.008-0.422-0.017-0.844-0.025-1.266c0.513-0.138,0.53-0.192,0.05-0.163c0.204,0.37,0.408,0.739,0.612,1.108
			c1.502-1.61,3.412-2.953,4.72-4.713c-0.902-0.031-1.805-0.062-2.707-0.093c-0.299,0.374-0.243,0.457,0.168,0.249
			c-0.223,0.062-0.443,0.133-0.66,0.214c-0.64,0.273-0.901,0.907-1.496,1.231c-0.618,0.336-0.971,0.969-1.433,1.468
			c-0.47,0.507-0.988,0.812-1.356,1.421c-0.723,1.197,2.199,0.934,2.707,0.093c0.6-0.993,1.854-1.969,2.77-2.662
			c0.286-0.209,0.244-0.294-0.127-0.253c0.346-0.103,0.688-0.188,0.999-0.383c0.513-0.32,0.861-0.754,1.135-1.285
			c0.693-1.348-2.195-0.782-2.707-0.093c-1.178,1.585-2.989,2.829-4.349,4.287c-0.562,0.603-0.122,1.085,0.612,1.108
			c1.061,0.034,1.947-0.083,2.875-0.622c0.664-0.385,0.725-1.008-0.025-1.266c-0.081-0.028-0.161-0.055-0.242-0.083
			c0.095,0.356,0.191,0.713,0.287,1.069c-0.211,0.081-0.134,0.069,0.232-0.037c0.257-0.022,0.512-0.062,0.763-0.121
			c0.591-0.135,1.035-0.288,1.528-0.64c0.816-0.583,1.017-1.52,1.291-2.428c-0.967,0.116-1.935,0.231-2.902,0.347
			c-0.218,0.811-0.565,1.551-0.632,2.396c-0.04,0.509,0.47,0.661,0.895,0.675c1.638,0.055,3.32,0.208,4.872-0.39
			c0.375-0.144,1.213-0.714,0.763-1.201C45.771,9.092,44.83,9.333,44.305,9.536L44.305,9.536z"/>
	</g>
</g>
<g>
	<g>
		<path fill="#F06722" d="M47.015,2.462c0.321-0.09,0.649-0.103,0.985-0.038c0.019,0.105,0.045,0.099,0.08-0.018
			c0.098-0.175-0.103-0.281-0.239-0.307c-0.552-0.106-1.105-0.106-1.659-0.008c-0.329,0.059-0.646,0.153-0.962,0.259
			c-0.136,0.056-0.272,0.112-0.408,0.168c-0.029,0.013-0.058,0.025-0.087,0.038c0.312-0.144,0.643-0.23,0.992-0.26
			c0.188,0.007,0.375,0.015,0.563,0.021c0.037,0.013,0.073,0.025,0.109,0.038c-0.262-0.694-3.111,0.21-2.897,0.776
			C43.691,3.657,44.591,3.479,45,3.395c0.455-0.094,0.876-0.234,1.302-0.414c0.798-0.337-1.687,0.08-0.841,0.243
			c-0.08-0.103-0.159-0.205-0.239-0.307c-0.534,0.952,1.673,0.546,2.034,0.444c0.244-0.069,1.448-0.391,1.329-0.837
			C48.466,2.082,47.258,2.394,47.015,2.462L47.015,2.462z"/>
	</g>
</g>
<g>
	<g>
		<path fill="#F06722" d="M46.611,32.05c8.249,1.145,11.582,8.096,10.332,15.818c-0.473,2.922-1.179,5.762-1.465,8.716
			c-0.353,3.646,1.007,7.843-1.727,10.895c-1.607,1.796,1.035,4.457,2.652,2.652c2.521-2.816,2.849-6.005,2.828-9.683
			c-0.028-5.256,1.292-10.166,1.828-15.357c0.854-8.265-5.452-15.548-13.452-16.658C45.245,28.105,44.225,31.719,46.611,32.05
			L46.611,32.05z"/>
	</g>
</g>
<g>
	<path fill="#F16623" d="M46.87,35.648c3.082,0.477,4.349-0.636,5.619,2.223c0.543,1.746,0.182,3.652,0.361,5.399
		c0.363,4.446,2.9,9.687,8.158,10.005c2.355,0.158,5.619,0.158,4.531,3.174c-0.904,2.383-4.168,1.906-6.346,1.748
		c-4.713-0.318-10.511-3.652-12.505-7.304c-1.994-3.019-5.619-12.863,0-13.976"/>
	<g>
		<path fill="#F06722" d="M46.87,36.898c2.213,0.225,4.518-0.354,4.685,3.672c0.053,1.261,0.019,2.48,0.168,3.738
			c0.198,1.682,0.775,3.22,1.463,4.751c1.615,3.6,4.979,5.286,8.738,5.525c2.899,0.184,1.58,2.48-0.679,2.503
			c-1.362,0.014-2.83-0.218-4.144-0.493c-3.133-0.657-6.023-2.559-8.238-4.798c-2.315-2.34-6.688-12.206-1.843-13.673
			c1.539-0.466,0.882-2.879-0.665-2.411c-6.156,1.865-3.652,9.7-1.771,13.933c2.883,6.486,11.021,10.836,18.067,9.886
			c2.174-0.293,4.775-1.744,4.307-4.41c-0.57-3.238-4.241-2.864-6.784-3.209c-6.771-0.92-5.579-9.749-6.481-14.374
			c-0.646-3.313-4.393-2.894-6.824-3.14C45.266,34.235,45.282,36.737,46.87,36.898L46.87,36.898z"/>
	</g>
</g>
<ellipse fill="#F06722" stroke="#F06722" stroke-width="2" stroke-miterlimit="10" cx="52.496" cy="18.035" rx="10.332" ry="8.814"/>
<g>
	<g>
		<path fill="#F06722" d="M40.468,38.073c1.817-2.487,4.167-4.968,7.121-6.046c2.252-0.822,1.28-4.447-0.997-3.616
			c-3.959,1.445-6.918,4.426-9.362,7.77C35.8,38.136,39.056,40.004,40.468,38.073L40.468,38.073z"/>
	</g>
</g>
<g>
	<g>
		<path fill="#F06722" d="M36.973,34.361c-2.996,6.17-2.965,12.874-2.484,19.582c0.292,4.069,0.64,10.219,4.738,12.378
			c2.137,1.126,4.033-2.11,1.893-3.238c-3.04-1.602-2.82-8.008-3.001-10.932c-0.334-5.391-0.315-10.938,2.093-15.897
			C41.262,34.088,38.029,32.186,36.973,34.361L36.973,34.361z"/>
	</g>
</g>
<g>
	<g>
		<path fill="#F06722" d="M37.23,65.559c-3.491,8.507-10.837,17.259-4.849,26.388c5.033,7.673,12.327-3.242,14.616-7.333
			c1.182-2.112-2.058-4.003-3.238-1.893c-1.077,1.925-2.207,3.785-3.586,5.514c-4.175,5.229-6.884-1.886-6.243-5.883
			c0.895-5.574,4.795-10.625,6.917-15.797C41.765,64.317,38.135,63.353,37.23,65.559L37.23,65.559z"/>
	</g>
</g>
<g>
	<g>
		<path fill="#F06722" d="M52.44,71.117c2.944,3.577,5.727,7.537,7.321,11.916c0.968,2.659,1.11,5.479-1.952,6.634
			c-4.156,1.566-8.712-3.014-9.5-6.653c-0.511-2.363-4.126-1.361-3.616,0.996c1.627,7.523,14.192,14.367,18.774,5.505
			c3.475-6.72-4.435-16.26-8.375-21.05C53.555,66.597,50.917,69.266,52.44,71.117L52.44,71.117z"/>
	</g>
</g>
<g>
	<g>
		<path fill="#F06722" d="M46.518,87.268c3.57-4.27,6.381-9.063,8.144-14.353c1.021-3.068-3.808-4.373-4.822-1.33
			c-1.476,4.43-3.865,8.568-6.857,12.147C40.93,86.188,44.447,89.744,46.518,87.268L46.518,87.268z"/>
	</g>
</g>
<line opacity="0.6" fill="none" stroke="#F16623" stroke-width="3" stroke-miterlimit="10" x1="66.956" y1="42.514" x2="60.427" y2="68.805"/>
</svg>
