<?xml version="1.0" encoding="utf-8"?>
<!-- Generator: Adobe Illustrator 16.0.4, SVG Export Plug-In . SVG Version: 6.00 Build 0)  -->
<!DOCTYPE svg PUBLIC "-//W3C//DTD SVG 1.1//EN" "http://www.w3.org/Graphics/SVG/1.1/DTD/svg11.dtd">
<svg version="1.1" id="Layer_1" xmlns="http://www.w3.org/2000/svg" xmlns:xlink="http://www.w3.org/1999/xlink" x="0px" y="0px"
	 width="100px" height="100px" viewBox="0 0 100 100" enable-background="new 0 0 100 100" xml:space="preserve">
<g>
	<g>
		<path fill="#F06722" d="M55.203,30.212c8.431,0.962,14.029,7.62,11.447,16.062c-1.76,5.751,0.852,20.89-7.626,20.046
			c-2.406-0.239-2.383,3.513,0,3.75c3.657,0.364,7.948-1.293,9.235-5.083c0.894-2.634,0.607-5.419,0.669-8.17
			c0.101-4.444,1.379-8.417,2.121-12.722c1.699-9.855-7.008-16.624-15.847-17.633C52.803,26.188,52.829,29.941,55.203,30.212
			L55.203,30.212z"/>
	</g>
</g>
<g>
	<g>
		<path fill="#F06722" d="M49.106,67.095c-4.551,2.993-8.55,3.567-13.324,0.445c-2.013-1.315-3.825-3.054-6.067-3.995
			c-1.124-0.472-2.242-0.866-3.396-1.257c-3.809-1.287-1.565-4.525,0.773-6.086c2.78-1.854,6.312-2.674,9.324-4.133
			c0.725-0.352,0.091-1.43-0.631-1.08c-2.458,1.191-19.032,6.797-11.85,11.635c1.903,1.282,4.524,1.642,6.546,2.74
			c2.497,1.355,4.616,3.335,7.104,4.73c4.219,2.365,8.494,0.484,12.152-1.921C50.408,67.733,49.782,66.65,49.106,67.095
			L49.106,67.095z"/>
	</g>
</g>
<g>
	<g>
		<path fill="#F06722" d="M37.836,52.608c4.147,1.5,8.247,3.116,12.467,4.406c1.618,0.495,7.316,0.997,6.493,3.616
			c-0.242,0.771,0.965,1.099,1.205,0.332c0.799-2.542-1.796-3.588-3.8-4.251c-5.347-1.771-10.715-3.386-16.033-5.309
			C37.408,51.129,37.084,52.337,37.836,52.608L37.836,52.608z"/>
	</g>
</g>
<g>
	<g>
		<path fill="#F06722" d="M34.822,51.529c0.757-6.8,6.309-11.647,11.185-15.866c0.611-0.528-0.277-1.408-0.884-0.884
			c-5.187,4.486-10.75,9.553-11.551,16.75C33.483,52.33,34.734,52.321,34.822,51.529L34.822,51.529z"/>
	</g>
</g>
<g>
	<path fill="#F16623" d="M54.924,33.743c3.597,0.477,5.077-0.635,6.557,2.224c0.635,1.746,0.213,3.652,0.424,5.399
		c0.424,4.446,3.383,9.687,9.518,10.005c2.75,0.158,6.557,0.158,5.287,3.175c-1.056,2.382-4.863,1.906-7.402,1.747
		c-5.5-0.317-12.268-3.652-14.594-7.304c-2.327-3.018-6.558-12.863,0-13.975"/>
	<g>
		<path fill="#F06722" d="M54.924,34.993c1.094,0.101,2.167,0.145,3.265,0.159c3.04,0.042,2.282,4.853,2.511,6.546
			c0.296,2.196,0.98,4.109,2.118,6.003c2.328,3.875,6.362,4.757,10.527,5.037c3.073,0.207,1.057,2.333-0.858,2.45
			c-1.761,0.107-3.742-0.159-5.455-0.452c-3.698-0.632-7.29-2.486-10.066-4.979c-2.788-2.502-7.534-12.109-1.92-13.539
			c1.562-0.398,0.898-2.809-0.664-2.411c-6.75,1.719-4.221,9.612-1.88,14.045c3.656,6.924,13.771,11.123,21.396,9.725
			c2.379-0.437,4.961-2.121,4.18-4.964c-0.852-3.097-6.554-2.343-8.759-2.87c-6.782-1.621-5.499-9.146-6.632-14.11
			c-0.795-3.489-5.222-2.908-7.762-3.141C53.318,32.346,53.332,34.847,54.924,34.993L54.924,34.993z"/>
	</g>
</g>
<path fill="#F06722" stroke="#F06722" stroke-width="2" stroke-miterlimit="10" d="M63.265,7.686
	c-6.657,0-12.056,3.946-12.056,8.814s5.398,8.814,12.056,8.814c6.661,0,12.056-3.947,12.056-8.814S69.926,7.686,63.265,7.686z"/>
<g>
	<g>
		<path fill="#F06722" d="M46.891,36.547c2.383-2.792,5.229-5.307,8.789-6.425c2.299-0.722,1.317-4.343-0.996-3.616
			c-4.174,1.311-7.635,4.097-10.444,7.39C42.679,35.724,45.319,38.39,46.891,36.547L46.891,36.547z"/>
	</g>
</g>
<g>
	<g>
		<path fill="#F06722" d="M56.751,28.176c-1.272-0.166-2.557-0.752-3.615,0.301c-0.571,0.569,0.312,1.453,0.885,0.884
			c0.644-0.641,1.95-0.037,2.73,0.065C57.549,29.53,57.539,28.279,56.751,28.176L56.751,28.176z"/>
	</g>
</g>
<g>
	<g>
		<path fill="#F06722" d="M45.875,52.166c-0.009-4.953-0.202-10.012,1.1-14.834c0.631-2.338-2.986-3.329-3.616-0.997
			c-1.391,5.151-1.243,10.542-1.234,15.832C42.129,54.584,45.879,54.584,45.875,52.166L45.875,52.166z"/>
	</g>
</g>
<g>
	<g>
		<path fill="#F06722" d="M58.988,83.787c3.31,4.25,11.308,13.325,16.904,7.411c6.912-7.306-2.481-19.496-8.387-23.905
			c-1.94-1.448-3.807,1.81-1.893,3.238c4.785,3.572,11.038,11.586,7.764,17.781c-2.309,4.371-10.271-5.296-11.736-7.178
			C60.156,79.229,57.521,81.903,58.988,83.787L58.988,83.787z"/>
	</g>
</g>
<g>
	<g>
		<path fill="#F06722" d="M60.518,78.813c-1.865-2.636-1.754-6.041-4.1-8.457c-1.688-1.737-4.337,0.917-2.652,2.652
			c1.983,2.042,1.872,5.377,3.514,7.697C58.664,82.663,61.918,80.792,60.518,78.813L60.518,78.813z"/>
	</g>
</g>
<g>
	<g>
		<path fill="#F06722" d="M42.757,69.454c-1.596,7.249-3.373,18.813,4.738,22.905c3.533,1.783,7.504,1.119,9.828-2.058
			c2.542-3.476,1.763-9.191,1.731-13.197c-0.02-2.417-3.77-2.419-3.75,0c0.034,4.275,0.246,17.462-7.532,11.009
			c-4.471-3.709-2.452-12.88-1.399-17.663C46.892,68.094,43.277,67.093,42.757,69.454L42.757,69.454z"/>
	</g>
</g>
</svg>
