<?xml version="1.0" encoding="utf-8"?>
<!-- Generator: Adobe Illustrator 16.0.4, SVG Export Plug-In . SVG Version: 6.00 Build 0)  -->
<!DOCTYPE svg PUBLIC "-//W3C//DTD SVG 1.1//EN" "http://www.w3.org/Graphics/SVG/1.1/DTD/svg11.dtd">
<svg version="1.1" id="Layer_1" xmlns="http://www.w3.org/2000/svg" xmlns:xlink="http://www.w3.org/1999/xlink" x="0px" y="0px"
	 width="100px" height="100px" viewBox="0 0 100 100" enable-background="new 0 0 100 100" xml:space="preserve">
<g>
	<g>
		<path fill="none" stroke="#F8A778" stroke-miterlimit="10" d="M43.418,10.113"/>
	</g>
</g>
<g>
	<g>
		<path fill="none" stroke="#F8A778" stroke-miterlimit="10" d="M42.474,9.006"/>
	</g>
</g>
<g>
	<g>
		<path fill="none" stroke="#F8A778" stroke-miterlimit="10" d="M42.474,9.006"/>
	</g>
</g>
<g>
	<g>
		<path fill="#F06722" d="M46.611,32.05c8.249,1.145,11.582,8.096,10.332,15.818c-0.473,2.922-1.179,5.762-1.465,8.716
			c-0.353,3.646,1.007,7.843-1.727,10.895c-1.607,1.796,1.035,4.457,2.652,2.652c2.521-2.816,2.849-6.005,2.828-9.683
			c-0.028-5.256,1.292-10.166,1.828-15.357c0.854-8.265-5.452-15.548-13.452-16.658C45.245,28.105,44.225,31.719,46.611,32.05
			L46.611,32.05z"/>
	</g>
</g>
<ellipse fill="#F06722" stroke="#F06722" stroke-width="2" stroke-miterlimit="10" cx="52.496" cy="18.035" rx="10.332" ry="8.814"/>
<g>
	<g>
		<path fill="#F06722" d="M40.468,38.073c1.817-2.487,4.167-4.968,7.121-6.046c2.252-0.822,1.28-4.447-0.997-3.616
			c-3.959,1.445-6.918,4.426-9.362,7.77C35.8,38.136,39.056,40.004,40.468,38.073L40.468,38.073z"/>
	</g>
</g>
<g>
	<g>
		<path fill="#F06722" d="M36.973,34.361c-2.996,6.17-2.965,12.874-2.484,19.582c0.292,4.069,0.64,10.219,4.738,12.378
			c2.137,1.126,4.033-2.11,1.893-3.238c-3.04-1.602-2.82-8.008-3.001-10.932c-0.334-5.391-0.315-10.938,2.093-15.897
			C41.262,34.088,38.029,32.186,36.973,34.361L36.973,34.361z"/>
	</g>
</g>
<g>
	<g>
		<path fill="#F06722" d="M37.23,65.559c-3.491,8.507-10.837,17.259-4.849,26.388c5.033,7.673,12.327-3.242,14.616-7.333
			c1.182-2.112-2.058-4.003-3.238-1.893c-1.077,1.925-2.207,3.785-3.586,5.514c-4.175,5.229-6.884-1.886-6.243-5.883
			c0.895-5.574,4.795-10.625,6.917-15.797C41.765,64.317,38.135,63.353,37.23,65.559L37.23,65.559z"/>
	</g>
</g>
<g>
	<g>
		<path fill="#F06722" d="M52.44,71.117c2.944,3.577,5.727,7.537,7.321,11.916c0.968,2.659,1.11,5.479-1.952,6.634
			c-4.156,1.566-8.712-3.014-9.5-6.653c-0.511-2.363-4.126-1.361-3.616,0.996c1.627,7.523,14.192,14.367,18.774,5.505
			c3.475-6.72-4.435-16.26-8.375-21.05C53.555,66.597,50.917,69.266,52.44,71.117L52.44,71.117z"/>
	</g>
</g>
<g>
	<g>
		<path fill="#F06722" d="M46.518,87.268c3.57-4.27,6.381-9.063,8.144-14.353c1.021-3.068-3.808-4.373-4.822-1.33
			c-1.476,4.43-3.865,8.568-6.857,12.147C40.93,86.188,44.447,89.744,46.518,87.268L46.518,87.268z"/>
	</g>
</g>
<g>
	<g>
		<path fill="#F06722" d="M76.45,50c-0.009,6.411-0.11,12.821,0,19.231c0.027,1.61,2.528,1.613,2.5,0
			c-0.11-6.41-0.009-12.82,0-19.231C78.952,48.388,76.452,48.388,76.45,50L76.45,50z"/>
	</g>
</g>
<ellipse fill="none" stroke="#F06722" stroke-width="0.5" stroke-miterlimit="10" cx="77.671" cy="76.445" rx="8.908" ry="9.363"/>
<g>
	<g>
		<path fill="#F06722" d="M75.544,68.613c-2.027,2.548-4.188,5.188-4.397,8.557c-0.084,1.358,1.665,1.545,2.329,0.631
			c1.816-2.498,3.17-5.312,3.292-8.434c0.036-0.936-1.094-1.574-1.881-1.079c-2.808,1.766-4.152,4.978-5.126,8.029
			c-0.386,1.212,1.229,2.082,2.09,1.216c2.338-2.35,4.842-4.865,5.523-8.224c0.142-0.701-0.195-1.303-0.873-1.537
			c-6.289-2.177-7.375,7.067-7.283,11.263c0.17,7.82,7.668,10.836,14.243,7.541c8.619-4.319,4.67-15.125-1.33-19.588
			c-6.526-4.855-5.481,8.387-3.791,11.593c0.288,0.547,1.186,0.854,1.71,0.448c1.916-1.48,2.458-3.625,4.024-5.397
			c-0.696-0.184-1.393-0.367-2.089-0.552c0.565,1.517,0.646,3.094,0.91,4.682c0.212,1.276,2.094,1.111,2.41,0
			c0.087-0.303,0.174-0.606,0.26-0.91c-0.818-0.11-1.637-0.222-2.455-0.332c0.216,1.908,0.443,3.965-0.414,5.757
			c-1.675,3.5-7.068-1.211-7.703-3.128c-1.331-4.019,1.811-8.752,4.789-11.108c-0.696-0.184-1.393-0.367-2.089-0.552
			c1.329,4.08-0.858,8.363-0.694,12.542c0.052,1.32,1.605,1.604,2.329,0.631c1.036-1.394,1.752-2.912,2.601-4.421
			c-0.762-0.1-1.522-0.199-2.284-0.299c0.271,1.077,0.438,2.614,0.65,3.771c0.238,1.302,2.051,1.08,2.41,0
			c0.087-0.26,0.174-0.52,0.26-0.78c-0.818-0.11-1.637-0.222-2.455-0.332c0.092,1.305,0.125,2.594,0.13,3.901
			c0.005,1.355,1.616,1.557,2.329,0.631c0.511-0.663,0.896-1.35,1.301-2.08c-0.762-0.321-1.522-0.642-2.284-0.963
			c-0.114,0.48-0.244,0.957-0.391,1.43c-0.335,1.145,1.27,2.206,2.089,1.216c0.986-1.191,1.901-2.41,2.991-3.511
			c-0.696-0.405-1.393-0.811-2.089-1.216c-0.044,0.13-0.087,0.26-0.13,0.391c0.762-0.1,1.522-0.199,2.284-0.299
			c-0.984-1.894-1.007-4.058-1.951-5.982c-0.771-1.571-3.034-2.361-4.479-3.049c-0.468-0.223-1.149-0.263-1.515,0.195
			c-1.334,1.673-1.729,3.402-1.362,5.507c0.136,0.771,1.207,1.173,1.837,0.747c2.039-1.378,3.306-3.33,4.935-5.137
			c0.427-0.474,0.539-1.311,0-1.768c-0.946-0.803-1.595-1.78-2.594-2.536c-0.608-0.461-1.714,0.002-1.836,0.747
			c-0.818,4.968,3.766,9.196,2.966,14.025c-0.312,1.877-2.962,2.183-4.42,2.343c-2.896,0.317,0.556-4.129,0.796-4.467
			c1.365-1.918,1.931-3.827,1.726-6.188c-0.323-3.712-4.417-5.76-7.186-2.674c-3.257,3.631-2.157,9.137-0.774,13.36
			c0.355,1.088,1.65,1.173,2.284,0.299c2.175-2.999,5.128-6.12,5.373-9.994c0.05-0.788-0.84-1.453-1.582-1.205
			c-0.722,0.24-1.186,0.432-1.859,0.776c0.57,0.149,1.14,0.299,1.71,0.448c-0.398-0.668-0.745-1.361-1.04-2.081
			c-0.311-0.687-1.49-0.852-1.963-0.253c-1.36,1.722-1.901,3.599-2.272,5.754c-0.228,1.318,1.574,2.296,2.284,0.963
			c0.592-1.11,1.124-2.202,1.82-3.251c-0.72,0-1.438,0-2.158,0c0.13,0.217,0.261,0.434,0.391,0.65c0.507,0.845,1.635,0.767,2.158,0
			c0.333-0.458,0.637-0.935,0.91-1.431c-0.776-0.21-1.553-0.421-2.329-0.631c0.096,2.017,0.145,3.481,2.219,4.196
			c-0.307-0.401-0.612-0.804-0.918-1.205c0.151,1.197,0.08,2.387-0.216,3.568c-0.153,1.082,1.186,2.299,2.089,1.216
			c0.217-0.26,0.434-0.521,0.65-0.78c-0.696-0.405-1.393-0.811-2.089-1.216c-0.153,0.67-0.233,1.209-0.305,1.893
			c-0.07,0.679,0.622,1.25,1.25,1.25c0.087,0,0.173,0,0.26,0c-0.401-0.527-0.804-1.055-1.205-1.582
			c-0.4,0.52-0.802,1.039-1.202,1.56c-1.77,0.975-1.914,0.579-0.435-1.188c0.21-0.776,0.421-1.553,0.631-2.329
			c-1.224-0.19-2.034-0.808-2.432-1.852c-0.654,0.505-1.309,1.01-1.963,1.515c2.071,2.508,4.235,4.761,7.574,5.263
			c0-0.804,0-1.606,0-2.41c-4.622,1.601-10.714-3.88-7.562-8.438c-0.776-0.21-1.553-0.421-2.329-0.631
			c0.304,4.743,0.691,9.331,6.252,10.214c4.769,0.756,6.177-4.126,5.176-7.814c-0.421-1.555-2.833-0.894-2.41,0.664
			c0.379,1.396,0.652,2.816-0.363,4.106c-1.482,1.881-4.507-0.096-5.311-1.407c-0.955-1.557-0.731-3.997-0.844-5.763
			c-0.081-1.272-1.614-1.665-2.329-0.631c-2.223,3.213-2.015,5.585,0.486,8.533c2.66,3.137,5.855,4.977,9.897,3.576
			c1.047-0.362,1.33-2.21,0-2.41c-2.915-0.439-4.688-2.463-6.471-4.62c-0.928-1.123-2.645,0.315-1.963,1.515
			c1.054,1.856,2.306,3.388,4.59,3.09c1.158-0.151,1.8-1.638,0.631-2.329c-2.948-1.745-8.752,0.533-6.37,4.6
			c2.072,3.537,8.57,1.548,9.155-2.148c0.125-0.789-0.324-1.582-1.205-1.582c-0.087,0-0.173,0-0.26,0
			c0.417,0.417,0.833,0.833,1.25,1.25c0.071-0.409,0.144-0.818,0.215-1.229c0.258-1.127-1.235-2.24-2.089-1.216
			c-0.217,0.26-0.434,0.521-0.65,0.78c0.696,0.405,1.393,0.811,2.089,1.216c0.203-1.44,0.392-2.771,0.306-4.232
			c-0.035-0.588-0.362-1.014-0.918-1.205c-0.294-0.564-0.421-1.16-0.383-1.786c-0.058-1.223-1.674-1.731-2.329-0.631
			c-0.274,0.496-0.577,0.973-0.91,1.431c0.72,0,1.438,0,2.158,0c-0.13-0.217-0.26-0.434-0.391-0.65
			c-0.503-0.837-1.644-0.776-2.158,0c-0.696,1.049-1.229,2.141-1.82,3.251c0.761,0.321,1.522,0.642,2.284,0.963
			c0.281-1.631,0.562-3.3,1.63-4.65c-0.654-0.084-1.309-0.169-1.963-0.253c0.294,0.72,0.641,1.413,1.04,2.081
			c0.34,0.622,1.117,0.751,1.71,0.448c0.421-0.175,0.842-0.35,1.262-0.524c-0.527-0.401-1.055-0.804-1.582-1.205
			c-0.204,3.231-3.216,6.229-5.031,8.732c0.761,0.1,1.522,0.199,2.284,0.299c-0.785-2.402-1.271-4.811-1.223-7.35
			c0.033-0.907,0.24-1.773,0.619-2.598c0.769-1.663,1.951-1.821,3.55-0.473c0.546,1.563,0.011,3.325-0.819,4.655
			c-0.986,1.578-5.913,7.932-1.062,8.732c3.577,0.592,8.225-0.576,8.9-4.652c0.777-4.692-3.829-8.794-3.072-13.387
			c-0.611,0.249-1.224,0.498-1.836,0.747c0.806,0.61,1.32,1.494,2.088,2.146c0-0.589,0-1.179,0-1.768
			c-1.459,1.619-2.591,3.504-4.429,4.746c0.612,0.249,1.225,0.498,1.836,0.747c0.24-1.025,0.479-2.05,0.719-3.075
			c-0.505,0.065-1.01,0.131-1.515,0.195c1.917,0.912,3.52,1.4,4.223,3.839c0.437,1.512,0.576,2.883,1.312,4.296
			c0.528,1.017,1.963,0.668,2.284-0.299c0.044-0.13,0.087-0.26,0.13-0.391c0.403-1.212-1.234-2.078-2.089-1.216
			c-1.09,1.101-2.005,2.319-2.991,3.511c0.696,0.405,1.393,0.811,2.089,1.216c0.146-0.472,0.276-0.948,0.391-1.43
			c0.349-1.357-1.585-2.224-2.284-0.963c-0.405,0.73-0.791,1.417-1.301,2.08c0.776,0.21,1.553,0.421,2.329,0.631
			c-0.005-1.308-0.038-2.597-0.13-3.901c-0.099-1.41-2.001-1.698-2.455-0.332c-0.087,0.26-0.174,0.52-0.26,0.78
			c0.804,0,1.606,0,2.41,0c-0.29-1.587-0.285-2.327-0.65-3.771c-0.264-1.047-1.758-1.233-2.284-0.299
			c-0.85,1.509-1.564,3.027-2.601,4.421c0.776,0.21,1.553,0.421,2.329,0.631c-0.176-4.459,2.042-8.797,0.604-13.206
			c-0.313-0.963-1.348-1.138-2.089-0.552c-4.893,3.87-8.367,12.297-3.091,17.264c2.15,2.024,6.056,2.962,8.658,1.404
			c2.651-1.588,2.315-5.885,2.028-8.421c-0.151-1.342-2.044-1.774-2.455-0.332c-0.087,0.303-0.174,0.606-0.26,0.91
			c0.804,0,1.606,0,2.41,0c-0.275-1.663-0.319-3.101-0.91-4.682c-0.304-0.815-1.414-1.315-2.089-0.552
			c-1.323,1.496-1.938,3.785-3.519,5.007c0.57,0.149,1.14,0.299,1.71,0.448c-0.917-1.739-1.155-3.649-1.22-5.592
			c-0.011-0.317,0.387-3.429,0.81-3.148c1.166,0.772,2.187,1.704,3.139,2.723c4.648,4.971,3.119,12.337-3.589,14.058
			c-5.598,1.436-8.014-3.158-7.933-7.793c0.04-2.264,0.618-8.599,4.13-7.384c-0.291-0.513-0.582-1.024-0.873-1.537
			c-0.595,2.939-2.838,5.067-4.879,7.12c0.696,0.405,1.393,0.811,2.09,1.216c0.758-2.379,1.76-5.142,3.976-6.535
			c-0.627-0.359-1.254-0.72-1.881-1.079c-0.105,2.683-1.405,5.047-2.95,7.172c0.776,0.21,1.553,0.421,2.329,0.631
			c0.161-2.598,2.118-4.845,3.665-6.789C78.305,69.134,76.548,67.352,75.544,68.613L75.544,68.613z"/>
	</g>
</g>
<g>
	<g>
		<path fill="#F06722" d="M76.39,63.535c-1.629,2.794-4.059,4.65-5.209,7.753c-1.338,3.606-1.422,7.655-0.9,11.415
			c0.222,1.592,2.631,0.911,2.412-0.664c-0.479-3.437-0.108-6.78,0.898-10.086c0.86-2.825,3.5-4.657,4.957-7.156
			C79.362,63.401,77.2,62.144,76.39,63.535L76.39,63.535z"/>
	</g>
</g>
<g>
	<g>
		<path fill="#F06722" d="M74.049,64.705c-2.306,3.363-6.247,6.928-6.586,11.261c-0.463,5.906,3.374,9.519,6.456,14.059
			c0.899,1.325,3.066,0.076,2.158-1.262c-2.533-3.734-5.869-6.775-6.211-11.564c-0.301-4.199,4.148-8.033,6.341-11.231
			C77.122,64.633,74.954,63.385,74.049,64.705L74.049,64.705z"/>
	</g>
</g>
<g>
	<g>
		<path fill="#F06722" d="M77.786,64.98c5.148,0.896,7.858,6.242,8.867,10.845c1.571,7.17-1.947,13-9.575,13.229
			c0.36,0.627,0.72,1.254,1.079,1.881c0.087-0.13,0.174-0.261,0.26-0.391c0.896-1.347-1.271-2.597-2.158-1.262
			c-0.087,0.13-0.174,0.261-0.26,0.391c-0.523,0.786,0.164,1.908,1.079,1.881c7.107-0.213,12.064-4.329,12.413-11.471
			c0.336-6.882-3.472-16.195-11.041-17.513C76.874,62.296,76.2,64.704,77.786,64.98L77.786,64.98z"/>
	</g>
</g>
<g>
	<g>
		<path fill="#F06722" d="M82.437,82.788c-1.237,1.225-2.509,2.405-3.908,3.445c-0.957,0.711-0.702,2.308,0.631,2.329
			c1.577,0.026,2.962-0.714,4.493-0.955c-0.32-0.762-0.642-1.522-0.963-2.284c-2.492,1.271-4.893,1.883-7.691,1.91
			c-0.927,0.009-1.586,1.062-1.079,1.881c0.224,0.361,0.49,0.789,0.893,0.983c0.412,0.199,1.217,0.29,1.447,0.707
			c0.248-0.612,0.498-1.225,0.746-1.836c-0.398,0.22-0.828,0.263-1.285,0.13c-1.564-0.39-2.229,2.021-0.664,2.41
			c0.922,0.229,1.721,0.215,2.614-0.13c0.758-0.291,1.166-1.077,0.747-1.836c-0.22-0.397-0.479-0.822-0.893-1.052
			c-0.336-0.186-1.252-0.322-1.447-0.639c-0.359,0.627-0.719,1.254-1.079,1.881c3.24-0.032,6.072-0.781,8.953-2.252
			c1.361-0.694,0.337-2.489-0.963-2.284c-1.294,0.203-2.509,0.887-3.829,0.865c0.21,0.776,0.421,1.553,0.631,2.329
			c1.573-1.169,3.021-2.457,4.414-3.836C85.352,83.42,83.583,81.653,82.437,82.788L82.437,82.788z"/>
	</g>
</g>
<g>
	<g>
		<path fill="#F06722" d="M76.248,89.133c-0.115-3.278-2.825-13.329,0.811-15.176c-0.612-0.249-1.224-0.498-1.837-0.747
			c0.587,2.547,0.352,4.471-0.129,7.009c0.818,0.11,1.637,0.222,2.455,0.332c-0.531-5.517,1.057-10.679,2.556-15.923
			c-0.804,0-1.606,0-2.41,0c0.071,0.583,0.144,1.165,0.216,1.748c0.818-0.11,1.637-0.222,2.455-0.332
			c-0.043-0.217-0.087-0.434-0.131-0.649c-0.318-1.58-2.728-0.909-2.41,0.664c0.043,0.217,0.087,0.434,0.131,0.649
			c0.277,1.378,2.561,1.073,2.455-0.332c-0.066-0.887-0.148-1.542-0.306-2.412c-0.229-1.269-2.09-1.12-2.41,0
			c-1.563,5.468-3.198,10.842-2.646,16.587c0.125,1.306,2.174,1.816,2.455,0.332c0.539-2.845,0.785-5.494,0.131-8.337
			c-0.191-0.826-1.147-1.098-1.837-0.747c-5.29,2.687-2.207,12.838-2.049,17.334C73.805,90.74,76.305,90.746,76.248,89.133
			L76.248,89.133z"/>
	</g>
</g>
<g>
	<g>
		<path fill="#F06722" d="M77.098,62.437c-1.459,0.873-2.937,1.553-3.833,3.063c-0.516,0.868-0.756,1.932-1.107,2.868
			c-0.555,1.479-1.176,2.918-1.615,4.438c-0.449,1.552,1.963,2.21,2.41,0.664c0.613-2.119,1.538-4.128,2.248-6.215
			c0.484-1.422,1.97-1.949,3.159-2.661C79.741,63.769,78.484,61.606,77.098,62.437L77.098,62.437z"/>
	</g>
</g>
<g>
	<g>
		<path fill="#F06722" d="M72.033,66.013c-3.832,3.854-3.617,8.544-4.483,13.556c-0.271,1.576,2.138,2.251,2.412,0.664
			c0.768-4.452,0.42-9.014,3.839-12.452C74.938,66.637,73.171,64.868,72.033,66.013L72.033,66.013z"/>
	</g>
</g>
<g>
	<g>
		<path fill="#F06722" d="M75.331,90.009c-2.822-1.021-3.379-6.994-3.809-9.53c-1.013-5.962,0.723-12.018,5.529-15.819
			c1.265-1-0.518-2.756-1.768-1.768c-5.07,4.01-7.233,10.572-6.355,16.928c0.562,4.071,1.217,10.963,5.736,12.6
			C76.185,92.97,76.834,90.553,75.331,90.009L75.331,90.009z"/>
	</g>
</g>
<g>
	<g>
		<path fill="#F06722" d="M67.03,75.407c-0.92,3.935-1.52,9.646,1.492,12.919c3.395,3.69,8.539,5.545,13.491,4.485
			c8.307-1.777,8.321-14.339,6.413-20.525c-0.474-1.536-2.887-0.881-2.41,0.664c1.534,4.976,1.693,11.877-2.053,15.943
			c-2.97,3.222-8.375,1.528-11.523-0.387c-4.284-2.607-3.992-8.188-3-12.436C69.808,74.503,67.397,73.837,67.03,75.407L67.03,75.407
			z"/>
	</g>
</g>
<g>
	<g>
		<path fill="#F06722" d="M66.64,81.793c0.889,2.385,1.455,5.107,4.125,6.074c1.52,0.551,2.168-1.865,0.664-2.41
			c-1.538-0.558-1.881-2.996-2.377-4.328C68.493,79.632,66.076,80.279,66.64,81.793L66.64,81.793z"/>
	</g>
</g>
<text transform="matrix(1 0 0 1 74.998 81.4609)" stroke="#F1F2F2" stroke-miterlimit="10" font-family="'MyriadPro-Regular'" font-size="12">$</text>
<g>
	<path fill="#F16623" d="M50.244,37.743c3.382,0.436,4.776-0.577,6.165,2.027c0.599,1.59,0.202,3.329,0.398,4.919
		c0.4,4.051,3.183,8.827,8.95,9.117c2.586,0.144,19.837-6.838,11.198,2.956c-1.639,1.859-10.8,1.673-13.188,1.529
		c-5.17-0.29-11.534-3.329-13.722-6.656c-2.188-2.75-6.167-11.72,0-12.732"/>
	<g>
		<path fill="#F06722" d="M50.244,38.993c3.051,0.258,5.21-0.813,5.255,4.067c0.017,1.784,0.277,3.365,0.858,5.054
			c0.876,2.545,2.743,4.436,4.993,5.794c3.888,2.346,8.327,0.293,12.285-0.615c1.077-0.247,2.162-0.429,3.265-0.508
			c2.278-0.163-1.086,3.34-2.049,3.658c-2.998,0.99-6.682,0.726-9.802,0.652c-4.933-0.115-9.897-1.944-13.424-5.446
			c-2.259-2.244-6.215-10.239-1.248-11.542c1.558-0.409,0.896-2.82-0.665-2.411c-8.468,2.221-2.415,14.442,2.314,17.625
			c4.883,3.286,10.076,4.321,15.856,4.299c3.778-0.014,8.45,0.142,10.93-3.153c5.409-7.188-3.658-6.163-8.197-5.017
			c-1.499,0.378-3.016,0.898-4.554,1.096c-5.401,0.694-7.914-5.27-8.063-9.487c-0.208-5.898-2.617-6.133-7.755-6.567
			C48.636,36.357,48.649,38.858,50.244,38.993L50.244,38.993z"/>
	</g>
</g>
</svg>
