<?xml version="1.0" encoding="utf-8"?>
<!-- Generator: Adobe Illustrator 16.0.4, SVG Export Plug-In . SVG Version: 6.00 Build 0)  -->
<!DOCTYPE svg PUBLIC "-//W3C//DTD SVG 1.1//EN" "http://www.w3.org/Graphics/SVG/1.1/DTD/svg11.dtd">
<svg version="1.1" id="Layer_1" xmlns="http://www.w3.org/2000/svg" xmlns:xlink="http://www.w3.org/1999/xlink" x="0px" y="0px"
	 width="100px" height="100px" viewBox="0 0 100 100" enable-background="new 0 0 100 100" xml:space="preserve">
<path fill="none" stroke="#F06722" stroke-miterlimit="10" d="M55.438,91.449c0,0-0.639,0-1.428,0"/>
<g>
	<g>
		<g>
			<path fill="#F06722" d="M44.396,84.61c0.412-5.168,2.045-10.163,1.436-15.387c-0.277-2.372-4.03-2.399-3.75,0
				c0.607,5.203-1.025,10.23-1.436,15.387C40.454,87.022,44.206,87.004,44.396,84.61L44.396,84.61z"/>
		</g>
	</g>
	<g>
		<g>
			<path fill="#F06722" d="M45.496,32.628c11.489,1.523,10.4,17.907,9.873,26.328c-0.292,4.657-0.876,9.295-1.303,13.941
				c-0.385,4.189-0.603,8.327-0.399,12.533c0.121,2.515-0.071,4.563-2.289,6.21c-4.124,3.062-6.729-2.078-7.011-5.276
				c-0.21-2.39-3.962-2.41-3.75,0c0.71,8.079,8.378,13.309,14.855,6.641c3.049-3.139,1.808-8.782,1.836-12.617
				c0.039-5.111,0.767-10.244,1.284-15.328c1.227-12.047,3.408-33.992-13.097-36.182C43.104,28.561,43.135,32.314,45.496,32.628
				L45.496,32.628z"/>
		</g>
	</g>
	<path fill="none" stroke="#F06722" stroke-miterlimit="10" d="M43.285,88.999c0.208,1.598,0.566,4.83,2.273,5.283"/>
	<g>
		<path fill="#F16623" d="M45.274,36.185c3.201,0.48,4.519-0.637,5.833,2.236c0.566,1.754,0.191,3.672,0.377,5.426
			c0.379,4.468,3.012,9.736,8.471,10.057c2.447,0.158,5.834,0.158,4.705,3.188c-0.939,2.396-4.328,1.917-6.588,1.758
			c-4.893-0.319-10.916-3.671-12.986-7.342c-2.071-3.032-5.835-12.927,0-14.045"/>
		<g>
			<path fill="#F06722" d="M45.274,37.435c0.975,0.102,1.926,0.146,2.906,0.161c2.397,0.038,1.991,4.759,2.055,6.251
				c0.087,2.042,0.791,3.982,1.641,5.814c1.7,3.666,5.199,5.316,9.031,5.551c3.077,0.188,1.146,2.51-0.704,2.528
				c-1.418,0.014-2.945-0.218-4.314-0.496c-3.753-0.762-7.616-3.159-9.723-6.367c-1.704-2.596-5.505-10.839-0.747-12.209
				c1.546-0.444,0.888-2.857-0.665-2.41C38.7,38,40.852,45.38,42.651,49.621c3.147,7.42,11.93,11.488,19.733,10.469
				c2.629-0.344,4.019-2.596,3.566-5.085c-0.523-2.874-6.972-2.333-8.7-3.122c-2.932-1.34-4.159-5.118-4.517-8.036
				c-0.229-1.866,0.414-4.314-0.547-6.057c-1.657-3.005-3.825-2.534-6.914-2.855C43.671,34.768,43.687,37.27,45.274,37.435
				L45.274,37.435z"/>
		</g>
	</g>
	
		<ellipse fill="#F06722" stroke="#F06722" stroke-width="2" stroke-miterlimit="10" cx="52.697" cy="18.855" rx="10.729" ry="8.858"/>
	<g>
		<g>
			<path fill="#F06722" d="M38.566,38.618c1.915-2.537,4.384-5.003,7.437-6.081c2.264-0.799,1.29-4.423-0.997-3.615
				c-4.061,1.434-7.128,4.426-9.678,7.804C33.87,38.657,37.128,40.522,38.566,38.618L38.566,38.618z"/>
		</g>
	</g>
	<g>
		<g>
			<path fill="#F06722" d="M47.066,30.617c-1.19-0.175-2.474-0.805-3.431,0.277c-0.532,0.602,0.349,1.489,0.884,0.885
				c0.536-0.606,1.545-0.056,2.215,0.043C47.522,31.938,47.861,30.734,47.066,30.617L47.066,30.617z"/>
		</g>
	</g>
	<g>
		<g>
			<path fill="#F06722" d="M41.856,68.66c-6.498,4.507-12.86,10.38-12.369,18.955c0.152,2.656,1.646,6.299,4.77,6.458
				c3.886,0.197,6.818-2.741,9.368-5.312c1.704-1.719-0.947-4.371-2.651-2.652c-1.577,1.592-3.173,3.257-5.286,4.129
				c-3.695,1.525-2.146-6.588-1.823-7.65c1.412-4.632,6.107-8.069,9.884-10.688C45.721,70.53,43.849,67.278,41.856,68.66
				L41.856,68.66z"/>
		</g>
	</g>
	<g>
		<g>
			<path fill="#F06722" d="M37.428,54.702C37.42,49.73,37.236,44.657,38.4,39.788c0.562-2.351-3.054-3.348-3.616-0.996
				c-1.244,5.204-1.114,10.595-1.105,15.91C33.682,57.12,37.432,57.12,37.428,54.702L37.428,54.702z"/>
		</g>
	</g>
	<g>
		<g>
			<path fill="#F06722" d="M35.923,36.155c-2.479,6.575-4.042,15.428-1.495,22.279c0.775,2.085,2.579,3.094,4.568,3.771
				c2.224,0.757,3.091,1,3.277,3.713c0.137,1.995,0.355,3.949,0.345,5.953c-0.016,3.225,4.984,3.224,5,0
				c0.02-4.033,0.657-11.729-4.114-13.562c-1.05-0.403-2.091-0.647-3.179-0.925c-2.488-0.633-1.821-4.812-1.822-6.665
				c-0.002-4.828,0.549-8.749,2.24-13.233C41.884,34.462,37.05,33.168,35.923,36.155L35.923,36.155z"/>
		</g>
	</g>
</g>
<line fill="none" stroke="#F06722" stroke-miterlimit="10" x1="52.697" y1="9.997" x2="63.424" y2="6.271"/>
<line fill="none" stroke="#F06722" stroke-miterlimit="10" x1="64.502" y1="7.269" x2="43.046" y2="7.269"/>
<line fill="none" stroke="#F06722" stroke-miterlimit="10" x1="43.285" y1="6.271" x2="35.547" y2="11.859"/>
<line fill="none" stroke="#F06722" stroke-miterlimit="10" x1="35.547" y1="11.859" x2="45.137" y2="11.859"/>
<line fill="none" stroke="#F06722" stroke-width="0.25" stroke-miterlimit="10" x1="39.416" y1="11.859" x2="31.302" y2="21.103"/>
<g>
	<g>
		<path fill="none" stroke="#F8A778" stroke-miterlimit="10" d="M43.788,10.784"/>
	</g>
</g>
<g>
	<g>
		<path fill="none" stroke="#F8A778" stroke-miterlimit="10" d="M42.73,9.71"/>
	</g>
</g>
<g>
	<g>
		<path fill="none" stroke="#F8A778" stroke-miterlimit="10" d="M42.73,9.71"/>
	</g>
</g>
<g>
	<g>
		<g>
			<g>
				<polygon fill="#F06722" points="43.669,10.559 43.407,8.802 43.122,8.856 43.404,10.61 				"/>
				<path fill="#F06722" d="M44.061,10.487l-0.225-1.763c-0.006-0.009-0.289,0.05-0.289,0.05l0.252,1.76
					C43.799,10.534,44.065,10.479,44.061,10.487z"/>
				<polygon fill="#F06722" points="44.436,10.455 44.291,8.684 43.985,8.711 44.185,10.477 				"/>
				<polygon fill="#F06722" points="44.819,10.429 44.739,8.653 44.44,8.67 44.559,10.443 				"/>
				<polygon fill="#F06722" points="45.216,10.417 45.176,8.64 44.883,8.649 44.95,10.425 				"/>
				<polygon fill="#F06722" points="45.622,10.41 45.605,8.633 45.32,8.636 45.347,10.413 				"/>
				<polygon fill="#F06722" points="46.033,10.409 46.029,8.632 45.745,8.633 45.757,10.41 				"/>
			</g>
		</g>
	</g>
</g>
<g>
	<g>
		<g>
			<g>
				<polygon fill="#F06722" points="46.268,10.273 46.057,8.512 45.301,8.431 45.454,10.197 				"/>
				<polygon fill="#F06722" points="47.482,10.229 47.185,8.478 46.427,8.542 46.666,10.302 				"/>
				<polygon fill="#F06722" points="48.755,9.933 48.203,8.243 47.532,8.416 47.894,10.156 				"/>
				<path fill="#F06722" d="M49.915,9.492l-0.671-1.646c-0.01,0.013-0.702,0.271-0.702,0.271l0.601,1.673
					C49.142,9.79,49.931,9.495,49.915,9.492z"/>
				<path fill="#F06722" d="M50.984,9.061L50.351,7.4c0,0-0.193,0.074-0.387,0.148c-0.183,0.075-0.366,0.15-0.366,0.15l0.674,1.645
					c0,0,0.182-0.075,0.363-0.149C50.81,9.127,50.984,9.061,50.984,9.061z"/>
				<path fill="#F06722" d="M52.012,8.721l-0.464-1.716c0,0-0.833,0.232-0.817,0.25l0.595,1.675
					C51.329,8.907,52.012,8.721,52.012,8.721z"/>
				<path fill="#F06722" d="M53.032,8.521l-0.21-1.765c0,0-0.218,0.031-0.436,0.062c-0.217,0.033-0.436,0.062-0.433,0.07
					l0.392,1.734L53.032,8.521z"/>
			</g>
		</g>
	</g>
</g>
<g>
	<g>
		<g>
			<g>
				<rect x="45.395" y="7.909" fill="#F06722" width="0.127" height="1.777"/>
				<rect x="45.584" y="7.909" fill="#F06722" width="0.127" height="1.777"/>
				<rect x="45.773" y="7.909" fill="#F06722" width="0.126" height="1.777"/>
				<rect x="45.962" y="7.909" fill="#F06722" width="0.126" height="1.777"/>
				<rect x="46.15" y="7.909" fill="#F06722" width="0.127" height="1.777"/>
				<rect x="46.339" y="7.909" fill="#F06722" width="0.127" height="1.777"/>
				<rect x="46.528" y="7.909" fill="#F06722" width="0.127" height="1.777"/>
			</g>
		</g>
	</g>
</g>
<g>
	<g>
		<path fill="none" stroke="#F8A778" stroke-miterlimit="10" d="M46.982,8.773"/>
	</g>
</g>
<g>
	<g>
		<path fill="none" stroke="#F8A778" stroke-miterlimit="10" d="M46.982,8.773"/>
	</g>
</g>
<g>
	<g>
		<path fill="none" stroke="#F8A778" stroke-miterlimit="10" d="M46.982,8.773"/>
	</g>
</g>
<g>
	<g>
		<path fill="none" stroke="#F8A778" stroke-miterlimit="10" d="M47.775,8.559"/>
	</g>
</g>
<g>
	<g>
		<g>
			<g>
				<polygon fill="#F06722" points="46.152,9.437 46.12,7.659 44.866,7.694 44.866,9.472 				"/>
				<polygon fill="#F06722" points="48.066,9.383 47.988,7.607 46.734,7.642 46.781,9.419 				"/>
				<polygon fill="#F06722" points="49.952,9.299 49.88,7.523 48.608,7.581 48.687,9.356 				"/>
				<path fill="#F06722" d="M51.832,9.227l-0.053-1.777c0,0-0.325-0.002-0.641,0.018c-0.318,0.015-0.636,0.028-0.636,0.028
					l0.069,1.776c0,0,0.316-0.015,0.632-0.028C51.521,9.224,51.832,9.227,51.832,9.227z"/>
				<polygon fill="#F06722" points="53.69,9.21 53.701,7.433 52.41,7.444 52.442,9.221 				"/>
				<path fill="#F06722" d="M55.533,9.261l0.1-1.774c0,0-0.327-0.027-0.653-0.054c-0.326-0.02-0.647-0.006-0.647-0.006l-0.031,1.777
					c0,0,0.314-0.015,0.622,0.005C55.228,9.235,55.533,9.261,55.533,9.261z"/>
				<polygon fill="#F06722" points="57.352,9.412 57.578,7.649 56.271,7.539 56.131,9.312 				"/>
			</g>
		</g>
	</g>
</g>
<g>
	<g>
		<g>
			<g>
				<polygon fill="#F06722" points="43.051,6.923 44.173,8.297 44.62,7.787 43.462,6.446 				"/>
				<polygon fill="#F06722" points="42.381,7.577 43.447,8.997 43.942,8.534 42.838,7.146 				"/>
				<path fill="#F06722" d="M41.641,8.153l1.007,1.463c0,0,0.142-0.094,0.272-0.202c0.133-0.105,0.266-0.21,0.266-0.21L42.14,7.769
					C42.14,7.769,41.649,8.163,41.641,8.153z"/>
				<path fill="#F06722" d="M40.863,8.671l0.942,1.507c0,0,0.145-0.091,0.29-0.181c0.14-0.097,0.28-0.192,0.28-0.192l-0.988-1.478
					c0,0-0.13,0.089-0.259,0.179C40.996,8.588,40.863,8.671,40.863,8.671z"/>
				<path fill="#F06722" d="M40.06,9.146l0.873,1.548c0,0,0.147-0.082,0.295-0.164c0.146-0.089,0.292-0.177,0.292-0.177L40.603,8.83
					c0,0-0.133,0.08-0.267,0.161C40.198,9.068,40.06,9.146,40.06,9.146z"/>
				<polygon fill="#F06722" points="39.226,9.599 40.054,11.171 40.644,10.855 39.789,9.297 				"/>
				<polygon fill="#F06722" points="38.37,10.041 39.179,11.624 39.766,11.322 38.948,9.745 				"/>
			</g>
		</g>
	</g>
</g>
<g>
	<g>
		<g>
			<g>
				<polygon fill="#F06722" points="39.065,11.676 39.062,9.9 38.478,9.92 38.523,11.694 				"/>
				<polygon fill="#F06722" points="39.872,11.647 39.932,9.871 39.348,9.891 39.331,11.666 				"/>
				<polygon fill="#F06722" points="40.658,11.715 40.816,9.945 40.222,9.893 40.131,11.668 				"/>
				<path fill="#F06722" d="M41.445,11.798l0.251-1.76c0.005-0.013-0.589-0.066-0.589-0.067l-0.191,1.768
					C40.916,11.738,41.443,11.784,41.445,11.798z"/>
				<polygon fill="#F06722" points="42.241,11.934 42.554,10.184 41.978,10.086 41.707,11.842 				"/>
				<path fill="#F06722" d="M43.042,12.086l0.361-1.74c0,0-0.14-0.031-0.28-0.062c-0.143-0.026-0.286-0.052-0.286-0.052
					l-0.333,1.745c0,0,0.134,0.024,0.268,0.049C42.906,12.056,43.042,12.086,43.042,12.086z"/>
				<polygon fill="#F06722" points="43.846,12.262 44.238,10.527 43.677,10.405 43.306,12.144 				"/>
			</g>
		</g>
	</g>
</g>
<g>
	<g>
		<g>
			<g>
				<polygon fill="#F06722" points="46.05,12.099 45.765,10.345 44.471,10.572 44.698,12.335 				"/>
				<polygon fill="#F06722" points="48.064,11.744 47.692,10.006 46.398,10.233 46.712,11.982 				"/>
				<polygon fill="#F06722" points="50.041,11.255 49.597,9.534 48.32,9.867 48.718,11.6 				"/>
				<path fill="#F06722" d="M52.006,10.729l-0.509-1.703c0,0-0.316,0.102-0.636,0.179c-0.319,0.084-0.639,0.167-0.639,0.167
					l0.466,1.715c0,0,0.331-0.086,0.661-0.173C51.683,10.832,52.005,10.729,52.006,10.729z"/>
				<polygon fill="#F06722" points="53.929,10.116 53.385,8.424 52.117,8.828 52.638,10.527 				"/>
				<polygon fill="#F06722" points="55.841,9.491 55.275,7.807 54.006,8.227 54.562,9.915 				"/>
				<polygon fill="#F06722" points="57.734,8.851 57.169,7.166 55.897,7.596 56.463,9.281 				"/>
			</g>
		</g>
	</g>
</g>
<g>
	<g>
		<g>
			<g>
				<polygon fill="#F06722" points="57.87,7.272 57.979,9.046 59.232,8.987 59.052,7.22 				"/>
				<polygon fill="#F06722" points="56.11,7.354 56.113,9.131 57.366,9.074 57.292,7.299 				"/>
				<polygon fill="#F06722" points="54.329,7.298 54.267,9.074 55.506,9.12 55.526,7.343 				"/>
				<path fill="#F06722" d="M52.542,7.221l-0.115,1.773c0,0,0.303,0.027,0.614,0.034c0.31,0.012,0.619,0.023,0.619,0.023
					l0.083-1.775c0,0-0.3-0.011-0.599-0.021C52.846,7.248,52.542,7.221,52.542,7.221z"/>
				<polygon fill="#F06722" points="50.739,7.085 50.607,8.857 51.829,8.949 51.95,7.176 				"/>
				<polygon fill="#F06722" points="48.926,6.953 48.797,8.726 50.01,8.812 50.146,7.04 				"/>
				<polygon fill="#F06722" points="47.1,6.827 47,8.603 48.207,8.686 48.326,6.912 				"/>
			</g>
		</g>
	</g>
</g>
<g>
	<g>
		<g>
			<g>
				<polygon fill="#F06722" points="60.423,6.025 60.814,7.759 62.741,7.331 62.374,5.592 				"/>
				<polygon fill="#F06722" points="57.532,6.699 57.944,8.428 59.872,7.973 59.47,6.241 				"/>
				<polygon fill="#F06722" points="54.661,7.376 55.06,9.107 56.998,8.651 56.588,6.922 				"/>
				<path fill="#F06722" d="M51.797,7.988l0.345,1.744c0,0,0.498-0.084,0.983-0.198c0.489-0.107,0.978-0.216,0.978-0.216
					L53.72,7.583c0,0-0.48,0.106-0.961,0.212C52.278,7.908,51.797,7.988,51.797,7.988z"/>
				<path fill="#F06722" d="M48.927,8.485l0.261,1.759c0,0,0.5-0.073,0.999-0.146c0.495-0.092,0.99-0.184,0.99-0.184l-0.321-1.748
					c0,0-0.481,0.089-0.963,0.179C49.41,8.416,48.927,8.485,48.927,8.485z"/>
				<path fill="#F06722" d="M46.045,8.825l0.154,1.771c0,0,0.504-0.046,1.007-0.092c0.505-0.035,1.003-0.118,1.003-0.118
					l-0.228-1.763c0,0-0.482,0.081-0.967,0.114C46.53,8.781,46.045,8.825,46.045,8.825z"/>
				<path fill="#F06722" d="M43.154,8.981l0.038,1.777c0,0,0.506-0.016,1.011-0.031c0.506-0.014,1.011-0.042,1.011-0.042
					l-0.117-1.773c0,0-0.485,0.027-0.972,0.04C43.64,8.967,43.154,8.981,43.154,8.981z"/>
			</g>
		</g>
	</g>
</g>
<g>
	<g>
		<g>
			<g>
				<polygon fill="#F06722" points="56.81,6.942 56.878,8.719 58.33,8.639 58.33,6.861 				"/>
				<polygon fill="#F06722" points="54.546,7.066 54.715,8.836 56.167,8.758 56.066,6.983 				"/>
				<polygon fill="#F06722" points="52.314,7.351 52.551,9.112 54.004,8.912 53.811,7.146 				"/>
				<path fill="#F06722" d="M50.091,7.668l0.295,1.752c0,0.001,0.363-0.065,0.727-0.109c0.363-0.05,0.727-0.1,0.727-0.1
					l-0.257-1.759c0,0-0.374,0.051-0.748,0.103C50.46,7.602,50.091,7.668,50.091,7.668z"/>
				<polygon fill="#F06722" points="47.899,8.069 48.221,9.817 49.675,9.551 49.371,7.8 				"/>
				<polygon fill="#F06722" points="45.715,8.477 46.048,10.222 47.508,9.948 47.178,8.202 				"/>
				<polygon fill="#F06722" points="43.546,8.891 43.866,10.639 45.332,10.358 45.002,8.612 				"/>
			</g>
		</g>
	</g>
</g>
<g>
	<g>
		<g>
			<g>
				<polygon fill="#F06722" points="44.239,6.48 45.03,8.072 45.753,7.691 44.974,6.095 				"/>
				<polygon fill="#F06722" points="43.144,7.056 43.952,8.64 44.675,8.259 43.879,6.67 				"/>
				<polygon fill="#F06722" points="42.05,7.632 42.874,9.206 43.598,8.825 42.785,7.245 				"/>
				<polygon fill="#F06722" points="40.957,8.199 41.789,9.771 42.519,9.393 41.689,7.82 				"/>
				<polygon fill="#F06722" points="39.877,8.721 40.66,10.316 41.418,9.949 40.602,8.37 				"/>
				<polygon fill="#F06722" points="38.797,9.243 39.532,10.861 40.289,10.495 39.521,8.893 				"/>
				<polygon fill="#F06722" points="37.718,9.766 38.403,11.406 39.161,11.04 38.442,9.415 				"/>
			</g>
		</g>
	</g>
</g>
<g>
	<g>
		<g>
			<g>
				<polygon fill="#F06722" points="40.576,8.455 41.544,9.934 41.901,9.569 40.905,8.113 				"/>
				<polygon fill="#F06722" points="40.087,8.965 41.011,10.476 41.369,10.111 40.416,8.622 				"/>
				<polygon fill="#F06722" points="39.533,9.402 40.411,10.942 40.817,10.633 39.908,9.111 				"/>
				<path fill="#F06722" d="M38.966,9.821l0.831,1.568c0.012,0.018,0.416-0.296,0.416-0.296l-0.862-1.55
					C39.35,9.544,38.977,9.838,38.966,9.821z"/>
				<polygon fill="#F06722" points="38.351,10.168 39.133,11.763 39.579,11.513 38.764,9.935 				"/>
				<path fill="#F06722" d="M37.739,10.465l0.689,1.638c0.012,0.01,0.504-0.203,0.486-0.218l-0.766-1.603
					C38.147,10.304,37.738,10.479,37.739,10.465z"/>
				<polygon fill="#F06722" points="37.137,10.688 37.658,12.387 38.175,12.197 37.541,10.537 				"/>
			</g>
		</g>
	</g>
</g>
<g>
	<g>
		<g>
			<g>
				<polygon fill="#F06722" points="62.921,4.984 63.027,6.759 64.793,6.623 64.597,4.856 				"/>
				<polygon fill="#F06722" points="60.401,5.066 60.409,6.844 62.166,6.805 62.097,5.028 				"/>
				<polygon fill="#F06722" points="57.854,5.038 57.814,6.815 59.556,6.838 59.566,5.061 				"/>
				
					<rect x="55.237" y="5.021" transform="matrix(0.0231 -0.9997 0.9997 0.0231 48.9494 61.8586)" fill="#F06722" width="1.778" height="1.725"/>
				<path fill="#F06722" d="M52.692,4.938l-0.001,1.777c0,0,0.426,0,0.853-0.001c0.43,0.009,0.858,0.019,0.858,0.019l0.032-1.777
					c0,0-0.434-0.01-0.868-0.019C53.129,4.938,52.692,4.938,52.692,4.938z"/>
				<path fill="#F06722" d="M50.079,4.993L50.16,6.77c0,0,0.423-0.02,0.846-0.038c0.422-0.025,0.851-0.014,0.851-0.014L51.835,4.94
					c0,0-0.436-0.011-0.876,0.015C50.519,4.975,50.079,4.993,50.079,4.993z"/>
				<path fill="#F06722" d="M47.454,5.199l0.204,1.766c0,0,0.418-0.044,0.836-0.088c0.416-0.053,0.839-0.071,0.839-0.071
					l-0.115-1.773c0,0-0.44,0.02-0.882,0.074C47.895,5.153,47.454,5.199,47.454,5.199z"/>
			</g>
		</g>
	</g>
</g>
<g>
	<g>
		<g>
			<g>
				<polygon fill="#F06722" points="62.399,5.351 62.486,7.126 64.229,7.057 64.104,5.283 				"/>
				<polygon fill="#F06722" points="59.862,5.452 59.892,7.229 61.634,7.16 61.565,5.384 				"/>
				<polygon fill="#F06722" points="57.311,5.452 57.306,7.229 59.041,7.237 59.024,5.46 				"/>
				<polygon fill="#F06722" points="54.756,5.435 54.724,7.212 56.456,7.226 56.472,5.448 				"/>
				<polygon fill="#F06722" points="52.189,5.377 52.152,7.154 53.879,7.193 53.913,5.416 				"/>
				<polygon fill="#F06722" points="49.617,5.328 49.586,7.105 51.308,7.135 51.346,5.358 				"/>
				<polygon fill="#F06722" points="47.037,5.293 47.029,7.07 48.746,7.094 48.77,5.316 				"/>
			</g>
		</g>
	</g>
</g>
<g>
	<g>
		<g>
			<g>
				<rect x="61.527" y="5.281" fill="#F06722" width="1.318" height="1.777"/>
				<rect x="59.562" y="5.281" fill="#F06722" width="1.319" height="1.777"/>
				<rect x="57.599" y="5.281" fill="#F06722" width="1.319" height="1.777"/>
				<rect x="55.635" y="5.281" fill="#F06722" width="1.318" height="1.777"/>
				<rect x="53.671" y="5.281" fill="#F06722" width="1.318" height="1.777"/>
				<rect x="51.706" y="5.281" fill="#F06722" width="1.319" height="1.777"/>
				<rect x="49.743" y="5.281" fill="#F06722" width="1.319" height="1.777"/>
			</g>
		</g>
	</g>
</g>
<g>
	<g>
		<g>
			<g>
				<polygon fill="#F06722" points="60.737,5.119 60.854,6.893 62.389,6.84 62.244,5.068 				"/>
				<polygon fill="#F06722" points="58.492,5.195 58.567,6.971 60.103,6.918 60,5.144 				"/>
				<polygon fill="#F06722" points="56.248,5.271 56.282,7.048 57.817,6.996 57.755,5.22 				"/>
				<path fill="#F06722" d="M53.999,5.332v1.777c0,0,0.379,0.01,0.765-0.01c0.383-0.013,0.767-0.026,0.767-0.026L55.51,5.296
					c0,0-0.377,0.014-0.754,0.026C54.381,5.342,53.999,5.332,53.999,5.332z"/>
				<polygon fill="#F06722" points="51.732,5.317 51.732,7.095 53.254,7.104 53.254,5.327 				"/>
				<polygon fill="#F06722" points="49.464,5.302 49.464,7.079 50.987,7.089 50.987,5.312 				"/>
				<polygon fill="#F06722" points="47.198,5.286 47.198,7.063 48.72,7.074 48.72,5.297 				"/>
			</g>
		</g>
	</g>
</g>
<g>
	<g>
		<g>
			<g>
				<polygon fill="#F06722" points="49.409,5.11 49.656,6.87 50.029,6.831 49.743,5.077 				"/>
				<polygon fill="#F06722" points="48.912,5.16 49.1,6.928 49.474,6.89 49.246,5.127 				"/>
				<polygon fill="#F06722" points="48.415,5.212 48.544,6.984 48.917,6.946 48.748,5.177 				"/>
				<path fill="#F06722" d="M47.914,5.257l0.077,1.775c-0.002,0.009,0.371-0.029,0.371-0.029l-0.11-1.774
					C48.251,5.229,47.918,5.266,47.914,5.257z"/>
				<polygon fill="#F06722" points="47.396,5.264 47.449,7.04 47.812,7.035 47.744,5.259 				"/>
				<polygon fill="#F06722" points="46.877,5.271 46.908,7.048 47.271,7.043 47.225,5.266 				"/>
				<polygon fill="#F06722" points="46.359,5.278 46.366,7.056 46.73,7.051 46.707,5.273 				"/>
			</g>
		</g>
	</g>
</g>
<g>
	<g>
		<g>
			<g>
				<path fill="#F06722" d="M50.892,6.615l0.187,1.762c0,0,0.24,0.004,0.48,0.009c0.24,0.012,0.479,0.024,0.479,0.024l-0.111-1.765
					c0,0-0.259-0.012-0.518-0.023C51.15,6.619,50.892,6.615,50.892,6.615z"/>
				<path fill="#F06722" d="M49.353,6.694l0.298,1.75c0,0,0.238-0.028,0.479-0.039c0.239-0.019,0.479-0.022,0.479-0.022
					l-0.223-1.759c0,0-0.259,0.006-0.517,0.026C49.61,6.663,49.353,6.694,49.353,6.694z"/>
				<path fill="#F06722" d="M47.831,6.933l0.407,1.73c0,0,0.235-0.045,0.471-0.091c0.236-0.045,0.475-0.073,0.475-0.073
					l-0.333-1.744c0,0-0.257,0.031-0.511,0.08C48.085,6.884,47.831,6.933,47.831,6.933z"/>
				<path fill="#F06722" d="M46.337,7.319l0.518,1.7c0,0,0.23-0.066,0.459-0.133c0.232-0.061,0.465-0.12,0.465-0.12l-0.442-1.722
					c0,0-0.25,0.065-0.501,0.13C46.586,7.247,46.337,7.319,46.337,7.319z"/>
				<polygon fill="#F06722" points="44.88,7.816 45.5,9.482 46.41,9.161 45.852,7.474 				"/>
				<polygon fill="#F06722" points="43.397,8.416 44.223,9.99 44.332,9.933 44.246,9.973 45.055,9.651 44.413,7.994 43.577,8.326 
					43.538,8.342 43.485,8.369 				"/>
				<path fill="#F06722" d="M41.905,9.679l1.536,0.895c0-0.001,0.11-0.189,0.167-0.243c0.025-0.039,0.161-0.11,0.18-0.119
					l-0.826-1.574c0.026-0.006-0.314,0.129-0.639,0.467C42.03,9.421,41.905,9.679,41.905,9.679z"/>
			</g>
		</g>
	</g>
</g>
<g>
	<g>
		<g>
			<g>
				<rect x="53.386" y="8.075" fill="#F06722" width="0.735" height="1.777"/>
				<rect x="52.29" y="8.075" fill="#F06722" width="0.735" height="1.777"/>
				<rect x="51.195" y="8.075" fill="#F06722" width="0.735" height="1.777"/>
				<rect x="50.099" y="8.075" fill="#F06722" width="0.735" height="1.777"/>
				<rect x="49.003" y="8.075" fill="#F06722" width="0.736" height="1.777"/>
				<rect x="47.908" y="8.075" fill="#F06722" width="0.735" height="1.777"/>
				<rect x="46.813" y="8.075" fill="#F06722" width="0.735" height="1.777"/>
			</g>
		</g>
	</g>
</g>
<g>
	<g>
		<g>
			<g>
				<polygon fill="#F06722" points="54.838,7.87 54.85,9.647 55.707,9.638 55.707,7.86 				"/>
				<polygon fill="#F06722" points="53.543,7.885 53.572,9.662 54.43,9.652 54.412,7.875 				"/>
				<polygon fill="#F06722" points="52.264,7.9 52.28,9.678 53.149,9.667 53.121,7.891 				"/>
				<polygon fill="#F06722" points="50.989,7.911 50.983,9.688 51.854,9.683 51.845,7.905 				"/>
				<polygon fill="#F06722" points="49.733,7.88 49.67,9.656 50.552,9.678 50.577,7.9 				"/>
				<path fill="#F06722" d="M48.486,7.815l-0.134,1.772c0,0,0.222,0.021,0.445,0.043c0.221,0.008,0.441,0.015,0.441,0.015
					L49.32,7.87c0,0-0.21-0.007-0.42-0.014C48.693,7.836,48.486,7.815,48.486,7.815z"/>
				<polygon fill="#F06722" points="47.255,7.694 47.027,9.457 47.917,9.545 48.082,7.775 				"/>
			</g>
		</g>
	</g>
</g>
<g>
	<g>
		<g>
			<g>
				<polygon fill="#F06722" points="51.838,6.523 52.087,8.283 52.903,8.199 52.644,6.441 				"/>
				<polygon fill="#F06722" points="50.638,6.645 50.87,8.407 51.688,8.324 51.443,6.563 				"/>
				<polygon fill="#F06722" points="49.438,6.767 49.653,8.531 50.471,8.447 50.244,6.685 				"/>
				<polygon fill="#F06722" points="48.238,6.889 48.437,8.655 49.253,8.571 49.043,6.807 				"/>
				<polygon fill="#F06722" points="47.038,7.011 47.22,8.778 48.037,8.695 47.843,6.929 				"/>
				<polygon fill="#F06722" points="45.837,7.133 46.003,8.902 46.82,8.819 46.643,7.051 				"/>
				<polygon fill="#F06722" points="44.638,7.255 44.787,9.025 45.604,8.943 45.443,7.173 				"/>
			</g>
		</g>
	</g>
</g>
<g>
	<g>
		<g>
			<g>
				<polygon fill="#F06722" points="47.392,8.63 47.888,10.33 48.55,10.103 48.005,8.418 				"/>
				<polygon fill="#F06722" points="46.478,8.945 46.903,10.668 47.564,10.441 47.091,8.733 				"/>
				<polygon fill="#F06722" points="45.539,9.171 45.89,10.911 46.571,10.751 46.17,9.022 				"/>
				<path fill="#F06722" d="M44.595,9.374l0.277,1.755c0.003,0.018,0.684-0.14,0.684-0.14L45.23,9.244
					C45.23,9.244,44.598,9.392,44.595,9.374z"/>
				<polygon fill="#F06722" points="43.638,9.506 43.84,11.271 44.533,11.176 44.281,9.417 				"/>
				<path fill="#F06722" d="M42.681,9.598l0.121,1.773c0,0,0.703-0.037,0.7-0.054L43.323,9.55
					C43.323,9.566,42.681,9.598,42.681,9.598z"/>
				<polygon fill="#F06722" points="41.724,9.642 41.753,11.419 42.457,11.387 42.366,9.612 				"/>
			</g>
		</g>
	</g>
</g>
<g>
	<g>
		<g>
			<g>
				<polygon fill="#F06722" points="45.583,10.129 45.786,11.895 46.284,11.856 46.046,10.095 				"/>
				<polygon fill="#F06722" points="44.893,10.18 45.044,11.951 45.542,11.913 45.356,10.146 				"/>
				<polygon fill="#F06722" points="44.203,10.231 44.302,12.006 44.8,11.969 44.666,10.197 				"/>
				<path fill="#F06722" d="M43.509,10.276l0.053,1.776c0,0,0.496-0.028,0.496-0.028l-0.082-1.775
					C43.976,10.249,43.513,10.285,43.509,10.276z"/>
				<polygon fill="#F06722" points="42.799,10.284 42.836,12.061 43.324,12.056 43.276,10.279 				"/>
				<polygon fill="#F06722" points="42.088,10.292 42.109,12.068 42.597,12.063 42.565,10.286 				"/>
				<polygon fill="#F06722" points="41.377,10.299 41.383,12.076 41.871,12.071 41.854,10.294 				"/>
			</g>
		</g>
	</g>
</g>
<g>
	<g>
		<g>
			<g>
				<polygon fill="#F06722" points="42.056,7.535 43.058,9.003 43.48,8.706 42.483,7.234 				"/>
				<polygon fill="#F06722" points="41.421,7.983 42.43,9.446 42.852,9.149 41.848,7.683 				"/>
				<polygon fill="#F06722" points="40.786,8.431 41.801,9.89 42.223,9.593 41.212,8.13 				"/>
				<path fill="#F06722" d="M40.152,8.873l1.016,1.459l0.427-0.296l-1.018-1.458C40.577,8.578,40.15,8.884,40.152,8.873z"/>
				<polygon fill="#F06722" points="39.524,9.271 40.49,10.762 40.945,10.474 39.945,9.004 				"/>
				<polygon fill="#F06722" points="38.897,9.668 39.813,11.191 40.268,10.903 39.318,9.4 				"/>
				<polygon fill="#F06722" points="38.271,10.066 39.135,11.619 39.59,11.332 38.691,9.799 				"/>
			</g>
		</g>
	</g>
</g>
<g>
	<g>
		<g>
			<g>
				<polygon fill="#F06722" points="42.507,7.029 43.726,8.322 44.127,7.963 42.886,6.691 				"/>
				<polygon fill="#F06722" points="41.943,7.532 43.128,8.857 43.53,8.498 42.322,7.194 				"/>
				<polygon fill="#F06722" points="41.38,8.036 42.529,9.392 42.931,9.032 41.758,7.697 				"/>
				<path fill="#F06722" d="M40.807,8.529l1.114,1.384c0.008,0.011,0.411-0.347,0.411-0.347l-1.138-1.365
					C41.194,8.201,40.816,8.539,40.807,8.529z"/>
				<polygon fill="#F06722" points="40.198,8.979 41.278,10.391 41.71,10.07 40.607,8.677 				"/>
				<polygon fill="#F06722" points="39.589,9.429 40.634,10.867 41.066,10.547 39.998,9.127 				"/>
				<polygon fill="#F06722" points="38.981,9.88 39.99,11.344 40.422,11.023 39.39,9.577 				"/>
			</g>
		</g>
	</g>
</g>
<g>
	<g>
		<g>
			<g>
				<polygon fill="#F06722" points="44.542,6.018 46.004,7.027 46.375,6.509 44.861,5.577 				"/>
				<polygon fill="#F06722" points="44.068,6.678 45.448,7.798 45.822,7.281 44.386,6.234 				"/>
				<polygon fill="#F06722" points="43.51,7.316 44.848,8.486 45.252,8.026 43.887,6.888 				"/>
				<polygon fill="#F06722" points="42.938,7.959 44.247,9.162 44.649,8.712 43.325,7.526 				"/>
				<polygon fill="#F06722" points="42.336,8.612 43.652,9.807 44.051,9.374 42.74,8.174 				"/>
				<path fill="#F06722" d="M41.737,9.29l1.344,1.162c0,0,0.375-0.434,0.375-0.434l-1.319-1.191c0-0.001-0.102,0.104-0.201,0.227
					C41.837,9.172,41.737,9.29,41.737,9.29z"/>
				<polygon fill="#F06722" points="41.144,9.995 42.537,11.099 42.903,10.665 41.542,9.521 				"/>
			</g>
		</g>
	</g>
</g>
<g>
	<g>
		<g>
			<g>
				<polygon fill="#F06722" points="62.218,4.729 62.373,6.5 63.757,6.405 63.518,4.644 				"/>
				<polygon fill="#F06722" points="60.282,4.859 60.312,6.637 61.695,6.545 61.582,4.771 				"/>
				<polygon fill="#F06722" points="58.316,4.822 58.272,6.6 59.64,6.639 59.639,4.861 				"/>
				<path fill="#F06722" d="M56.343,4.756L56.24,6.53c0,0,0.336,0.022,0.68,0.029c0.342,0.01,0.684,0.02,0.684,0.02l0.064-1.775
					c0,0-0.33-0.01-0.661-0.02C56.678,4.778,56.343,4.756,56.343,4.756z"/>
				<polygon fill="#F06722" points="54.344,4.627 54.237,6.401 55.582,6.488 55.686,4.714 				"/>
				<path fill="#F06722" d="M52.331,4.519l-0.085,1.775c0,0,0.331,0.012,0.662,0.024c0.336,0.021,0.671,0.041,0.671,0.041
					l0.107-1.774c0,0-0.336-0.021-0.672-0.041C52.673,4.531,52.331,4.519,52.331,4.519z"/>
				<polygon fill="#F06722" points="50.295,4.445 50.274,6.222 51.599,6.271 51.662,4.494 				"/>
			</g>
		</g>
	</g>
</g>
<g>
	<g>
		<g>
			<g>
				<polygon fill="#F06722" points="61.544,5.245 61.534,7.022 63.111,7.059 63.111,5.281 				"/>
				<polygon fill="#F06722" points="59.21,5.192 59.186,6.97 60.763,7.005 60.777,5.229 				"/>
				<polygon fill="#F06722" points="56.876,5.14 56.837,6.916 58.414,6.952 58.443,5.175 				"/>
				<polygon fill="#F06722" points="54.538,5.092 54.49,6.869 56.064,6.898 56.108,5.122 				"/>
				<polygon fill="#F06722" points="52.178,5.084 52.166,6.861 53.727,6.866 53.763,5.089 				"/>
				<polygon fill="#F06722" points="49.816,5.076 49.841,6.854 51.401,6.858 51.401,5.081 				"/>
				<polygon fill="#F06722" points="47.456,5.068 47.517,6.845 49.077,6.851 49.041,5.073 				"/>
			</g>
		</g>
	</g>
</g>
<g>
	<g>
		<g>
			<g>
				<polygon fill="#F06722" points="46.044,4.96 47.292,6.226 47.598,5.94 46.331,4.693 				"/>
				<polygon fill="#F06722" points="45.617,5.357 46.835,6.651 47.142,6.366 45.904,5.091 				"/>
				<polygon fill="#F06722" points="45.19,5.756 46.379,7.076 46.686,6.791 45.477,5.488 				"/>
				<polygon fill="#F06722" points="44.76,6.152 45.921,7.498 46.229,7.216 45.049,5.887 				"/>
				<polygon fill="#F06722" points="44.301,6.533 45.45,7.889 45.766,7.627 44.609,6.277 				"/>
				<polygon fill="#F06722" points="43.842,6.913 44.979,8.279 45.295,8.018 44.15,6.658 				"/>
				<polygon fill="#F06722" points="43.384,7.294 44.508,8.67 44.825,8.408 43.692,7.038 				"/>
			</g>
		</g>
	</g>
</g>
<g>
	<g>
		<g>
			<g>
				<polygon fill="#F06722" points="46.554,5.169 47.788,6.448 48.126,6.155 46.859,4.908 				"/>
				<polygon fill="#F06722" points="46.1,5.558 47.284,6.884 47.623,6.591 46.405,5.297 				"/>
				<polygon fill="#F06722" points="45.647,5.947 46.778,7.318 47.118,7.026 45.951,5.686 				"/>
				<path fill="#F06722" d="M45.189,6.338l1.083,1.409c-0.002,0.01,0.339-0.286,0.339-0.286l-1.114-1.385
					C45.498,6.076,45.2,6.339,45.189,6.338z"/>
				<polygon fill="#F06722" points="44.681,6.728 45.776,8.128 46.109,7.872 45.022,6.466 				"/>
				<polygon fill="#F06722" points="44.172,7.117 45.279,8.509 45.613,8.253 44.514,6.855 				"/>
				<polygon fill="#F06722" points="43.664,7.507 44.782,8.889 45.116,8.634 44.005,7.246 				"/>
			</g>
		</g>
	</g>
</g>
<g>
	<g>
		<g>
			<g>
				<polygon fill="#F06722" points="64.426,6.256 64.834,4.525 64.659,4.5 64.194,6.215 				"/>
				<polygon fill="#F06722" points="64.771,6.313 65.092,4.565 64.919,4.538 64.539,6.274 				"/>
				<polygon fill="#F06722" points="65.116,6.369 65.35,4.607 65.177,4.579 64.884,6.332 				"/>
				<polygon fill="#F06722" points="65.462,6.423 65.607,4.652 65.435,4.622 65.229,6.388 				"/>
				<polygon fill="#F06722" points="65.791,6.44 65.888,4.666 65.696,4.661 65.572,6.435 				"/>
				<polygon fill="#F06722" points="66.116,6.45 66.172,4.674 65.98,4.669 65.897,6.444 				"/>
				<polygon fill="#F06722" points="66.441,6.459 66.455,4.682 66.265,4.677 66.224,6.453 				"/>
			</g>
		</g>
	</g>
</g>
<g>
	<g>
		<g>
			<g>
				<polygon fill="#F06722" points="65.387,4.83 66.101,6.458 66.928,6.11 66.148,4.514 				"/>
				<polygon fill="#F06722" points="64.253,5.305 64.868,6.972 65.696,6.627 65.014,4.985 				"/>
				<polygon fill="#F06722" points="63.062,5.709 63.631,7.393 64.462,7.115 63.865,5.441 				"/>
				<polygon fill="#F06722" points="61.86,6.106 62.395,7.801 63.224,7.528 62.669,5.84 				"/>
				<polygon fill="#F06722" points="60.631,6.493 61.176,8.186 61.994,7.928 61.457,6.233 				"/>
				<path fill="#F06722" d="M59.396,6.903l0.578,1.681c0,0,0.197-0.071,0.395-0.142c0.203-0.065,0.407-0.131,0.407-0.131
					l-0.549-1.69c0,0-0.206,0.066-0.413,0.133C59.604,6.828,59.396,6.903,59.396,6.903z"/>
				<polygon fill="#F06722" points="58.152,7.351 58.8,9.006 59.588,8.723 58.987,7.05 				"/>
			</g>
		</g>
	</g>
</g>
<g>
	<g>
		<path fill="#F06722" d="M59.091,5.249c-2.516,1.18-5.224,1.82-7.862,2.66c-0.11,0.035-1.303,0.522-0.875,0.78
			c0.49,0.295,1.381-0.037,1.86-0.188c2.874-0.915,5.79-1.644,8.532-2.93C62.474,4.76,59.743,4.943,59.091,5.249L59.091,5.249z"/>
	</g>
</g>
<g>
	<g>
		<g>
			<g>
				
					<rect x="54.357" y="7.322" transform="matrix(-0.3093 -0.951 0.951 -0.3093 65.1798 62.3852)" fill="#F06722" width="1.778" height="0.4"/>
				
					<rect x="53.79" y="7.506" transform="matrix(-0.3093 -0.951 0.951 -0.3093 64.2625 62.0871)" fill="#F06722" width="1.778" height="0.4"/>
				
					<rect x="53.224" y="7.69" transform="matrix(-0.3088 -0.9511 0.9511 -0.3088 63.3172 61.7949)" fill="#F06722" width="1.777" height="0.401"/>
				
					<rect x="52.657" y="7.875" transform="matrix(-0.3088 -0.9511 0.9511 -0.3088 62.4003 61.4978)" fill="#F06722" width="1.777" height="0.401"/>
				
					<rect x="52.09" y="8.06" transform="matrix(-0.3093 -0.951 0.951 -0.3093 61.5103 61.1946)" fill="#F06722" width="1.778" height="0.399"/>
				
					<rect x="51.523" y="8.243" transform="matrix(-0.3088 -0.9511 0.9511 -0.3088 60.5663 60.9012)" fill="#F06722" width="1.777" height="0.401"/>
				
					<rect x="50.957" y="8.428" transform="matrix(-0.3088 -0.9511 0.9511 -0.3088 59.6494 60.6041)" fill="#F06722" width="1.777" height="0.401"/>
			</g>
		</g>
	</g>
</g>
<g>
	<g>
		<g>
			<g>
				<polygon fill="#F06722" points="51.765,4.928 52.649,6.469 53.212,6.157 52.318,4.621 				"/>
				<polygon fill="#F06722" points="50.94,5.385 51.812,6.934 52.375,6.621 51.494,5.078 				"/>
				<polygon fill="#F06722" points="50.116,5.842 50.976,7.397 51.538,7.086 50.67,5.535 				"/>
				<polygon fill="#F06722" points="49.292,6.299 50.139,7.861 50.701,7.55 49.845,5.992 				"/>
				<polygon fill="#F06722" points="48.467,6.756 49.302,8.325 49.864,8.014 49.021,6.449 				"/>
				<polygon fill="#F06722" points="47.643,7.213 48.465,8.789 49.027,8.478 48.196,6.906 				"/>
				<polygon fill="#F06722" points="46.819,7.671 47.628,9.253 48.19,8.941 47.372,7.363 				"/>
			</g>
		</g>
	</g>
</g>
<g>
	<g>
		<g>
			<g>
				<polygon fill="#F06722" points="47.855,4.951 49.207,6.103 49.48,5.744 48.108,4.617 				"/>
				<polygon fill="#F06722" points="47.478,5.447 48.799,6.636 49.073,6.278 47.731,5.113 				"/>
				<polygon fill="#F06722" points="47.056,5.87 48.31,7.13 48.642,6.801 47.341,5.589 				"/>
				<path fill="#F06722" d="M46.622,6.291l1.193,1.317c-0.001,0.011,0.332-0.317,0.332-0.317l-1.23-1.283
					C46.917,6.008,46.632,6.291,46.622,6.291z"/>
				<polygon fill="#F06722" points="46.141,6.716 47.324,8.042 47.653,7.751 46.464,6.431 				"/>
				<polygon fill="#F06722" points="45.652,7.158 46.852,8.47 47.163,8.185 45.983,6.855 				"/>
				<polygon fill="#F06722" points="45.152,7.626 46.403,8.889 46.704,8.607 45.488,7.312 				"/>
			</g>
		</g>
	</g>
</g>
<g>
	<g>
		<g>
			<g>
				<polygon fill="#F06722" points="44.471,5.81 45.794,6.984 46.034,6.62 44.691,5.471 				"/>
				<polygon fill="#F06722" points="44.143,6.313 45.438,7.524 45.677,7.161 44.363,5.975 				"/>
				<polygon fill="#F06722" points="43.779,6.792 45.042,8.038 45.31,7.695 44.026,6.473 				"/>
				<path fill="#F06722" d="M43.401,7.26l1.231,1.279c0.01,0.01,0.278-0.333,0.279-0.333l-1.253-1.257
					C43.658,6.948,43.412,7.269,43.401,7.26z"/>
				<polygon fill="#F06722" points="42.98,7.688 44.177,9.001 44.482,8.691 43.263,7.4 				"/>
				<path fill="#F06722" d="M42.549,8.07l1.126,1.375c0,0,0.371-0.285,0.352-0.292L42.841,7.83
					C42.845,7.849,42.549,8.07,42.549,8.07z"/>
				<polygon fill="#F06722" points="42.111,8.404 43.121,9.867 43.494,9.584 42.405,8.18 				"/>
			</g>
		</g>
	</g>
</g>
<g>
	<g>
		<g>
			<g>
				<polygon fill="#F06722" points="44.03,6.616 45.388,7.76 45.786,7.239 44.399,6.133 				"/>
				<path fill="#F06722" d="M43.478,7.331L44.79,8.53c0.007,0.005,0.105-0.126,0.205-0.256s0.199-0.261,0.199-0.261L43.85,6.853
					L43.478,7.331z"/>
				<polygon fill="#F06722" points="42.844,7.944 44.074,9.227 44.555,8.76 43.27,7.532 				"/>
				<path fill="#F06722" d="M42.188,8.549l1.161,1.346c0.004,0.013,0.494-0.427,0.49-0.439l-1.202-1.31
					C42.649,8.15,42.2,8.554,42.188,8.549z"/>
				<polygon fill="#F06722" points="41.481,9.134 42.606,10.51 43.105,10.097 41.956,8.741 				"/>
				
					<rect x="40.671" y="9.901" transform="matrix(-0.626 -0.7798 0.7798 -0.626 59.6066 49.0232)" fill="#F06722" width="1.777" height="0.633"/>
				<polygon fill="#F06722" points="40.018,10.312 41.137,11.693 41.629,11.301 40.514,9.916 				"/>
			</g>
		</g>
	</g>
</g>
<g>
	<g>
		<g>
			<g>
				<polygon fill="#F06722" points="46.927,7.329 48.017,8.727 48.298,8.449 47.187,7.07 				"/>
				<polygon fill="#F06722" points="46.537,7.712 47.594,9.138 47.879,8.862 46.799,7.455 				"/>
				<polygon fill="#F06722" points="46.118,8.062 47.141,9.514 47.446,9.261 46.399,7.827 				"/>
				<path fill="#F06722" d="M45.688,8.398l0.989,1.476c0,0,0.321-0.23,0.316-0.237L45.98,8.178
					C45.985,8.185,45.688,8.397,45.688,8.398z"/>
				<polygon fill="#F06722" points="45.238,8.708 46.191,10.208 46.517,9.984 45.54,8.5 				"/>
				<path fill="#F06722" d="M44.785,8.984l0.891,1.538c0,0,0.366-0.197,0.355-0.204L45.09,8.811
					C45.091,8.823,44.785,8.984,44.785,8.984z"/>
				<polygon fill="#F06722" points="44.331,9.235 45.138,10.819 45.499,10.62 44.635,9.066 				"/>
			</g>
		</g>
	</g>
</g>
<g>
	<g>
		<g>
			<g>
				<polygon fill="#F06722" points="50.922,8.473 51.775,10.031 52.148,9.816 51.269,8.273 				"/>
				<polygon fill="#F06722" points="50.406,8.77 51.219,10.351 51.592,10.136 50.753,8.57 				"/>
				<polygon fill="#F06722" points="49.883,9.018 50.625,10.633 51.029,10.448 50.235,8.858 				"/>
				<polygon fill="#F06722" points="49.357,9.254 50.022,10.901 50.427,10.723 49.711,9.096 				"/>
				<polygon fill="#F06722" points="48.803,9.46 49.417,11.128 49.824,10.976 49.175,9.321 				"/>
				<polygon fill="#F06722" points="48.241,9.661 48.814,11.343 49.218,11.202 48.622,9.527 				"/>
				<polygon fill="#F06722" points="47.663,9.853 48.218,11.541 48.618,11.408 48.051,9.724 				"/>
			</g>
		</g>
	</g>
</g>
<g>
	<g>
		<g>
			<g>
				<polygon fill="#F06722" points="53.035,6.889 53.527,8.597 54.345,8.389 53.841,6.684 				"/>
				<polygon fill="#F06722" points="51.835,7.193 52.311,8.905 53.128,8.698 52.641,6.988 				"/>
				<polygon fill="#F06722" points="50.635,7.498 51.094,9.215 51.911,9.008 51.44,7.293 				"/>
				<polygon fill="#F06722" points="49.435,7.803 49.877,9.524 50.694,9.316 50.241,7.599 				"/>
				<polygon fill="#F06722" points="48.235,8.108 48.66,9.834 49.477,9.626 49.041,7.903 				"/>
				<polygon fill="#F06722" points="47.036,8.413 47.443,10.144 48.26,9.936 47.841,8.208 				"/>
				<polygon fill="#F06722" points="45.836,8.718 46.226,10.452 47.043,10.245 46.642,8.514 				"/>
			</g>
		</g>
	</g>
</g>
<g>
	<g>
		<g>
			<g>
				<polygon fill="#F06722" points="45.349,5.638 46.633,6.866 47.081,6.411 45.746,5.238 				"/>
				<polygon fill="#F06722" points="44.759,6.236 45.964,7.543 46.414,7.089 45.155,5.834 				"/>
				<polygon fill="#F06722" points="44.104,6.801 45.263,8.148 45.735,7.744 44.546,6.423 				"/>
				<polygon fill="#F06722" points="43.439,7.362 44.558,8.744 45.032,8.347 43.888,6.986 				"/>
				<polygon fill="#F06722" points="42.744,7.913 43.847,9.307 44.324,8.929 43.211,7.543 				"/>
				
					<rect x="41.939" y="8.68" transform="matrix(-0.6193 -0.7852 0.7852 -0.6193 62.2977 48.1688)" fill="#F06722" width="1.777" height="0.601"/>
				<polygon fill="#F06722" points="41.331,9.031 42.447,10.414 42.914,10.045 41.808,8.653 				"/>
			</g>
		</g>
	</g>
</g>
<g>
	<g>
		<g>
			<g>
				<polygon fill="#F06722" points="44.925,6.142 46.142,7.438 46.52,7.092 45.253,5.845 				"/>
				<polygon fill="#F06722" points="44.439,6.586 45.577,7.951 45.957,7.606 44.766,6.287 				"/>
				<polygon fill="#F06722" points="43.901,7.005 44.993,8.408 45.385,8.102 44.262,6.724 				"/>
				<polygon fill="#F06722" points="43.358,7.42 44.405,8.856 44.8,8.558 43.725,7.143 				"/>
				<polygon fill="#F06722" points="42.791,7.819 43.808,9.277 44.208,8.994 43.171,7.551 				"/>
				<polygon fill="#F06722" points="42.217,8.215 43.208,9.689 43.611,9.415 42.604,7.951 				"/>
				<polygon fill="#F06722" points="41.632,8.603 42.607,10.088 43.011,9.82 42.024,8.342 				"/>
			</g>
		</g>
	</g>
</g>
<g>
	<g>
		<path fill="none" stroke="#F8A778" stroke-miterlimit="10" d="M58.088,7.483"/>
	</g>
</g>
<path opacity="0.9" fill="#F06722" d="M66.34,4.321c-0.246-1.193-3.051-0.868-3.953-0.838c-4.936,0.162-10.008,0.129-14.866-0.628
	c-0.298-0.046-0.818,0.058-1.304,0.223c-0.523-0.043-1.09,0.079-1.474,0.332c-0.583,0.384-1.123,0.811-1.719,1.183
	c-0.332,0.207-0.541,0.533-0.503,0.839c-2.422,2.14-5.479,3.755-7.455,6.222c-0.309,0.387,0.032,0.686,0.448,0.832
	c-0.123,0.072-0.245,0.143-0.367,0.221c-0.202,0.045-0.384,0.094-0.528,0.15c-2.307,0.898-3.253,2.987-3.868,4.885
	c-0.037,0.113-0.077,0.243-0.116,0.378c-0.141,0.391-0.245,0.782-0.306,1.171c-0.447,0.947-0.651,1.977-0.634,3.114
	c0.002,0.189,0.72,0.185,1.46,0.056c0.141,0.094,0.294,0.179,0.476,0.24c0.822,0.281,3.137-0.748,2.894-0.83
	c-0.393-0.135-0.687-0.342-0.9-0.607c0.016-0.021,0.031-0.044,0.037-0.066c0.008-0.033,0.014-0.068,0.022-0.104
	c0,0,0.001-0.001,0.002-0.001c-0.001-0.001-0.001-0.002-0.001-0.003c0.302-1.358,0.453-2.724,0.897-4.027
	c0.131-0.135,0.261-0.27,0.408-0.402c0.973-0.874,2.16-1.56,3.117-2.449c1.044-0.969,0.523-1.438-0.428-1.6
	c0.176-0.111,0.354-0.217,0.532-0.309c0.577-0.299,0.239-0.385-0.341-0.364c0.03-0.031,0.071-0.054,0.098-0.087
	c0.047-0.059,0.103-0.112,0.151-0.17c0.002-0.001,0.004-0.001,0.005-0.002c0.435-0.098,0.871-0.213,1.309-0.335
	c0.015,0.138,0.234,0.236,0.806,0.226c0.784-0.014,1.494-0.068,2.186-0.156c-0.003,0.072-0.024,0.142-0.022,0.215
	c-0.092,0.832,2.569,0.143,2.918-0.252c0.322-0.351,0.631-0.709,0.926-1.075c0.307-0.369-0.036-0.483-0.519-0.49
	c0.039-0.099,0.06-0.201,0.107-0.299c0.175-0.482-0.993-0.367-1.259-0.339c-0.295,0.031-0.585,0.071-0.872,0.117
	c-0.057,0.002-0.115,0.004-0.176,0.008c1.869-0.878,3.759-1.719,5.773-2.334c0.058,0.775,0.064,1.543,0.094,2.327
	c0.017,0.435,1.468,0.174,1.685,0.131c0.471-0.091,0.941-0.204,1.41-0.325c-0.199,0.377,0.371,0.73,1.525,0.512
	c0.043-0.008,0.096-0.018,0.145-0.026c-0.107,0.075-0.168,0.159-0.139,0.247c0.115,0.35,1.418,0.066,1.648,0.014
	c1.602-0.376,3.223-0.635,4.676-1.325C63.66,7.77,66.799,6.54,66.34,4.321z M46.977,4.835c-0.405,0.203-0.794,0.424-1.177,0.652
	c-0.038,0-0.076,0-0.115-0.001c-0.013-0.024-0.022-0.05-0.043-0.07c0.386-0.267,0.764-0.54,1.157-0.8
	c0.018-0.012,0.032-0.025,0.048-0.037c0.239,0.006,0.477,0.016,0.715,0.023C47.356,4.669,47.157,4.745,46.977,4.835z M53.529,7.745
	c-0.361,0.121-0.723,0.232-1.082,0.334c-0.01-0.437-0.031-0.874-0.049-1.309c0.604,0.018,1.207,0.027,1.811,0.04
	C53.891,7.081,53.684,7.368,53.529,7.745z M62.262,5.745c-0.172,0.087-0.334,0.178-0.457,0.275c0.068-0.261,0.096-0.535,0.043-0.836
	c-0.107-0.597-2.139-0.045-2.439,0.101c-0.494,0.237-1.018,0.481-1.555,0.727c-0.025-0.2-0.48-0.308-0.863-0.312
	c-1.582-0.017-3.162-0.064-4.74-0.111c-0.248-0.196-1.004-0.105-1.397-0.038c-0.86-0.024-1.721-0.044-2.581-0.057
	c0.342-0.204,0.691-0.401,1.054-0.583c0.157-0.078,0.234-0.158,0.276-0.232c4.052,0.172,8.097,0.41,12.162,0.195
	C62.17,5.043,62.318,5.38,62.262,5.745z"/>
<g>
	<g>
		<path fill="#F06722" d="M47.44,5.767c-0.521-0.005-1.036-0.065-1.545-0.183c0.171,0.336,0.342,0.671,0.513,1.007
			c0.25-0.405,0.5-0.81,0.75-1.215c0.726-1.175-1.46-1.073-1.983-0.855c-0.669,0.278-1.332,0.57-2,0.85
			c0.409,0.497,0.817,0.995,1.226,1.492c3.82-2.117,8.846-0.483,12.984-0.396c1.269,0.026,3.019-1.873,1.055-1.914
			C53.413,4.447,47.853,2.777,43.175,5.37c-1.764,0.978-0.188,2.082,1.226,1.492c0.669-0.278,1.332-0.57,2-0.85
			c-0.661-0.285-1.322-0.57-1.983-0.855c-0.25,0.404-0.5,0.81-0.75,1.215c-0.265,0.429,0.058,0.914,0.513,1.007
			c0.737,0.151,1.452,0.26,2.205,0.302C47.667,7.751,49.406,5.875,47.44,5.767L47.44,5.767z"/>
	</g>
</g>
<g>
	<g>
		<path fill="#F06722" d="M63.113,5.081c-1.674-0.023-3.326-0.338-5-0.363c-0.682-0.011-1.461,0.209-2.049,0.549
			c-0.477,0.275-0.39,0.541,0.146,0.549c1.673,0.025,3.325,0.34,5,0.363c0.682,0.01,1.46-0.209,2.049-0.549
			C63.735,5.355,63.65,5.089,63.113,5.081L63.113,5.081z"/>
	</g>
</g>
<g>
	<g>
		<path fill="#F06722" d="M55.094,10.695c0.738,0.023,1.25-0.132,1.881-0.513c0.526-0.318,0.728-1.093,0.162-1.473
			c-0.645-0.434-1.475-0.182-2.076,0.182c-0.042,0.025-0.084,0.051-0.126,0.076c0.231-0.109,0.464-0.219,0.695-0.328
			c-0.045,0.016-0.091,0.032-0.136,0.049c0.255-0.021,0.511-0.042,0.767-0.062c-0.052-0.002-0.104-0.004-0.155-0.005
			c-0.701-0.022-1.55,0.187-1.889,0.881C53.915,10.118,54.48,10.677,55.094,10.695L55.094,10.695z"/>
	</g>
</g>
<g>
	<g>
		<path fill="#F06722" d="M57.106,9.574c0.646,0,3.314-1.248,1.861-1.248C58.321,8.326,55.653,9.574,57.106,9.574L57.106,9.574z"/>
	</g>
</g>
<g>
	<g>
		<path fill="#F06722" d="M60.775,7.8c-0.439,0.441-0.432,0.533,0.022,0.275c0.889-0.434,1.765-0.854,2.684-1.22
			c1.275-0.509,1.896-1.292,2.769-2.29c0.31-0.355-0.045-0.487-0.383-0.521C60.094,3.469,54.315,4.261,48.526,3.47
			c-3.098-0.423-5.387,1.363-7.325,3.569c-0.629,0.716,2.161,0.351,2.632-0.186c2.062-2.349,2.334-2.199,5.122-1.864
			c2.487,0.299,4.956,0.307,7.453,0.21c0.646-0.025,6.581,0.271,6.671,0.169c-1.148,1.315-3.209,1.778-4.737,2.594
			c-0.104,0.056-0.922,0.508-0.521,0.721c0.076,0.04,0.152,0.081,0.229,0.121C58.811,9.207,61.183,8.016,60.775,7.8L60.775,7.8z"/>
	</g>
</g>
<g>
	<g>
		<path fill="#F06722" d="M47.5,8.216c0.873-0.152,1.84-0.403,2.406-1.143c0.391-0.51,0.565-1.16,1.059-1.588
			c-0.924,0.15-1.848,0.301-2.772,0.452c0.05,0.093,0.034,0.176-0.049,0.248c0.961-0.207,1.923-0.413,2.884-0.62
			c-0.021-0.346,0.122-0.534-0.11-0.838c-0.133-0.174-0.625-0.16-0.812-0.151c-0.209,0.011-1.564,0.209-0.537,0.108
			c-0.085-0.01-0.17-0.021-0.255-0.034c0.106,0.016,0.09,0.008-0.046-0.023c-0.211-0.059-0.419-0.121-0.635-0.165
			c-0.725-0.147-1.4-0.031-2.099,0.205C46.33,4.736,45.246,5.239,45.7,5.601c0.473,0.376,1.397,0.063,1.883-0.102
			c0.026-0.009,0.051-0.017,0.077-0.025c-0.377,0.081-0.754,0.163-1.131,0.244c-0.303,0.03,0.151,0.057,0.26,0.088
			c0.226,0.065,0.449,0.114,0.68,0.155c0.356,0.063,0.728,0.062,1.086,0.026c0.142-0.003,0.282-0.02,0.42-0.051
			c0.13-0.028,0.26-0.056,0.39-0.084c0.352-0.104,0.109-0.087-0.729,0.048c-0.146-0.046-0.291-0.092-0.437-0.138
			c0.024,0.032-0.074,0.503-0.069,0.58c0.023,0.397,1.01,0.266,1.203,0.234c0.583-0.095,1.357-0.312,1.682-0.854
			c0.109-0.184,0.127-0.354,0.075-0.562c-0.099-0.4-0.947-0.275-1.203-0.234c-0.58,0.094-1.125,0.302-1.57,0.687
			c-0.312,0.27-0.525,0.622-0.724,0.98c-0.098,0.176-0.19,0.354-0.29,0.529c-0.037,0.068-0.081,0.132-0.132,0.19
			c1.013-0.318,1.286-0.433,0.82-0.343c-0.5,0.088-1.463,0.3-1.682,0.854C46.097,8.367,47.29,8.252,47.5,8.216L47.5,8.216z"/>
	</g>
</g>
<g>
	<g>
		<path fill="#F06722" d="M45.27,10.219c-1.01,0.296-2.384,0.08-3.434,0.05c0.284,0.172,0.568,0.343,0.852,0.514
			c0.075-0.834,0.463-1.538,0.708-2.329c0.27-0.869-2.588-0.42-2.882,0.424c-0.129,0.371-0.25,0.744-0.391,1.111
			c0.487,0.067,0.396,0.11-0.275,0.129c-0.221,0.035-0.441,0.078-0.659,0.127c-0.841,0.173-1.665,0.419-2.333,0.976
			c-0.258,0.215-0.516,0.657-0.027,0.804c0.09,0.027,0.181,0.054,0.271,0.081c0.098-0.326,0.196-0.651,0.295-0.978
			c0.393-0.169,0.353-0.226-0.121-0.17c0.184,0.295,0.368,0.59,0.551,0.885c1.683-1.564,3.787-2.82,5.277-4.559
			c-0.889,0.018-1.779,0.035-2.668,0.053c0.167,0.275,0.084,0.399-0.247,0.372c-0.248,0.065-0.484,0.158-0.709,0.28
			c-0.563,0.311-1.045,0.838-1.58,1.207c-0.948,0.655-2.157,1.646-2.818,2.594c-0.685,0.981,2.194,0.626,2.668-0.053
			c0.957-1.369,2.735-2.279,3.938-3.441c-0.39,0.214-0.78,0.427-1.17,0.64c1.12-0.287,1.933-0.653,2.587-1.651
			c0.703-1.072-2.198-0.495-2.668,0.053c-1.359,1.584-3.35,2.757-4.89,4.188c-0.612,0.568-0.103,0.866,0.551,0.885
			c1.115,0.03,2.046-0.112,3.046-0.615c0.307-0.154,0.957-0.779,0.295-0.978c-0.09-0.027-0.181-0.054-0.271-0.081
			c-0.009,0.268-0.018,0.535-0.027,0.804c0.136-0.113,1.123-0.158,1.403-0.214c0.546-0.108,0.979-0.286,1.451-0.578
			c0.851-0.525,1.093-1.397,1.404-2.293c-0.96,0.142-1.921,0.282-2.882,0.424c-0.246,0.79-0.634,1.494-0.708,2.329
			c-0.042,0.477,0.491,0.503,0.852,0.514c1.643,0.047,3.35,0.19,4.941-0.274C47.297,10.947,46.983,9.718,45.27,10.219L45.27,10.219z
			"/>
	</g>
</g>
<g>
	<g>
		<path fill="#F06722" d="M47.745,3.004c0.082-0.015,0.164-0.029,0.246-0.044c-0.44,0.031-0.18,0.246,0.779,0.644
			c0.266-0.41-0.042-0.815-0.481-0.888c-0.651-0.108-1.263-0.125-1.913,0.013c-0.228,0.048-0.44,0.127-0.66,0.206
			c-0.061,0.023-0.121,0.046-0.182,0.069c0.286-0.128,0.592-0.16,0.917-0.098c0.155,0.082,0.311,0.163,0.465,0.245
			c0.01,0.028,0.02,0.057,0.029,0.085c-0.253-0.607-1.143-0.532-1.659-0.395c-0.377,0.102-1.488,0.575-1.239,1.172
			c0.258,0.619,1.001,0.666,1.588,0.589c0.381-0.051,0.711-0.17,1.073-0.296c0.116-0.04,0.454-0.13-0.065,0.021
			c-0.325,0.094-0.378,0-0.107,0.045c-0.161-0.296-0.321-0.592-0.481-0.888c-0.253,0.391-0.238,0.878,0.257,1.063
			c0.604,0.227,1.234,0.174,1.852,0.022c0.448-0.11,1.406-0.549,1.239-1.172C49.233,2.763,48.193,2.895,47.745,3.004L47.745,3.004z"
			/>
	</g>
</g>
<line opacity="0.6" fill="none" stroke="#F16623" stroke-width="3" stroke-miterlimit="10" x1="66.376" y1="42.933" x2="59.847" y2="69.224"/>
</svg>
