<?xml version="1.0" encoding="utf-8"?>
<!-- Generator: Adobe Illustrator 16.0.4, SVG Export Plug-In . SVG Version: 6.00 Build 0)  -->
<!DOCTYPE svg PUBLIC "-//W3C//DTD SVG 1.1//EN" "http://www.w3.org/Graphics/SVG/1.1/DTD/svg11.dtd">
<svg version="1.1" id="Layer_1" xmlns="http://www.w3.org/2000/svg" xmlns:xlink="http://www.w3.org/1999/xlink" x="0px" y="0px"
	 width="100px" height="100px" viewBox="0 0 100 100" enable-background="new 0 0 100 100" xml:space="preserve">
<g>
	<g>
		<path fill="#F06722" d="M45.311,81.776c0.262-3.449,1.067-6.827,1.476-10.26c0.285-2.398-3.468-2.371-3.75,0
			c-0.408,3.436-1.213,6.805-1.476,10.26C41.377,84.189,45.128,84.172,45.311,81.776L45.311,81.776z"/>
	</g>
</g>
<g>
	<g>
		<path fill="#F06722" d="M46.41,29.794c11.49,1.524,10.4,17.906,9.873,26.328c-0.291,4.657-0.875,9.295-1.303,13.941
			c-0.385,4.189-0.602,8.328-0.398,12.534c0.121,2.515-0.072,4.563-2.289,6.21c-4.125,3.062-6.731-2.08-7.012-5.277
			c-0.21-2.39-3.961-2.41-3.75,0c0.709,8.079,8.378,13.311,14.855,6.642c3.049-3.139,1.809-8.783,1.836-12.618
			c0.039-5.111,0.768-10.244,1.285-15.327c1.227-12.048,3.406-33.993-13.098-36.182C44.019,25.727,44.049,29.481,46.41,29.794
			L46.41,29.794z"/>
	</g>
</g>
<path fill="none" stroke="#F06722" stroke-miterlimit="10" d="M44.199,86.165c0.207,1.598,0.566,4.83,2.273,5.283"/>
<g>
	<path fill="#F16623" d="M46.188,33.987c3.202,0.48,4.52-0.637,5.834,2.236c0.566,1.754,0.191,3.672,0.377,5.426
		c0.379,4.468,3.012,9.736,8.471,10.056c2.447,0.158,18.773-7.542,10.598,3.261c-1.551,2.051-10.221,1.845-12.48,1.687
		C54.094,56.332,48.071,52.98,46,49.311c-2.07-3.033-5.836-12.927,0-14.045"/>
	<g>
		<path fill="#F06722" d="M46.188,35.237c3.535,0.348,4.85,2.721,4.961,6.412c0.051,1.669,0.596,3.32,1.197,4.854
			c1.016,2.592,2.936,4.52,5.396,5.735c3.643,1.801,7.773-0.525,11.336-1.404c0.955-0.235,1.91-0.381,2.895-0.388
			c0.35,0.735,0.26,1.391-0.266,1.967c-0.738,1.338-1.855,2.236-3.33,2.606c-2.965,0.743-6.357,0.561-9.391,0.383
			c-5.158-0.302-10.155-3.513-12.645-7.966c-1.393-2.492-4.369-9.662-0.009-10.965c1.541-0.461,0.884-2.874-0.665-2.411
			c-8.399,2.513-2.146,15.191,1.922,19.012c3.954,3.713,9.36,4.883,14.588,4.925c4.041,0.032,8.566,0.094,11.105-3.419
			c0.965-1.334,2.996-4.938,0.594-6.129c-2.549-1.263-5.906,0.042-8.426,0.784c-1.412,0.416-2.811,0.893-4.25,1.203
			c-5.467,1.176-7.494-6.858-7.607-10.582c-0.182-6.007-2.086-6.591-7.406-7.116C44.583,32.579,44.599,35.08,46.188,35.237
			L46.188,35.237z"/>
	</g>
</g>
<ellipse fill="#F06722" stroke="#F06722" stroke-width="2" stroke-miterlimit="10" cx="53.611" cy="16.022" rx="10.729" ry="8.858"/>
<g>
	<g>
		<path fill="#F06722" d="M39.48,35.785c1.915-2.538,4.383-5.003,7.436-6.081c2.264-0.799,1.29-4.423-0.997-3.616
			c-4.061,1.434-7.128,4.426-9.677,7.804C34.785,35.824,38.043,37.689,39.48,35.785L39.48,35.785z"/>
	</g>
</g>
<g>
	<g>
		<path fill="#F06722" d="M47.98,27.784c-1.19-0.175-2.475-0.804-3.432,0.278c-0.532,0.601,0.349,1.489,0.884,0.884
			c0.536-0.606,1.546-0.055,2.216,0.043C48.437,29.104,48.776,27.9,47.98,27.784L47.98,27.784z"/>
	</g>
</g>
<g>
	<g>
		<path fill="#F06722" d="M37.227,57.889c-8.949,8.305-15.551,20.36-8.846,32.058c0.328,0.571,0.963,0.929,1.619,0.929
			c4.327,0,5.195-1.101,7.92-4.67c3.352-4.391,6.108-9.113,8.649-14.01c1.112-2.143-2.124-4.04-3.238-1.893
			c-1.752,3.376-3.609,6.671-5.671,9.869c-1.141,1.77-2.418,3.435-3.75,5.064c-2.254,2.76-3.078,1.929-4.168-1.274
			c-2.98-8.757,4.175-17.89,10.136-23.421C41.655,58.893,38.997,56.247,37.227,57.889L37.227,57.889z"/>
	</g>
</g>
<g>
	<g>
		<path fill="#F06722" d="M38.342,51.868c-0.008-4.972-0.192-10.044,0.972-14.913c0.562-2.351-3.054-3.348-3.616-0.997
			c-1.245,5.205-1.114,10.595-1.106,15.91C34.596,54.286,38.346,54.286,38.342,51.868L38.342,51.868z"/>
	</g>
</g>
<g>
	<g>
		<path fill="#F06722" d="M36.837,33.322c-2.516,8.051-4.175,16.896,0.467,24.5c1.677,2.747,6.002,0.236,4.317-2.523
			c-3.921-6.423-2.065-13.919,0.037-20.647C42.623,31.565,37.795,30.255,36.837,33.322L36.837,33.322z"/>
	</g>
</g>
<g>
	<g>
		<path fill="#F06722" d="M69.815,46.033c-0.009,6.411-0.11,12.821,0,19.231c0.027,1.61,2.528,1.613,2.5,0
			c-0.11-6.41-0.009-12.82,0-19.231C72.317,44.421,69.817,44.421,69.815,46.033L69.815,46.033z"/>
	</g>
</g>
<ellipse fill="none" stroke="#F06722" stroke-width="0.5" stroke-miterlimit="10" cx="71.037" cy="72.479" rx="8.908" ry="9.363"/>
<g>
	<g>
		<path fill="#F06722" d="M68.909,64.646c-2.027,2.548-4.188,5.188-4.397,8.557c-0.084,1.358,1.665,1.545,2.329,0.631
			c1.816-2.498,3.169-5.312,3.292-8.434c0.037-0.936-1.094-1.574-1.881-1.079c-2.808,1.766-4.152,4.978-5.125,8.029
			c-0.387,1.212,1.228,2.082,2.089,1.216c2.338-2.35,4.843-4.865,5.522-8.224c0.143-0.701-0.195-1.303-0.873-1.537
			c-6.288-2.177-7.374,7.067-7.283,11.263c0.171,7.82,7.669,10.836,14.244,7.541c8.619-4.319,4.67-15.125-1.33-19.588
			c-6.527-4.855-5.482,8.387-3.791,11.593c0.288,0.547,1.186,0.854,1.71,0.448c1.916-1.48,2.458-3.625,4.024-5.397
			c-0.696-0.184-1.393-0.367-2.089-0.552c0.565,1.517,0.646,3.094,0.91,4.682c0.212,1.276,2.094,1.111,2.41,0
			c0.087-0.303,0.174-0.606,0.26-0.91c-0.818-0.11-1.637-0.222-2.455-0.332c0.216,1.908,0.443,3.965-0.414,5.757
			c-1.675,3.5-7.068-1.211-7.703-3.128c-1.331-4.019,1.811-8.752,4.789-11.108c-0.696-0.184-1.393-0.367-2.089-0.552
			c1.329,4.08-0.858,8.363-0.694,12.542c0.052,1.32,1.605,1.604,2.329,0.631c1.036-1.394,1.752-2.912,2.601-4.421
			c-0.762-0.1-1.522-0.199-2.284-0.299c0.271,1.077,0.438,2.614,0.65,3.771c0.238,1.302,2.051,1.08,2.41,0
			c0.087-0.26,0.174-0.52,0.26-0.78c-0.818-0.11-1.637-0.222-2.455-0.332c0.092,1.305,0.125,2.594,0.13,3.901
			c0.005,1.355,1.616,1.557,2.329,0.631c0.511-0.663,0.896-1.35,1.301-2.08c-0.762-0.321-1.522-0.642-2.284-0.963
			c-0.114,0.48-0.244,0.957-0.391,1.43c-0.335,1.145,1.27,2.206,2.089,1.216c0.986-1.191,1.901-2.41,2.991-3.511
			c-0.696-0.405-1.393-0.811-2.089-1.216c-0.044,0.13-0.087,0.26-0.13,0.391c0.762-0.1,1.522-0.199,2.284-0.299
			c-0.984-1.894-1.007-4.058-1.951-5.982c-0.771-1.571-3.034-2.361-4.479-3.049c-0.468-0.223-1.149-0.263-1.515,0.195
			c-1.334,1.673-1.729,3.402-1.361,5.507c0.135,0.771,1.206,1.173,1.836,0.747c2.039-1.378,3.306-3.33,4.935-5.137
			c0.427-0.474,0.539-1.311,0-1.768c-0.946-0.803-1.595-1.78-2.594-2.536c-0.608-0.461-1.714,0.002-1.836,0.747
			c-0.818,4.968,3.766,9.196,2.966,14.025c-0.312,1.877-2.962,2.183-4.42,2.343c-2.896,0.317,0.556-4.129,0.796-4.467
			c1.365-1.918,1.931-3.827,1.726-6.188c-0.323-3.712-4.417-5.76-7.186-2.674c-3.256,3.631-2.156,9.137-0.774,13.36
			c0.355,1.088,1.65,1.173,2.284,0.299c2.176-2.999,5.128-6.12,5.373-9.994c0.05-0.788-0.84-1.453-1.582-1.205
			c-0.722,0.24-1.186,0.432-1.859,0.776c0.57,0.149,1.14,0.299,1.71,0.448c-0.398-0.668-0.745-1.361-1.04-2.081
			c-0.311-0.687-1.49-0.852-1.963-0.253c-1.36,1.722-1.901,3.599-2.272,5.754c-0.228,1.318,1.574,2.296,2.284,0.963
			c0.592-1.11,1.125-2.202,1.82-3.251c-0.72,0-1.438,0-2.158,0c0.13,0.217,0.26,0.434,0.391,0.65c0.507,0.845,1.635,0.767,2.158,0
			c0.333-0.458,0.637-0.935,0.91-1.431c-0.776-0.21-1.553-0.421-2.329-0.631c0.096,2.017,0.145,3.481,2.219,4.196
			c-0.307-0.401-0.612-0.804-0.918-1.205c0.151,1.197,0.08,2.387-0.216,3.568c-0.152,1.082,1.186,2.299,2.089,1.216
			c0.217-0.26,0.434-0.521,0.65-0.78c-0.696-0.405-1.393-0.811-2.089-1.216c-0.153,0.67-0.233,1.209-0.305,1.893
			c-0.07,0.679,0.622,1.25,1.25,1.25c0.087,0,0.173,0,0.26,0c-0.401-0.527-0.804-1.055-1.205-1.582
			c-0.4,0.52-0.802,1.039-1.202,1.56c-1.769,0.975-1.914,0.579-0.435-1.188c0.21-0.776,0.421-1.553,0.631-2.329
			c-1.224-0.19-2.033-0.808-2.432-1.852c-0.654,0.505-1.309,1.01-1.963,1.515c2.07,2.508,4.235,4.761,7.574,5.263
			c0-0.804,0-1.606,0-2.41c-4.623,1.601-10.715-3.88-7.562-8.438c-0.776-0.21-1.553-0.421-2.329-0.631
			c0.303,4.743,0.691,9.331,6.252,10.214c4.769,0.756,6.177-4.126,5.176-7.814c-0.421-1.555-2.833-0.894-2.41,0.664
			c0.379,1.396,0.652,2.816-0.363,4.106c-1.482,1.881-4.507-0.096-5.311-1.407c-0.955-1.557-0.73-3.997-0.844-5.763
			c-0.081-1.272-1.614-1.665-2.329-0.631c-2.224,3.213-2.015,5.585,0.486,8.533c2.661,3.137,5.855,4.977,9.897,3.576
			c1.047-0.362,1.33-2.21,0-2.41c-2.915-0.439-4.688-2.463-6.471-4.62c-0.928-1.123-2.645,0.315-1.963,1.515
			c1.054,1.856,2.306,3.388,4.59,3.09c1.158-0.151,1.8-1.638,0.631-2.329c-2.949-1.745-8.752,0.533-6.369,4.6
			c2.071,3.537,8.569,1.548,9.154-2.148c0.125-0.789-0.324-1.582-1.205-1.582c-0.087,0-0.173,0-0.26,0
			c0.417,0.417,0.833,0.833,1.25,1.25c0.071-0.409,0.144-0.818,0.215-1.229c0.258-1.127-1.235-2.24-2.089-1.216
			c-0.217,0.26-0.434,0.521-0.65,0.78c0.696,0.405,1.393,0.811,2.089,1.216c0.203-1.44,0.392-2.771,0.306-4.232
			c-0.035-0.588-0.362-1.014-0.918-1.205c-0.294-0.564-0.421-1.16-0.383-1.786c-0.058-1.223-1.674-1.731-2.329-0.631
			c-0.274,0.496-0.577,0.973-0.91,1.431c0.72,0,1.438,0,2.158,0c-0.13-0.217-0.26-0.434-0.391-0.65
			c-0.502-0.837-1.644-0.776-2.158,0c-0.696,1.049-1.229,2.141-1.82,3.251c0.762,0.321,1.522,0.642,2.284,0.963
			c0.282-1.631,0.562-3.3,1.63-4.65c-0.654-0.084-1.309-0.169-1.963-0.253c0.294,0.72,0.641,1.413,1.04,2.081
			c0.34,0.622,1.117,0.751,1.71,0.448c0.421-0.175,0.842-0.35,1.262-0.524c-0.527-0.401-1.055-0.804-1.582-1.205
			c-0.204,3.231-3.216,6.229-5.031,8.732c0.762,0.1,1.522,0.199,2.284,0.299c-0.785-2.402-1.271-4.811-1.223-7.35
			c0.033-0.907,0.239-1.773,0.619-2.598c0.769-1.663,1.951-1.821,3.55-0.473c0.546,1.563,0.011,3.325-0.82,4.655
			c-0.985,1.578-5.912,7.932-1.062,8.732c3.577,0.592,8.225-0.576,8.9-4.652c0.777-4.692-3.829-8.794-3.072-13.387
			c-0.611,0.249-1.224,0.498-1.836,0.747c0.806,0.61,1.32,1.494,2.088,2.146c0-0.589,0-1.179,0-1.768
			c-1.459,1.619-2.591,3.504-4.429,4.746c0.612,0.249,1.225,0.498,1.836,0.747c0.24-1.025,0.479-2.05,0.719-3.075
			c-0.505,0.065-1.01,0.131-1.515,0.195c1.917,0.912,3.52,1.4,4.223,3.839c0.437,1.512,0.576,2.883,1.312,4.296
			c0.528,1.017,1.963,0.668,2.284-0.299c0.044-0.13,0.087-0.26,0.13-0.391c0.403-1.212-1.234-2.078-2.089-1.216
			c-1.09,1.101-2.005,2.319-2.991,3.511c0.696,0.405,1.393,0.811,2.089,1.216c0.146-0.472,0.276-0.948,0.391-1.43
			c0.349-1.357-1.585-2.224-2.284-0.963c-0.405,0.73-0.791,1.417-1.301,2.08c0.776,0.21,1.553,0.421,2.329,0.631
			c-0.005-1.308-0.038-2.597-0.13-3.901c-0.1-1.41-2.001-1.698-2.455-0.332c-0.087,0.26-0.174,0.52-0.26,0.78
			c0.804,0,1.606,0,2.41,0c-0.29-1.587-0.285-2.327-0.65-3.771c-0.264-1.047-1.758-1.233-2.284-0.299
			c-0.85,1.509-1.564,3.027-2.601,4.421c0.776,0.21,1.553,0.421,2.329,0.631c-0.176-4.459,2.042-8.797,0.604-13.206
			c-0.313-0.963-1.348-1.138-2.089-0.552c-4.892,3.87-8.367,12.297-3.091,17.264c2.15,2.024,6.056,2.962,8.658,1.404
			c2.651-1.588,2.315-5.885,2.028-8.421c-0.151-1.342-2.044-1.774-2.455-0.332c-0.087,0.303-0.174,0.606-0.26,0.91
			c0.804,0,1.606,0,2.41,0c-0.275-1.663-0.319-3.101-0.91-4.682c-0.304-0.815-1.414-1.315-2.089-0.552
			c-1.323,1.496-1.938,3.785-3.519,5.007c0.57,0.149,1.14,0.299,1.71,0.448c-0.917-1.739-1.155-3.649-1.22-5.592
			c-0.011-0.317,0.387-3.429,0.81-3.148c1.166,0.772,2.187,1.704,3.139,2.723c4.648,4.971,3.119,12.337-3.589,14.058
			c-5.598,1.436-8.014-3.158-7.933-7.793c0.04-2.264,0.618-8.599,4.131-7.384c-0.291-0.513-0.582-1.024-0.873-1.537
			c-0.596,2.939-2.838,5.067-4.88,7.12c0.696,0.405,1.393,0.811,2.089,1.216c0.759-2.379,1.762-5.142,3.977-6.535
			c-0.627-0.359-1.254-0.72-1.881-1.079c-0.105,2.683-1.406,5.047-2.95,7.172c0.776,0.21,1.553,0.421,2.329,0.631
			c0.161-2.598,2.118-4.845,3.665-6.789C71.67,65.167,69.913,63.385,68.909,64.646L68.909,64.646z"/>
	</g>
</g>
<g>
	<g>
		<path fill="#F06722" d="M69.755,59.568c-1.63,2.794-4.059,4.65-5.21,7.753c-1.338,3.606-1.421,7.655-0.898,11.415
			c0.221,1.592,2.63,0.911,2.41-0.664c-0.478-3.437-0.107-6.78,0.899-10.086c0.86-2.825,3.5-4.657,4.957-7.156
			C72.728,59.435,70.566,58.177,69.755,59.568L69.755,59.568z"/>
	</g>
</g>
<g>
	<g>
		<path fill="#F06722" d="M67.414,60.738c-2.306,3.363-6.247,6.928-6.586,11.261c-0.463,5.906,3.375,9.519,6.456,14.059
			c0.899,1.325,3.066,0.076,2.158-1.262c-2.533-3.734-5.869-6.775-6.211-11.564c-0.3-4.199,4.149-8.033,6.341-11.231
			C70.486,60.666,68.319,59.418,67.414,60.738L67.414,60.738z"/>
	</g>
</g>
<g>
	<g>
		<path fill="#F06722" d="M71.151,61.014c5.148,0.896,7.858,6.242,8.867,10.845c1.571,7.17-1.947,13-9.575,13.229
			c0.359,0.627,0.72,1.254,1.079,1.881c0.087-0.13,0.174-0.261,0.26-0.391c0.896-1.347-1.271-2.597-2.158-1.262
			c-0.087,0.13-0.174,0.261-0.26,0.391c-0.523,0.786,0.164,1.908,1.079,1.881c7.107-0.213,12.064-4.329,12.413-11.471
			c0.336-6.882-3.472-16.195-11.041-17.513C70.239,58.329,69.565,60.737,71.151,61.014L71.151,61.014z"/>
	</g>
</g>
<g>
	<g>
		<path fill="#F06722" d="M75.802,78.821c-1.237,1.225-2.509,2.405-3.908,3.445c-0.956,0.711-0.702,2.308,0.631,2.329
			c1.577,0.026,2.962-0.714,4.493-0.955c-0.32-0.762-0.642-1.522-0.963-2.284c-2.492,1.271-4.893,1.883-7.691,1.91
			c-0.927,0.009-1.586,1.062-1.079,1.881c0.224,0.361,0.491,0.789,0.894,0.983c0.412,0.199,1.216,0.29,1.446,0.707
			c0.249-0.612,0.498-1.225,0.747-1.836c-0.4,0.22-0.828,0.263-1.286,0.13c-1.564-0.39-2.229,2.021-0.664,2.41
			c0.922,0.229,1.721,0.215,2.614-0.13c0.758-0.291,1.166-1.077,0.747-1.836c-0.22-0.397-0.479-0.822-0.894-1.052
			c-0.335-0.186-1.251-0.322-1.446-0.639c-0.359,0.627-0.72,1.254-1.079,1.881c3.24-0.032,6.072-0.781,8.953-2.252
			c1.361-0.694,0.337-2.489-0.963-2.284c-1.294,0.203-2.509,0.887-3.829,0.865c0.21,0.776,0.421,1.553,0.631,2.329
			c1.573-1.169,3.021-2.457,4.414-3.836C78.717,79.453,76.948,77.687,75.802,78.821L75.802,78.821z"/>
	</g>
</g>
<g>
	<g>
		<path fill="#F06722" d="M69.613,85.166c-0.115-3.278-2.824-13.329,0.811-15.176c-0.612-0.249-1.225-0.498-1.836-0.747
			c0.586,2.547,0.351,4.471-0.13,7.009c0.818,0.11,1.637,0.222,2.455,0.332c-0.531-5.517,1.057-10.679,2.556-15.923
			c-0.804,0-1.606,0-2.41,0c0.071,0.583,0.144,1.165,0.216,1.748c0.818-0.11,1.637-0.222,2.455-0.332
			c-0.043-0.217-0.087-0.434-0.131-0.649c-0.318-1.58-2.728-0.909-2.41,0.664c0.043,0.217,0.087,0.434,0.131,0.649
			c0.277,1.378,2.561,1.073,2.455-0.332c-0.066-0.887-0.148-1.542-0.306-2.412c-0.229-1.269-2.09-1.12-2.41,0
			c-1.563,5.468-3.198,10.842-2.646,16.587c0.126,1.306,2.174,1.816,2.455,0.332c0.539-2.845,0.785-5.494,0.13-8.337
			c-0.189-0.826-1.146-1.098-1.836-0.747c-5.29,2.687-2.207,12.838-2.049,17.334C67.17,86.773,69.67,86.779,69.613,85.166
			L69.613,85.166z"/>
	</g>
</g>
<g>
	<g>
		<path fill="#F06722" d="M70.463,58.47c-1.459,0.873-2.937,1.553-3.833,3.063c-0.515,0.868-0.756,1.932-1.107,2.868
			c-0.556,1.479-1.176,2.918-1.615,4.438c-0.449,1.552,1.964,2.21,2.41,0.664c0.613-2.119,1.538-4.128,2.248-6.215
			c0.484-1.422,1.97-1.949,3.159-2.661C73.106,59.802,71.85,57.64,70.463,58.47L70.463,58.47z"/>
	</g>
</g>
<g>
	<g>
		<path fill="#F06722" d="M65.398,62.046c-3.832,3.854-3.617,8.544-4.482,13.556c-0.272,1.576,2.137,2.251,2.41,0.664
			c0.77-4.452,0.421-9.014,3.84-12.452C68.304,62.67,66.536,60.901,65.398,62.046L65.398,62.046z"/>
	</g>
</g>
<g>
	<g>
		<path fill="#F06722" d="M68.695,86.042c-2.821-1.021-3.378-6.994-3.809-9.53c-1.012-5.962,0.724-12.018,5.53-15.819
			c1.265-1-0.518-2.756-1.768-1.768c-5.07,4.01-7.233,10.572-6.355,16.928c0.562,4.071,1.217,10.963,5.737,12.6
			C69.551,89.003,70.199,86.586,68.695,86.042L68.695,86.042z"/>
	</g>
</g>
<g>
	<g>
		<path fill="#F06722" d="M60.396,71.44c-0.92,3.935-1.52,9.646,1.492,12.919c3.395,3.69,8.539,5.545,13.491,4.485
			c8.307-1.777,8.321-14.339,6.413-20.525c-0.474-1.536-2.887-0.881-2.41,0.664c1.534,4.976,1.693,11.877-2.053,15.943
			c-2.97,3.222-8.375,1.528-11.522-0.387c-4.285-2.607-3.993-8.188-3.001-12.436C63.173,70.536,60.762,69.87,60.396,71.44
			L60.396,71.44z"/>
	</g>
</g>
<g>
	<g>
		<path fill="#F06722" d="M60.006,77.826c0.889,2.385,1.454,5.107,4.124,6.074c1.52,0.551,2.168-1.865,0.664-2.41
			c-1.538-0.558-1.881-2.996-2.378-4.328C61.858,75.665,59.441,76.312,60.006,77.826L60.006,77.826z"/>
	</g>
</g>
<text transform="matrix(1 0 0 1 68.3633 77.4941)" stroke="#F1F2F2" stroke-miterlimit="10" font-family="'MyriadPro-Regular'" font-size="12">$</text>
</svg>
