<?xml version="1.0" encoding="utf-8"?>
<!-- Generator: Adobe Illustrator 16.0.4, SVG Export Plug-In . SVG Version: 6.00 Build 0)  -->
<!DOCTYPE svg PUBLIC "-//W3C//DTD SVG 1.1//EN" "http://www.w3.org/Graphics/SVG/1.1/DTD/svg11.dtd">
<svg version="1.1" id="Layer_1" xmlns="http://www.w3.org/2000/svg" xmlns:xlink="http://www.w3.org/1999/xlink" x="0px" y="0px"
	 width="100px" height="100px" viewBox="0 0 100 100" enable-background="new 0 0 100 100" xml:space="preserve">
<g>
	<g>
		<path fill="#F06722" d="M50.705,78.925c0.463-5.153,2.302-10.084,1.613-15.309c-0.312-2.361-4.065-2.393-3.75,0
			c0.684,5.188-1.152,10.177-1.613,15.309C46.738,81.334,50.49,81.313,50.705,78.925L50.705,78.925z"/>
	</g>
</g>
<g>
	<g>
		<path fill="#F06722" d="M52.174,27.212c12.545,1.465,11.999,16.98,11.303,26.467c-0.379,5.161-1.109,10.299-1.628,15.447
			c-0.4,3.973-0.328,7.854-0.231,11.833c0.185,7.563-10.25,7.152-10.944-0.289c-0.223-2.387-3.975-2.408-3.75,0
			c0.821,8.799,9.535,12.78,16.299,6.614c3.268-2.979,1.963-8.774,1.995-12.561c0.042-5.042,0.849-10.109,1.426-15.116
			c1.504-13.058,3.035-34.101-14.469-36.146C49.774,23.182,49.802,26.935,52.174,27.212L52.174,27.212z"/>
	</g>
</g>
<g>
	<g>
		<path fill="#F06722" d="M34.836,49.608c5.231,1.886,10.4,3.805,15.759,5.3c6.157,1.718-1.438,6.898-3.507,8.486
			c-3.71,2.845-7.46,4.728-11.965,2.572c-3.75-1.795-6.485-4.942-10.541-6.215c-0.81-0.194-1.618-0.396-2.425-0.603
			c-0.038-1.474-0.076-2.947-0.114-4.421c0.991-0.807,2.059-1.49,3.203-2.049c2.606-1.406,5.502-2.313,8.171-3.611
			c0.725-0.353,0.091-1.43-0.631-1.079c-3.152,1.533-16.579,5.247-13.079,11.209c0.384,0.653,1.482,0.925,2.118,1.156
			c2.323,0.842,4.522,1.271,6.662,2.623c3.108,1.965,5.679,4.43,9.359,5.26c3.606,0.812,7.151-1.849,9.874-3.765
			c1.89-1.33,7.099-4.369,7.376-6.813c0.29-2.544-2.108-3.283-4.168-3.958c-5.274-1.729-10.527-3.414-15.759-5.299
			C34.408,48.129,34.083,49.337,34.836,49.608L34.836,49.608z"/>
	</g>
</g>
<g>
	<g>
		<path fill="#F06722" d="M31.822,48.529c0.757-6.8,6.309-11.647,11.185-15.866c0.611-0.528-0.277-1.408-0.884-0.884
			c-5.187,4.486-10.75,9.553-11.551,16.75C30.483,49.33,31.734,49.321,31.822,48.529L31.822,48.529z"/>
	</g>
</g>
<path fill="none" stroke="#F06722" stroke-miterlimit="10" d="M49.688,83.291c0.233,1.59,0.636,4.806,2.554,5.259"/>
<path fill="none" stroke="#F06722" stroke-miterlimit="10" d="M52.242,88.55c0,0-0.639,0-1.427,0"/>
<g>
	<path fill="#F16623" d="M51.924,30.743c3.597,0.477,5.077-0.635,6.557,2.224c0.635,1.746,0.213,3.652,0.424,5.399
		c0.424,4.446,3.383,9.687,9.518,10.005c2.75,0.158,6.557,0.158,5.287,3.175c-1.056,2.382-4.863,1.906-7.402,1.747
		c-5.5-0.317-12.268-3.652-14.594-7.304c-2.327-3.018-6.558-12.863,0-13.975"/>
	<g>
		<path fill="#F06722" d="M51.924,31.993c1.094,0.101,2.167,0.145,3.265,0.159c3.04,0.042,2.282,4.853,2.511,6.546
			c0.296,2.196,0.98,4.109,2.118,6.003c2.328,3.875,6.362,4.756,10.527,5.037c3.073,0.207,1.057,2.333-0.858,2.451
			c-1.761,0.107-3.742-0.159-5.455-0.452c-3.698-0.632-7.29-2.486-10.066-4.979c-2.788-2.502-7.534-12.109-1.92-13.539
			c1.562-0.398,0.898-2.809-0.664-2.411c-6.75,1.719-4.221,9.612-1.88,14.045c3.657,6.924,13.772,11.123,21.396,9.725
			c2.379-0.437,4.961-2.121,4.18-4.963c-0.852-3.097-6.554-2.343-8.759-2.87c-6.782-1.621-5.499-9.146-6.632-14.11
			c-0.795-3.489-5.222-2.908-7.762-3.141C50.318,29.346,50.333,31.847,51.924,31.993L51.924,31.993z"/>
	</g>
</g>
<path fill="#F06722" stroke="#F06722" stroke-width="2" stroke-miterlimit="10" d="M60.265,4.686
	c-6.657,0-12.055,3.946-12.055,8.814s5.398,8.814,12.055,8.814c6.661,0,12.056-3.947,12.056-8.814S66.926,4.686,60.265,4.686z"/>
<g>
	<g>
		<path fill="#F06722" d="M43.891,33.547c2.383-2.792,5.229-5.307,8.789-6.425c2.299-0.722,1.317-4.343-0.996-3.616
			c-4.174,1.311-7.635,4.097-10.444,7.39C39.679,32.724,42.319,35.39,43.891,33.547L43.891,33.547z"/>
	</g>
</g>
<g>
	<g>
		<path fill="#F06722" d="M53.751,25.176c-1.272-0.166-2.557-0.752-3.614,0.301c-0.572,0.569,0.312,1.453,0.884,0.884
			c0.645-0.641,1.95-0.037,2.73,0.065C54.549,26.53,54.539,25.279,53.751,25.176L53.751,25.176z"/>
	</g>
</g>
<g>
	<g>
		<path fill="#F06722" d="M48.2,63.047c-6.831,4.196-14.359,9.97-13.784,18.868c0.18,2.792,1.935,6.291,5.128,6.436
			c4.177,0.188,7.42-2.66,10.363-5.288c1.807-1.614-0.854-4.257-2.651-2.652c-1.844,1.647-3.684,3.244-6.042,4.105
			c-4.928,1.801-2.473-7.266-2.028-8.246c2.037-4.497,6.873-7.506,10.907-9.984C52.148,65.021,50.266,61.777,48.2,63.047
			L48.2,63.047z"/>
	</g>
</g>
<g>
	<g>
		<path fill="#F06722" d="M42.875,49.167c-0.009-4.953-0.202-10.012,1.1-14.835c0.631-2.338-2.986-3.329-3.616-0.997
			c-1.391,5.151-1.243,10.542-1.234,15.832C39.129,51.585,42.879,51.585,42.875,49.167L42.875,49.167z"/>
	</g>
</g>
</svg>
